<?xml version="1.0" encoding="UTF-8"?>
<!DOCTYPE svg PUBLIC "-//W3C//DTD SVG 1.1//EN" "http://www.w3.org/Graphics/SVG/1.1/DTD/svg11.dtd">
<!-- Creator: CorelDRAW X5 -->
<svg xmlns="http://www.w3.org/2000/svg" xml:space="preserve" width="290mm" height="290mm" style="shape-rendering:geometricPrecision; text-rendering:geometricPrecision; image-rendering:optimizeQuality; fill-rule:evenodd; clip-rule:evenodd"
viewBox="0 0 29000 29000"
 xmlns:xlink="http://www.w3.org/1999/xlink">
 <defs>
  <style type="text/css">
   <![CDATA[
    .fil0 {fill:#0A7B36}
    .fil1 {fill:#335EA7}
    .fil3 {fill:#5B3625}
    .fil5 {fill:#5E6F83}
    .fil2 {fill:#E02426}
    .fil6 {fill:#FCFDFE}
    .fil4 {fill:#FEFEFE}
   ]]>
  </style>
 </defs>
 <g id="Слой_x0020_1">
  <metadata id="CorelCorpID_0Corel-Layer"/>
  <path class="fil0" d="M6351 25463c124,4 115,20 115,-96l454 0 0 545 113 3 2 -548 449 0c14,35 2,16 8,41 17,76 -17,-54 5,21l11 31 101 2 0 -1038 -1262 -1c-6,123 -10,969 5,1040z"/>
  <path class="fil1" d="M22632 24375c-5,144 81,320 172,462 30,48 71,119 104,158l-628 -2c27,-60 314,-336 266,-548l-636 0 -1 113c169,8 338,4 507,4 -6,58 -159,281 -196,300 -72,-26 -188,-192 -263,-212l-69 105c50,38 203,158 234,203 -35,84 -262,193 -302,225 -22,17 -12,9 -23,22l77 98c54,-26 134,-79 182,-119 42,-36 129,-115 163,-137 11,14 5,5 14,28 5,12 2,15 9,33l272 5 -5 250c-179,13 -373,4 -554,6l0 116 504 1c-23,154 -295,274 -429,321 -48,17 -146,39 -185,59 7,22 64,93 78,107 156,-28 350,-121 480,-216 46,-34 79,-76 122,-111 284,101 511,251 696,325 29,-33 51,-67 63,-110l-693 -313c4,-90 57,-62 276,-61 109,0 219,1 328,-1l6 -116 -568 -1 17 -253 290 -3 6 -81c46,13 257,232 373,250 32,-44 41,-56 74,-99 -47,-39 -335,-159 -356,-259 73,-42 242,-103 299,-153 -12,-38 -41,-75 -60,-102 -72,23 -252,161 -326,170 -32,-27 -95,-116 -107,-176l336 -160c-14,-41 -35,-71 -64,-106 -39,8 -122,61 -161,83 -184,103 -163,132 -223,-127l-99 24z"/>
  <path class="fil2" d="M2496 9597l720 2 5 234 -587 9c-39,12 -23,1006 -15,1107l127 5 4 -997 450 -5c12,125 -81,276 -136,341 -97,114 -201,155 -269,212 15,46 52,84 80,107 182,-77 272,-209 372,-360l29 -33c93,51 316,336 389,371 29,-27 71,-64 82,-109 -78,-92 -337,-311 -426,-375 -3,-48 5,-109 25,-145 40,-22 397,-19 465,-5 15,182 2,419 2,607 0,89 21,215 -58,244 -74,28 -225,-6 -297,-12l22 138c525,4 457,50 457,-712 0,-108 11,-286 -3,-386l-588 -3 0 -178c1,-17 3,-41 11,-48 78,-34 564,6 705,-13l3 -113 -1568 -2 -1 117z"/>
  <path class="fil3" d="M11313 3319l-594 3c-20,401 46,732 -126,1086 -23,47 -49,78 -65,121 24,45 43,59 63,99 102,-48 196,-376 218,-497 44,-233 6,-459 36,-684 74,-7 425,-10 484,5 10,188 23,288 64,464 40,167 112,140 -221,328 -92,52 -128,69 -221,109l-75 45c16,23 51,74 73,96 159,-32 488,-274 530,-286 76,99 145,322 345,399 287,110 293,-414 290,-433 -33,-16 -80,-36 -121,-28 -15,94 -23,282 -81,321 -97,61 -306,-239 -325,-352 47,-61 384,-362 392,-513l-104 -39c-50,113 -259,380 -338,408 -37,-79 -93,-418 -83,-527l646 -2 5 -118c-132,-18 -590,20 -660,-13 -24,-22 -4,-208 -20,-274 -32,-15 -75,-11 -113,-8l-1 288z"/>
  <path class="fil3" d="M16880 3170c82,18 984,8 1137,7l3 408 -1100 2c-17,175 -8,505 -1,683 10,246 240,224 466,224 166,0 552,20 692,-3 101,-17 167,-63 196,-145 23,-65 55,-224 51,-297 -28,-12 -93,-36 -133,-35 -47,406 -12,338 -724,338 -87,0 -173,0 -260,1 -97,0 -146,-23 -155,-118 -6,-71 -9,-474 5,-525l959 -1 6 97 124 1c15,-64 7,-446 7,-562 0,-24 7,-161 -13,-179 -42,-19 -1156,-22 -1257,-4l-4 110z"/>
  <path class="fil1" d="M15763 24562c-1,48 8,82 31,114l563 -24c10,71 14,423 -3,475l-704 2 3 117 708 2 -1 544 -636 5 -3 116 1410 1 2 -112 -639 -7 -2 -541c93,-18 284,-7 387,-7 63,0 126,0 189,0 83,0 134,25 137,-53 4,-99 -54,-66 -314,-66 -109,0 -300,11 -399,-7l2 -474 596 -44 -8 -118c-295,10 -689,64 -981,64 -89,0 -253,1 -338,13z"/>
  <path class="fil0" d="M12102 24689l985 2c-1,3 -747,625 -854,727 -75,71 -203,233 -136,373 62,127 230,138 383,140 260,4 808,78 952,-79 73,-79 110,-408 90,-438 -25,-22 -83,-46 -126,-35 -25,454 -74,427 -516,427 -412,0 -1046,60 -368,-473 165,-130 335,-284 520,-423 88,-66 189,-135 273,-211l5 -144 -1210 -2 -1 136z"/>
  <path class="fil2" d="M9597 9649l768 2c22,73 8,682 8,808 0,118 27,288 -67,335 -89,45 -279,-7 -371,-3 5,53 10,106 28,146 75,28 365,20 438,-13 131,-59 113,-188 113,-348 0,-146 -9,-845 3,-926l631 -1 -1 -116 -1541 -3 -9 118z"/>
  <polygon class="fil4" points="7034,25249 7490,25249 7492,24952 7038,24950 "/>
  <polygon class="fil4" points="6462,25247 6920,25248 6921,24955 6463,24950 "/>
  <polygon class="fil4" points="7035,24836 7489,24836 7493,24540 7038,24538 "/>
  <polygon class="fil4" points="6462,24834 6920,24836 6921,24543 6463,24538 "/>
  <path class="fil5" d="M24968 10367l1536 0 0 93 -723 0 0 289 652 0 0 106 -652 0 0 376 -100 0 0 -376 -655 0 0 -106 655 0 0 -289 -713 0 0 -93zm1249 -285l-78 -68 -228 249 78 68 228 -249zm-976 0l78 -68 228 249 -78 68 -228 -249zm380 -395l85 -57 120 179 -81 55 689 0 0 116 -1414 0 0 -116 719 0 -118 -176z"/>
  <g id="_72429288">
   <polygon class="fil6" points="18317,10678 18697,10680 18698,10535 18323,10534 "/>
   <polygon class="fil5" points="17778,10265 17778,10155 18818,10155 18818,10265 "/>
   <path class="fil5" d="M18129 9737c25,72 91,108 102,161l-660 3c-14,217 19,480 -5,688 -21,185 -57,382 -154,545 20,33 43,65 70,85 24,-22 40,-43 55,-74 43,-84 87,-207 104,-298 49,-255 39,-564 39,-833 382,-9 860,-1 1242,-1l9 -113 -666 -2c14,-35 36,-24 67,-62 -19,-32 -47,-63 -79,-95 -61,-62 -64,-31 -124,-3z"/>
   <path class="fil6" d="M18325 10406c55,16 303,9 374,5l-2 -127 -380 -2 7 123z"/>
   <polygon class="fil5" points="18093,9696 18171,9645 18313,9867 18234,9917 "/>
   <polygon class="fil5" points="18128,9673 18207,9623 18348,9845 18270,9895 "/>
   <polygon class="fil5" points="18190,10049 18327,10049 18327,10728 18190,10728 "/>
   <polygon class="fil5" points="17712,10521 17712,10408 18944,10408 18944,10521 "/>
   <polygon class="fil5" points="18741,10155 18833,10155 18833,10860 18741,10860 "/>
   <polygon class="fil5" points="17791,10781 17791,10674 18819,10674 18819,10781 "/>
   <path class="fil5" d="M18161 10778c-74,216 -500,329 -535,353l68 87c377,-96 523,-280 565,-383 68,163 404,359 611,386 25,-39 34,-51 57,-90 -34,-10 -136,-46 -174,-58 -124,-45 -359,-172 -388,-298l-11 -12 -52 0c-8,1 -16,2 -24,3 -14,3 -28,5 -41,6 -27,7 -50,6 -77,6z"/>
  </g>
 </g>
</svg>
