<?xml version="1.0" encoding="utf-8"?>
<!-- Generator: Adobe Illustrator 21.1.0, SVG Export Plug-In . SVG Version: 6.00 Build 0)  -->
<svg version="1.1" id="Слой_1" xmlns="http://www.w3.org/2000/svg" xmlns:xlink="http://www.w3.org/1999/xlink" x="0px" y="0px"
	 viewBox="0 0 467 446.3" style="enable-background:new 0 0 467 446.3;" xml:space="preserve">
<style type="text/css">
	.st0{fill:#FEFEFE;stroke:#FEFEFE;}
	.st1{fill:#FFFFFF;}
	.st2{fill:#FEFEFE;}
	.st3{fill:none;stroke:#2B2A29;stroke-linecap:round;stroke-linejoin:round;}
	.st4{fill:none;stroke:#000000;stroke-linecap:round;stroke-linejoin:round;}
	.st5{fill:#E9E9EC;}
</style>
<path class="st0" d="M395.1,189c-1,0.4-0.2,0-0.6,0.6c0.5,0,0.8,0,1.3,0h0.9c0,0,0.1,0,0.1,0h2l0.3-0.7c0.2-0.5-0.2-0.1,0.2-0.4
	c0.4-0.3-0.6,0.3,0.5-0.1c0.6-0.2,0.2,0,0.5-0.3l0.6,0.7c0,0,0.1,0.1,0.1,0.1l0.3,0.4c0,0,0.1,0.1,0.1,0.1c0.8-0.3,0.3-0.2,0.8-0.5
	c-0.1,0.6,0.3,0.4-1.4,1.1c-1,0.4-1.2,0.7-1.8,0.7c0.1-0.6,0-0.1,0.3-0.4c0.7-0.8,0.3,0.1,0.7-0.7l-1.3,0l-0.4,1.2
	c0,0,0,0.1,0.1,0.1c0.2,0.5,0.9,0.7,1.4,0.7c-0.6,0.3-0.2-0.1-0.4,0.6l-0.1,3.3h0.5c-0.4,1.6-0.8-0.3-0.9,1.8
	c0.5,0.1,0.5-0.4,0.5,0.7c0,0.5-0.1,0.7-0.3,1.3c0.1,0,0.2-0.1,0.2-0.1c0.1,0.2,0.4-0.6,1.3,0.1l0.6,0.7c0,0,0.1,0.1,0.1,0.1
	l0.1,0.2c-1,0-2.4-0.1-3.7,0c-1.4,0.1-4.1-0.4-4.2,1.1c-0.1,0.8,0,0,0,0.5l0.1,3.6c0,2-0.3,4.1,0.5,5l-0.1-9.5h5.8v1.8
	c-0.9,0.3-2,0.2-3.2,0.2v1.6c1.2,0,2.1-0.1,3,0.2v1.8c-1.8,0-3.3-0.6-3.3,1.1s1.8,0.5,3.5,1.2v1.4c-1.1,0.8-4.8,0.5-5.6,0.3l1.3,0.8
	c0,0,0.1,0,0.1,0c0.2,0,0.1-0.5,0.4,0.2c0,0.1,0.1,0.3,0.1,0.3c0,0.1,0.1,0.1,0.1,0.2c0.7,1.6,0.3,0.2,0.3,2.3c0,0,0.1,0,0.1,0
	c0.2,0.9,0.2,0,0.2,0c0.6,0.2-0.7-1.2,0.3,0.3l0.3,0.5c-0.8-0.3-1.6-0.3-2.6-0.1l-0.5,0.5c0.8,0.3,0.9,0.1,1.5,0.5
	c-0.4,0.4-1,0.3-1.4,0.7c0.5,0.1-0.6,0.2,0.7,0.1c1.6,0.1,3.4-0.2,4.7,0.6c1.6,1,1.1,2.7-0.1,3.7c0.6,0.8,1.7,1,1.4,2.7
	c-0.1,1.2-1,1.8-2,2.1c-0.2,0.5-0.5,0.6-2.2,0.6c-0.7,0-1.8-0.2-2.4,0c0.1,0,0.1,0,0.2,0.1c0,0.1,0.1,0.1,0.2,0.1l1.5,0.4
	c0.3,0.1,0-0.1,0.3,0.1l0.4,0.4c0,0,0.1,0.1,0.1,0.1v0.7l-0.9,0.5c0,2.7,0.4,1.7,0.5,2.8h-0.7c0.1,1.6,0.3,0.5,0.5,1.7
	c0.1,0.9-0.3,0.9-0.5,1.9c0.9,0,0.9-0.2,1.2,0.5h-1.1c0.6,3.6-0.5,0.8-0.5,3.1c0,0.9,0.3,0.7,0.5,1.2c0.3,0.5,0.1,0.5,0.2,0.9
	c0.2,0.9-0.1,0.5,0.4,0.8c-1.4,0.2-0.5,0.1-0.9,1l-0.7,1.1c-0.4,0.6-0.4,0.5-0.9,0.7v0.6c1.2-0.1,0.6-0.3,1.6,0v1.5
	c0.1,0,0.1,0,0.2,0.1c0.1,0.2,0.5-0.1,0.3,1l0,0.2c0,0,0,0.1,0,0.1c0,0.1-0.2,0.4-0.2,0.5c0.5,0.2,0.1,0.1,1,0.2
	c-0.7,0.2-0.5,0-0.7,0.7c2.7-0.1,4.7-0.8,5.6-0.8c4.2,0.1,15.4-5.3,19.3-7.8l5.9-4.1c4.4-3.5,11.4-11.1,14.4-16.3
	c1.2-2.2,3.6-6.7,4.5-9c1.3-3.4,2.4-6.7,3.2-10.4c0.9-4.4,1.2-7.7,1.2-12.3c0-12.3-2.5-21.4-8.4-32c-4.2-7.5-12.8-16.5-20.1-20.9
	c-4.6-2.8-13.5-7.3-19.2-8.1c2.1,1.4,5,2.7,7.6,5.2c1.2,1.2,2.2,2.2,3.1,3.4c5.4,6.9,8.3,15.3,6.8,25.1c-1,6.4-4,13.2-8.5,17.4
	c-2.9,2.8-3.5,3.5-7.2,5.7c-2.3,1.3-4.2,2.1-6.7,3c-0.7,0.2-1.8,0.5-2.6,0.7L395.1,189z"/>
<path class="st1" d="M97.1,187.3c-0.4,1.3-0.2,0.3,0.1,0.7c1.6-0.1,0.8-0.7,2-0.1c-0.7,0.5-0.4,0-0.5,1.3c0.6,0.3,0.3,0.2,1.2,0.2
	c-0.1,0.8-0.5,0.5-0.2,1.6c0.3,1.5,0.3,0.6-0.1,1.9c-0.2,0.7,0,1.1,0.1,2.2c0.7,22.6-5.8,20.1-3.2,22.9c-0.1,0.1-0.6,0.6-0.7,0.8
	c-0.2,0.4-0.2,1.9-1.3,2.7c-0.9,0.7,0.7-0.3-0.2,0.1l-0.2,0.1c0.4,2.1,0,6.8,0.1,9c0.1,2.2,0.7-0.3,0.3,2.2c0.1,0,0.2-0.2,0.2-0.1
	s0.1-0.1,0.2-0.1c0,0,0.1-0.1,0.2-0.1c0,0,0.1-0.1,0.1-0.1c0.3-0.1,0.2-0.1,0.8,0.9c0.4,0.6,0.2-0.5,0.3,0.7l0.2,4h-0.9
	c0.2,1.1,0.2,0.5,0.4,1.1c0.5,2-0.4,3.2-0.3,3.5c0.1,0.6-0.1,0,0.1,0.2c0,1.2-0.8,1.2-1.8,1.2v1.8h1.6v1.7c-2.4,0-1.4,0-3.5,0.6
	l-1.1,0.4c1.1,1.1,1.8-0.2,2.5,1c0.4-0.3,0.5-0.7,1-1c0.4,0.7-0.1,0.7,0.9,1c-0.9,0-2.3,0.1-3.1,0.3l-2.1,0.4
	c-0.7,0.2-0.3,0-0.8,0.4c1.4-0.1,3.3-0.5,4.6-0.2c1.7,0.3,9.4-1.8,11.1-2.4c1.7-0.6,3.4-1.2,5-1.9c8.4-3.8,14.7-8.2,20.6-14.5
	c8.6-9.1,16-22.5,16.9-39.1c1-17.7-5.2-32-13.5-42.5c-3.8-4.7-9.3-10-14.7-13.3c-7.4-4.5-9.7-5.5-18.2-8c-0.3-0.1-0.3-0.2-0.7-0.1
	c-0.7,0.1-0.3-0.1-0.8,0.3c4.9,2,10,7.2,12.7,11.3c8.9,13.7,5.8,32.7-7.7,42.9C102.9,184.5,99.4,186.6,97.1,187.3L97.1,187.3z"/>
<path class="st2" d="M395.1,189c-3.6,0.2-12.6,0.9-16.1,2c-2.4,0.8-4.5,1.9-6.2,2.8l-2.3,1.6c-0.1,0.1-0.3,0.2-0.4,0.3
	c-0.9,0.6-1.7,1.3-2.5,2c-1.2,1.1-3.3,3.4-4.1,4.8c-1.6,2.6-1.9,2.2-3.3,5.8c-4.2,10.9-3,19.4,2.6,28.9c0.9,1.5,3.8,4.8,5.2,6
	c1.2,0.9,0.6,0.7,2,1.7l1.9,1.4c0.6,0.4,0.6,0.5,1.3,0.8c0.7,0.3,0.9,0.4,1.6,0.7c1,0.5,2.2,1,3.2,1.4c2.9,1.1,4.4,1.3,7.4,1.8
	c2.6,0.5,15.5-0.3,16.5-1.5c-0.9-0.1-3,0.7-5.6,0.8c0.3-0.7,0.1-0.5,0.7-0.7c-0.8,0-0.4,0-1-0.2c0-0.1,0.2-0.4,0.2-0.5
	c0,0,0-0.1,0-0.1l0-0.2c0.2-1.1-0.3-0.7-0.3-1c0-0.1-0.1-0.1-0.2-0.1v-1.5c-1-0.3-0.4-0.1-1.6,0v-0.6c0.5-0.1,0.5-0.1,0.9-0.7
	l0.7-1.1c0.4-1-0.5-0.8,0.9-1c-0.6-0.3-0.2,0.1-0.4-0.8c-0.1-0.4,0.1-0.3-0.2-0.9c-0.3-0.5-0.5-0.3-0.5-1.2c0-2.2,1.1,0.5,0.5-3.1
	h1.1c-0.3-0.7-0.2-0.5-1.2-0.5c0.2-1,0.5-1,0.5-1.9c-0.1-1.2-0.4-0.2-0.5-1.7h0.7c0-1.1-0.5-0.1-0.5-2.8l0.9-0.5v-0.7
	c-0.1,0-0.1-0.1-0.1-0.1l-0.4-0.4c-0.3-0.2,0,0-0.3-0.1l-1.5-0.4c-0.1,0-0.1,0-0.2-0.1c0-0.1-0.1-0.1-0.2-0.1c0.6-0.3,1.7,0,2.4,0
	c1.7,0,2-0.1,2.2-0.6c-1.3,0.3-2.9,0.5-4.2,0.1c-0.3-1.6-0.4-7.9,0.2-9.2c-1.3,0.1-0.1,0.1-0.7-0.1c0.4-0.4,1-0.3,1.4-0.7
	c-0.6-0.4-0.7-0.2-1.5-0.5l0.5-0.5c1-0.2,1.8-0.2,2.6,0.1l-0.3-0.5c-1-1.5,0.3-0.1-0.3-0.3c0,0,0,0.8-0.2,0c0,0-0.1,0-0.1,0
	c0-2.1,0.4-0.8-0.3-2.3c0-0.1-0.1-0.1-0.1-0.2c0-0.1-0.1-0.3-0.1-0.3c-0.3-0.7-0.2-0.2-0.4-0.2c0,0-0.1,0-0.1,0l-1.3-0.8
	c0.8,0.2,4.5,0.6,5.6-0.3v-1.4c-1.7-0.6-3.4,0.6-3.5-1.2c-0.1-1.8,1.4-1.1,3.3-1.1v-1.8c-0.9-0.3-1.8-0.2-3-0.2v-1.6
	c1.2,0,2.3,0.1,3.2-0.2v-1.8h-5.8l0.1,9.5c-0.8-0.8-0.5-3-0.5-5l-0.1-3.6c0-0.6-0.1,0.3,0-0.5c0.1-1.5,2.8-1,4.2-1.1
	c1.3-0.1,2.6,0.1,3.7,0l-0.1-0.2c0,0-0.1-0.1-0.1-0.1l-0.6-0.7c-0.9-0.8-1.2,0-1.3-0.1c0-0.1-0.1,0.1-0.2,0.1
	c0.1-0.6,0.3-0.8,0.3-1.3c0-1.2,0.1-0.6-0.5-0.7c0.1-2.1,0.5-0.2,0.9-1.8h-0.5l0.1-3.3c0.2-0.7-0.2-0.3,0.4-0.6
	c-0.5-0.1-1.1-0.3-1.4-0.7c0,0,0-0.1-0.1-0.1l0.4-1.2l1.3,0c-0.3,0.9,0.1,0-0.7,0.7c-0.2,0.3-0.2-0.2-0.3,0.4
	c0.6-0.1,0.9-0.3,1.8-0.7c1.7-0.7,1.3-0.5,1.4-1.1c-0.5,0.3,0,0.2-0.8,0.5c0-0.1-0.1-0.1-0.1-0.1l-0.3-0.4c0,0-0.1-0.1-0.1-0.1
	l-0.6-0.7c-0.3,0.3,0.1,0.1-0.5,0.3c-1.1,0.4-0.1-0.1-0.5,0.1c-0.4,0.3,0-0.1-0.2,0.4l-0.3,0.7h-2c0,0-0.1,0-0.1,0h-0.9
	c-0.5,0-0.8,0-1.3,0c0.4-0.6-0.4-0.2,0.6-0.6L395.1,189z"/>
<path d="M307,177.6l6.6,7.4c0.5,0.5,0.7,0.5,0.7,1.2c-27-0.1-56.4-0.1-83.4,0.1l-20.4,0.1c-0.4,1.4-1.4,3.4-1,4.3
	c11.1,0.5,27.8,0.2,39.5,0.2l65.3,0.1c-0.4,1.3-6.2,6.9-7.3,8.7c0.4,0.8,2.4,2.4,3.4,3.1c0.6-0.5,12.1-13.2,12.7-14.4
	c-0.3-0.6-11.9-13.6-12.7-14.2C309.6,174.8,307.5,176.6,307,177.6z"/>
<path d="M305.5,297.5c-2.4-0.3-9.3-4.2-10.9-4c-0.3,0.5-1.5,3.5-1.5,4.2c0.4,0.3,16.2,7.2,17.7,7.1c0.7-0.9,1.8-3,2.4-4.1
	c0.9-1.6,1.6-2.7,2.3-4.1c1-1.8,4.3-7.1,4.5-8.3c-0.5-0.5-3.4-2.1-3.9-2.3c-0.8,0.6-4.9,8.1-5.6,9.7c-0.5-0.5-0.5-0.5-0.8-1.3
	l-1.5-4.6c-0.7-2.1-1.3-4.3-2-6.3c-1.4-4.1-2.8-8.7-4.1-12.5l-12.1-37c-0.7-2.2-1.4-4.2-2-6.2c-0.3-1-0.7-1.9-1.1-3
	c-0.4-1-0.7-2.2-1-3.1l-4.1-12.5c-0.4-1.1-0.7-1.9-1.1-3c-0.2-0.6-0.4-1.1-0.5-1.6c-0.1-0.5-0.3-1.1-0.5-1.6c-0.4-1.3-0.7-1.9-1-3.1
	c-0.4-1.3-0.5-2-1.2-2.9h-4c0,1.9,0.5,1.7,0.8,3.2c0.7,2.8,3.9,12.6,5,15.7c0.7,2,1.4,4.3,2,6.2l16.2,50.1
	c1.9,5.9,5.5,16.3,7.1,21.8C304.8,295.5,305.3,296.4,305.5,297.5L305.5,297.5z"/>
<path d="M138.1,227.1L140,246c1,0.2,3.9-0.1,4.7-0.4c0.4-1.9-0.8-8.6-0.9-11.3c1.2,0.5,4,2.8,5.3,3.7c1.6,1.2,3.7,2.6,5.2,3.7
	l57.4,41.5c3.5,2.6,9.6,7,13.2,9.4l2.7,2c1-0.3,1.1-0.4,1.9-1c0.6-0.4,1.2-0.7,1.6-1.2c-0.3-1-0.7-1-1-1.2l-41-30.1
	c-7.3-5.4-14.3-10.3-21.2-15.5l-15.9-11.6c-1.7-1.3-3.4-2.3-5.3-3.8c1-0.9,10.3-2.2,10.9-2.9c0.5-0.6-0.7-4.4-0.8-4.6
	C156.1,222.8,138.7,226.8,138.1,227.1L138.1,227.1z"/>
<path d="M199.2,148.3l1.8,4.3c1.7-0.1,8.2-3.7,10.7-4.4c0,1-10.9,34.4-11.8,37c-1.8,5.3-4.2,13.4-6,18.3c-1.2,3.1-2.4,8.3-3.9,12.4
	c-1.7,4.5-4.5,15.1-5.9,18.6c-0.4,1-0.5,1.9-0.9,3c-0.8,2-0.8,3.1-1.2,3.9c-0.2,0.3-0.3,0.5-0.4,0.7c-0.2,0.5-0.3,1.3-0.4,1.7
	c-1,3.2-1.7,3,0.7,4.4c0.4,0.2,0.9,0.7,1.3,0.7c0.9,0.2,1.1-1,1.7-2.9c2.1-6.4,5.1-15.8,7.2-21.7c1.6-4.3,2.6-8.2,4.1-12.4l4.1-12.5
	c1.3-4.1,2.7-8.2,4.1-12.3l10.1-31.2c0.6-1.7,1.4-4.9,2.1-6c1.2,1,4.7,8.5,6,9.6c1.3-0.2,2.9-1.6,3.9-2.1
	c-0.2-1.5-7.9-13.9-9.6-16.6C214.6,141.3,202.3,147.1,199.2,148.3L199.2,148.3z"/>
<path d="M201.8,321c0-2.8,1.2-9.3,0.7-11.3l-4.4-0.4c-0.6,1.2-0.8,7.5-1.1,9.4c-0.2,1.4-0.3,3.4-0.4,5c-0.1,0.9-0.1,1.6-0.2,2.4
	c-0.1,0.4-0.2,0.8-0.2,1.2c0,0.6,0,0.8,0.3,1.1c0.5,0.4,17.7,4,18.5,3.9c0.4-0.7,0.4-1.3,0.6-2.2c0.8-3.9,0.5-1.9-9.7-4.7l-0.4-0.1
	c-0.1,0-0.1-0.1-0.2-0.1c-0.1,0-0.1,0-0.2-0.1c0.4-1,3.7-3,4.8-3.8l78-57.1c0.2-0.2,0.4-0.2,0.6-0.4c0-0.5-0.9-3.6-1.2-4.3
	c-0.7,0.2-2.7,2-3.9,2.7c-2.2,1.4-4.8,3.2-6.7,4.8c-1,0.8-1.7,1.1-2.7,1.9l-40,28.8C230.3,300.5,202.9,320.6,201.8,321L201.8,321z"
	/>
<path d="M154,88.1l0.3,0.2l8.6,3.8c0.7,0.3,0.8,0.3,1.2,0.9c-4,1.7-14.1,7.7-18,10.6c-5.5,4-11.5,8.1-16.5,12.9
	c-2,1.9-2.7,2.4-5,4.8c-1.6,1.7-3.3,3.3-4.9,5c0.2,0.8,1.6,2.5,2.2,3.1l10-8.9c7-5.9,14-11.6,21.9-16.4c2-1.2,10.4-6.4,12.6-6.9
	c-0.1,2-2.8,8.5-3.1,10.9c0.8,0.6,3.1,1.4,4.5,1.4c0.7-2.8,1.9-6.1,2.8-8.9c0.5-1.6,2.7-8.4,2.7-9.4c-2.3-0.9-16.6-7.5-17.5-7.6
	C155.2,84.9,154.1,87,154,88.1L154,88.1z"/>
<path d="M378.6,312c-0.9-1.3-2.8-8.9-3.9-10.5c-1.1,0-3.7,0.9-4.3,1.4c0.8,2.4,5.5,17.1,6.2,17.9c1.2,0.1,17.9-3.5,18.6-3.9
	c0-1.4-0.5-3.5-1-4.4c-1.6-0.1-4.1,0.7-5.7,1c-1.8,0.3-3.8,0.9-5.5,1.1c0.2-0.9,2.3-4.8,2.8-5.9c2.3-5.1,5.9-13.6,7.5-18.9l2.1-6.7
	c1.7-6,4.2-16.5,4.1-22.4c-6.5,0.8-3.2,0.3-6.1,11.7c-1.2,4.5-2.5,10-3.9,14.2c-1.7,5-3,8.3-4.8,13C384,301.5,379.5,311.4,378.6,312
	L378.6,312z"/>
<path d="M201.5,395.5c0.2,1.3,1.6,3.2,2.2,4.3c9.2,15.1,4.9,13.2,11.1,10.5c-0.1-1.1-2-4.1-2.6-5.2c-0.7-1.2-2.6-4.2-2.7-5.4
	c11.9,1.9,30.7,3.3,43.6,1.6c3.8-0.5,7.8-1.2,11.6-1.6c-0.1-0.8-1.7-3.4-2.2-4.1c-4.1,0.3-8.4,1-12.6,1.3
	c-8.2,0.5-18.6,0.8-26.8-0.3c-2.4-0.3-10.9-1-12.4-1.8c1.4-1.5,8.1-5.5,8.7-6.9l-2.5-3.6c-1.3,0.5-2.9,1.9-3.9,2.7
	C211.2,388.6,202.7,394.9,201.5,395.5L201.5,395.5z"/>
<path d="M307.1,95.7c1.1,0.3,2.3,1.1,3.2,1.5c0.5,0.3,0.8,0.5,1.4,0.9c0.6,0.3,1.1,0.5,1.6,0.7l2.9,1.7c0.7,0.4,0.6,0.5,1.3,0.9
	c0.5,0.3,1,0.6,1.4,0.9l2.8,1.8c2.6,1.9,5.7,3.7,8.1,5.6c1.9,1.5,3.3,2.4,5.2,3.9c2.9,2.4,7.1,5.7,9.9,8.4c0.5,0.5,4.2,3.7,4.5,4.8
	l-11.2,0.4c-0.3,1-0.4,3.8,0.2,4.5c0.5,0.5,8.1,0.1,9.3,0.1l9.7-0.3c0.4-1.3,1.8-17.6,1.7-19.1c-1-0.4-3.4-0.6-4.6-0.4
	c-0.3,2-0.8,10.3-1.2,11.3c-0.4-0.1-4.1-3.9-4.9-4.6c-1.8-1.6-3.4-3-5.2-4.5c-7.1-5.9-14.5-11.3-22.6-15.9c-1.7-1-11.6-6.6-12.6-6.8
	L307.1,95.7L307.1,95.7z"/>
<path d="M64.8,267.9c0.5,0.9,0.7,0.7,1.7,1.6c0.6,0.6,1,1.2,1.8,1.4c1.5-1.2,6.7-8,7.6-8.5c0,0.1,0.1,0.1,0.1,0.2l0.1,0.3l0.5,2.7
	c0.1,1,0.4,2.5,0.6,3.4c0.5,2.3,0.8,4.7,1.4,6.9c2.4,9.5,4.1,15.7,8.1,24.7c0.4,1,4.5,10.5,5.3,11.4l3.1-1.8l-4.5-11.1
	c-5.5-13.9-7.2-22.6-9.8-37.2c1.1,0.3,3.7,2.2,5,3c1,0.7,3.9,2.7,4.8,3c0.5-0.7,2.1-3,2.3-3.8c-0.7-0.7-10.4-7.1-11.8-7.9
	c-1.3-0.7-2.6-2.3-4.1-2.6c-0.7,1.1-7.7,9.2-9.2,10.8C67.1,265,65.2,267.2,64.8,267.9L64.8,267.9z"/>
<path d="M167.9,282.8l5.3,0l5.5-16.3c-0.6-0.7-3.1-2.6-3.9-3.1c0,0.1-0.1,0.1-0.1,0.1l-0.9,2.2C172.5,269.6,168.4,280.7,167.9,282.8
	z"/>
<path d="M241.1,304.7c0.6,0.7,16.6,12.1,17.4,12.4l1.3-4.5c-0.8-0.4-13.5-9.3-14.5-10.3L241.1,304.7z"/>
<path d="M301.6,248.9c0.1,1.3,0.7,3.7,1.3,4.7c0.8-0.3,13.7-10.1,14.3-10.7c-0.1-0.8-0.4-1.5-0.6-2.3l-0.9-2.2
	C313.9,239.5,302.2,248.3,301.6,248.9L301.6,248.9z"/>
<path d="M174.2,186.6l-1.2,4.3l18.3-0.2c0.5-0.9,1.3-3.4,1.4-4.6L174.2,186.6L174.2,186.6z"/>
<path d="M267.9,180.4l4.3,0.2l-5-15.5l-4.6-0.1c0.3,2,1.9,5.6,2.6,7.7C266.2,175.4,267,177.8,267.9,180.4z"/>
<path class="st3" d="M234.1,16.1c33,0,59.7,26.7,59.7,59.7s-26.7,59.7-59.7,59.7s-59.7-26.7-59.7-59.7S201.1,16.1,234.1,16.1z"/>
<g>
	<path class="st4" d="M247.8,18l0.3,0.3c0.6,0.6,2.5,1.5,3.9,2.6c1.3,0.9,2.6,2,3.8,3.2c7.9,8.1,11.3,20.4,7.4,31.5
		c-3.7,10.5-11.5,17.2-21.7,20c-4.2,1.2-8.5,0.6-12.8,1.4c-7.4,1.3-13.8,5.7-17.6,10.4c-4.4,5.5-7.1,11.8-6.6,21.3
		c0.8,14,13.8,26.9,29.1,26.9c17.3,0,30.8-6.6,40.5-15.3c8.5-7.6,17.7-21,19.3-36.6c2.9-27.8-11.3-51.5-34.8-62.1
		C256.2,20.4,250.4,18.2,247.8,18L247.8,18z"/>
	<path id="_x31__1_" class="st5" d="M247.8,18l0.3,0.3c0.6,0.6,2.5,1.5,3.9,2.6c1.3,0.9,2.6,2,3.8,3.2c7.9,8.1,11.3,20.4,7.4,31.5
		c-3.7,10.5-11.5,17.2-21.7,20c-4.2,1.2-8.5,0.6-12.8,1.4c-7.4,1.3-13.8,5.7-17.6,10.4c-4.4,5.5-7.1,11.8-6.6,21.3
		c0.8,14,13.8,26.9,29.1,26.9c17.3,0,30.8-6.6,40.5-15.3c8.5-7.6,17.7-21,19.3-36.6c2.9-27.8-11.3-51.5-34.8-62.1
		C256.2,20.4,250.4,18.2,247.8,18L247.8,18z"/>
</g>
<path class="st2" d="M192.6,38h4.9c1.1,0,1.8,0.3,2.4,0.7c0.5,0.5,0.8,1.2,0.8,2.2s-0.3,1.7-0.9,2.2c-0.6,0.5-1.4,0.8-2.6,0.8h-1.6
	v3.5h-2.9L192.6,38L192.6,38z M195.5,42h0.7c0.6,0,1-0.1,1.2-0.3c0.2-0.2,0.3-0.5,0.3-0.7s-0.1-0.5-0.3-0.7s-0.6-0.3-1.1-0.3h-0.8
	V42z M208,45.9h-3.3l-0.5,1.6h-3l3.6-9.5h3.2l3.6,9.5h-3.1L208,45.9L208,45.9z M207.4,43.8l-1-3.4l-1,3.4H207.4L207.4,43.8z
	 M212.5,38h5.5c0.9,0,1.6,0.2,2.1,0.7c0.5,0.5,0.7,1,0.7,1.7c0,0.5-0.2,1-0.5,1.4c-0.2,0.3-0.6,0.5-1,0.6c0.7,0.2,1.2,0.4,1.5,0.8
	c0.3,0.4,0.5,0.9,0.5,1.5c0,0.5-0.1,0.9-0.3,1.3c-0.2,0.4-0.5,0.7-1,0.9c-0.3,0.1-0.6,0.2-1.1,0.3c-0.7,0.1-1.1,0.1-1.3,0.1h-5V38z
	 M215.4,41.7h1.3c0.5,0,0.8-0.1,1-0.2c0.2-0.2,0.3-0.4,0.3-0.7c0-0.3-0.1-0.5-0.3-0.6c-0.2-0.1-0.5-0.2-0.9-0.2h-1.3V41.7z
	 M215.4,45.4h1.5c0.5,0,0.9-0.1,1.1-0.3c0.2-0.2,0.3-0.4,0.3-0.7s-0.1-0.5-0.3-0.7c-0.2-0.2-0.6-0.3-1.1-0.3h-1.5V45.4L215.4,45.4z
	 M222.8,38h2.9v3.3h3.2V38h2.9v9.5h-2.9v-3.8h-3.2v3.8h-2.9V38z M233.4,42.7c0-1.6,0.4-2.8,1.3-3.6c0.9-0.9,2.1-1.3,3.6-1.3
	c1.6,0,2.8,0.4,3.7,1.3c0.9,0.8,1.3,2,1.3,3.5c0,1.1-0.2,2-0.5,2.7c-0.4,0.7-0.9,1.3-1.6,1.6c-0.7,0.4-1.6,0.6-2.6,0.6
	c-1.1,0-2-0.2-2.6-0.5c-0.7-0.3-1.3-0.9-1.7-1.6C233.7,44.7,233.5,43.8,233.4,42.7L233.4,42.7z M236.4,42.7c0,1,0.2,1.6,0.5,2.1
	c0.3,0.4,0.8,0.6,1.4,0.6c0.6,0,1.1-0.2,1.5-0.6s0.5-1.2,0.5-2.2c0-0.9-0.2-1.6-0.5-2c-0.3-0.4-0.8-0.6-1.5-0.6
	c-0.6,0-1.1,0.2-1.4,0.6C236.5,41.1,236.3,41.8,236.4,42.7L236.4,42.7z M244.8,38h7.8v2h-4.9v1.5h4.5v1.9h-4.5v1.9h5v2.2h-8V38z
	 M206.2,66.1h-2.9v-7.1H200v7.1h-2.9v-9.5h9.1L206.2,66.1L206.2,66.1z M216.8,66.1h-2.9v-7.1h-2.3v2.9c0,1.2-0.1,2.1-0.2,2.6
	c-0.1,0.6-0.4,1-0.9,1.2c-0.5,0.3-1.2,0.4-2.3,0.4c-0.3,0-0.7,0-1.1-0.1v-1.9h0.4c0.4,0,0.7-0.1,0.8-0.3c0.2-0.2,0.3-0.5,0.3-1v-6.3
	h8.1L216.8,66.1L216.8,66.1z M218.7,56.6h7.8v2h-4.9v1.5h4.5v1.9h-4.5v1.9h5v2.2h-8V56.6z M237,66.1h-2.9v-3.5
	c-0.9,0.5-1.8,0.7-2.6,0.7c-1,0-1.8-0.3-2.4-0.9c-0.6-0.6-0.9-1.4-0.9-2.4v-3.5h2.9v2.9c0,0.5,0.1,0.8,0.3,1.1
	c0.2,0.3,0.5,0.4,1,0.4c0.8,0,1.3-0.2,1.7-0.7v-3.7h2.9V66.1z M238.6,61.4c0-1.6,0.4-2.8,1.3-3.6c0.9-0.9,2.1-1.3,3.6-1.3
	c1.6,0,2.8,0.4,3.7,1.3c0.9,0.8,1.3,2,1.3,3.5c0,1.1-0.2,2-0.5,2.7c-0.4,0.7-0.9,1.3-1.6,1.6c-0.7,0.4-1.6,0.6-2.6,0.6
	c-1.1,0-2-0.2-2.6-0.5c-0.7-0.3-1.3-0.9-1.7-1.6C238.8,63.4,238.6,62.5,238.6,61.4L238.6,61.4z M241.5,61.4c0,1,0.2,1.6,0.5,2.1
	c0.3,0.4,0.8,0.6,1.4,0.6c0.6,0,1.1-0.2,1.5-0.6c0.3-0.4,0.5-1.2,0.5-2.2c0-0.9-0.2-1.6-0.5-2c-0.3-0.4-0.8-0.6-1.5-0.6
	c-0.6,0-1.1,0.2-1.4,0.6C241.7,59.7,241.5,60.4,241.5,61.4L241.5,61.4z"/>
<path d="M221.4,86.1H218v6.4h-2.2V84h5.6V86.1z M222.4,84h3.7c0.8,0,1.4,0.2,1.8,0.7c0.4,0.5,0.6,1.1,0.6,1.9c0,0.9-0.2,1.5-0.6,2
	c-0.4,0.5-1.1,0.7-2,0.7h-1.2v3.1h-2.2V84z M224.6,87.6h0.5c0.4,0,0.7-0.1,0.9-0.3c0.2-0.2,0.3-0.4,0.3-0.7c0-0.3-0.1-0.5-0.2-0.7
	c-0.1-0.2-0.4-0.3-0.8-0.3h-0.6V87.6z M233.9,91.1h-2.5l-0.3,1.4h-2.2l2.7-8.5h2.4l2.7,8.5h-2.3L233.9,91.1z M233.5,89.3l-0.8-3.1
	l-0.8,3.1H233.5z M239.5,87.3h1.2c1.1,0,1.9,0.2,2.4,0.7c0.5,0.5,0.8,1.2,0.8,2.1c0,0.8-0.2,1.4-0.7,1.8c-0.5,0.4-1.2,0.6-2,0.6
	h-3.8V84h6v1.7h-3.8V87.3L239.5,87.3z M239.5,90.7h1.1c0.7,0,1-0.3,1-0.9c0-0.5-0.3-0.8-1-0.8h-1.1V90.7z M251.8,84v8.5h-2.1v-4.7
	l-2.6,4.7H245V84h2.1v4.7l2.7-4.7H251.8z M252.8,84h6.7v2.1h-2.2v6.4H255v-6.4h-2.2V84z M260.4,84h5.9v1.8h-3.7v1.4h3.4v1.7h-3.4
	v1.7h3.8v1.9h-6V84z M274.1,92.5h-2.2v-6.4h-1.7v2.6c0,1.1-0.1,1.9-0.1,2.4c-0.1,0.5-0.3,0.9-0.7,1.1c-0.3,0.2-0.9,0.3-1.7,0.3
	c-0.2,0-0.5,0-0.8-0.1v-1.7h0.3c0.3,0,0.5-0.1,0.6-0.2c0.1-0.1,0.2-0.4,0.2-0.9V84h6.1L274.1,92.5L274.1,92.5z M277.8,87.3h1.2
	c1.1,0,1.9,0.2,2.4,0.7c0.5,0.5,0.8,1.2,0.8,2.1c0,0.8-0.2,1.4-0.7,1.8c-0.5,0.4-1.2,0.6-2,0.6h-3.8V84h2.2V87.3L277.8,87.3z
	 M277.8,90.7h1.1c0.7,0,1-0.3,1-0.9c0-0.5-0.3-0.8-1-0.8h-1.1V90.7z M218,104h1.2c1.1,0,1.9,0.2,2.4,0.7c0.5,0.5,0.8,1.2,0.8,2.1
	c0,0.8-0.2,1.4-0.7,1.8c-0.5,0.4-1.2,0.6-2,0.6h-3.8v-8.5h6v1.7H218V104L218,104z M218,107.4h1.1c0.7,0,1-0.3,1-0.9
	c0-0.5-0.3-0.8-1-0.8H218V107.4z M223.2,105c0-1.4,0.3-2.5,1-3.2c0.6-0.8,1.6-1.2,2.7-1.2c1.2,0,2.1,0.4,2.7,1.2
	c0.6,0.7,1,1.8,1,3.2c0,1-0.1,1.8-0.4,2.4c-0.3,0.6-0.7,1.1-1.2,1.5c-0.5,0.3-1.2,0.5-2,0.5c-0.8,0-1.5-0.1-2-0.5
	c-0.5-0.3-1-0.8-1.3-1.4S223.2,106,223.2,105L223.2,105z M225.4,105c0,0.9,0.1,1.5,0.4,1.8c0.3,0.4,0.6,0.6,1.1,0.6
	c0.5,0,0.8-0.2,1.1-0.5c0.3-0.4,0.4-1,0.4-2c0-0.8-0.1-1.4-0.4-1.8c-0.3-0.4-0.6-0.5-1.1-0.5c-0.4,0-0.8,0.2-1.1,0.6
	C225.6,103.5,225.4,104.2,225.4,105L225.4,105z M237.4,102.8H234v6.4h-2.2v-8.5h5.6V102.8z M242.8,107.8h-2.5l-0.3,1.4h-2.2l2.7-8.5
	h2.4l2.7,8.5h-2.3L242.8,107.8z M242.3,106l-0.8-3.1l-0.8,3.1H242.3z M245.6,100.7h6.7v2.1H250v6.4h-2.2v-6.4h-2.2V100.7z
	 M258,105.8l1.9,0.7c-0.1,0.6-0.3,1.2-0.6,1.6c-0.3,0.4-0.6,0.7-1,1c-0.4,0.2-1,0.3-1.6,0.3c-0.8,0-1.4-0.1-1.9-0.4
	c-0.5-0.3-0.9-0.7-1.3-1.4c-0.3-0.7-0.5-1.5-0.5-2.6c0-1.4,0.3-2.5,1-3.3c0.6-0.7,1.5-1.1,2.6-1.1c0.9,0,1.6,0.2,2.1,0.7
	c0.5,0.4,0.9,1.1,1.2,2l-1.9,0.5c-0.1-0.3-0.1-0.5-0.2-0.6c-0.1-0.2-0.3-0.3-0.5-0.5c-0.2-0.1-0.4-0.2-0.6-0.2
	c-0.5,0-0.9,0.2-1.2,0.7c-0.2,0.3-0.3,0.9-0.3,1.7c0,1,0.1,1.6,0.3,1.9c0.2,0.3,0.6,0.5,1,0.5s0.7-0.1,1-0.4
	C257.7,106.7,257.9,106.2,258,105.8L258,105.8z M260.5,100.7h6.7v2.1h-2.2v6.4h-2.2v-6.4h-2.2V100.7z M268.1,100.7h4.1
	c0.7,0,1.2,0.2,1.6,0.6c0.4,0.4,0.5,0.9,0.5,1.5c0,0.5-0.1,0.9-0.4,1.3c-0.2,0.2-0.4,0.4-0.8,0.6c0.5,0.1,0.9,0.4,1.1,0.7
	c0.2,0.3,0.4,0.8,0.4,1.4c0,0.4-0.1,0.8-0.3,1.2c-0.2,0.3-0.4,0.6-0.7,0.8c-0.2,0.1-0.5,0.2-0.8,0.3c-0.5,0.1-0.8,0.1-1,0.1h-3.8
	V100.7z M270.4,104.1h1c0.3,0,0.6-0.1,0.7-0.2c0.1-0.1,0.2-0.3,0.2-0.6c0-0.3-0.1-0.4-0.2-0.6c-0.1-0.1-0.4-0.2-0.7-0.2h-1V104.1
	L270.4,104.1z M270.4,107.4h1.1c0.4,0,0.6-0.1,0.8-0.2c0.1-0.2,0.2-0.4,0.2-0.6c0-0.3-0.1-0.5-0.2-0.6c-0.1-0.1-0.4-0.2-0.8-0.2
	h-1.1V107.4L270.4,107.4z M280.2,107.9h-2.5l-0.3,1.4h-2.2l2.7-8.5h2.4l2.7,8.5h-2.3L280.2,107.9z M279.8,106L279,103l-0.8,3.1
	H279.8z"/>
<path class="st4" d="M83.6,130.6c33,0,59.7,26.7,59.7,59.7s-26.7,59.7-59.7,59.7s-59.7-26.7-59.7-59.7S50.6,130.6,83.6,130.6z"/>
<g>
	<path class="st4" d="M97.3,132.5l0.3,0.3c0.6,0.6,2.5,1.5,3.9,2.6c1.3,0.9,2.6,2,3.8,3.2c7.9,8.1,11.3,20.4,7.4,31.5
		c-3.7,10.5-11.5,17.2-21.7,20c-4.2,1.2-8.5,0.6-12.8,1.4c-7.4,1.3-13.8,5.7-17.6,10.4c-4.4,5.5-7.1,11.8-6.6,21.3
		c0.8,14,13.8,26.9,29.1,26.9c17.3,0,30.8-6.6,40.5-15.3c8.5-7.6,17.7-21,19.3-36.6c2.9-27.8-11.3-51.5-34.8-62.1
		C105.7,135,99.9,132.7,97.3,132.5L97.3,132.5z"/>
	<path id="_x31__3_" class="st5" d="M97.3,132.5l0.3,0.3c0.6,0.6,2.5,1.5,3.9,2.6c1.3,0.9,2.6,2,3.8,3.2c7.9,8.1,11.3,20.4,7.4,31.5
		c-3.7,10.5-11.5,17.2-21.7,20c-4.2,1.2-8.5,0.6-12.8,1.4c-7.4,1.3-13.8,5.7-17.6,10.4c-4.4,5.5-7.1,11.8-6.6,21.3
		c0.8,14,13.8,26.9,29.1,26.9c17.3,0,30.8-6.6,40.5-15.3c8.5-7.6,17.7-21,19.3-36.6c2.9-27.8-11.3-51.5-34.8-62.1
		C105.7,135,99.9,132.7,97.3,132.5L97.3,132.5z"/>
</g>
<path class="st2" d="M51.8,160.7h-3.5l-1.2-2.6c-0.3-0.6-0.5-1-0.7-1.2c-0.2-0.1-0.4-0.2-0.7-0.2v4h-3.1v-10h3.1v3.9
	c0.3,0,0.5-0.1,0.6-0.3c0.1-0.2,0.4-0.7,0.7-1.5c0.2-0.6,0.5-1.1,0.7-1.4c0.2-0.3,0.6-0.5,1.2-0.6c0.5-0.1,1.4-0.2,2.5-0.2v2.1h-0.1
	c-0.5,0-0.9,0.1-1.2,0.3s-0.5,0.5-0.6,1c-0.2,0.5-0.3,0.8-0.5,1c-0.2,0.2-0.5,0.4-0.8,0.5c0.4,0.1,0.8,0.4,1.2,0.7
	c0.3,0.3,0.7,0.9,1.1,1.7L51.8,160.7z M52.5,155.7c0-1.6,0.5-2.9,1.4-3.8c0.9-0.9,2.2-1.4,3.8-1.4c1.7,0,3,0.5,3.9,1.4
	c0.9,0.9,1.4,2.2,1.4,3.8c0,1.2-0.2,2.1-0.6,2.9c-0.4,0.7-1,1.3-1.7,1.8c-0.7,0.4-1.7,0.6-2.8,0.6c-1.1,0-2.1-0.2-2.8-0.5
	c-0.7-0.4-1.4-0.9-1.8-1.7C52.7,157.9,52.5,156.9,52.5,155.7L52.5,155.7z M55.6,155.7c0,1,0.2,1.7,0.6,2.2c0.4,0.4,0.9,0.7,1.5,0.7
	c0.7,0,1.2-0.2,1.6-0.7s0.5-1.2,0.5-2.3c0-1-0.2-1.6-0.6-2.1c-0.4-0.4-0.9-0.7-1.6-0.7c-0.6,0-1.1,0.2-1.5,0.7
	C55.8,153.9,55.6,154.7,55.6,155.7L55.6,155.7z M71.2,156.6l2.7,0.8c-0.2,0.7-0.5,1.4-0.9,1.9s-0.9,0.9-1.5,1.2s-1.3,0.4-2.2,0.4
	c-1.1,0-2-0.2-2.7-0.5c-0.7-0.3-1.3-0.9-1.8-1.7c-0.5-0.8-0.7-1.8-0.7-3.1c0-1.7,0.4-2.9,1.3-3.8c0.9-0.9,2.1-1.3,3.7-1.3
	c1.3,0,2.2,0.3,3,0.8c0.7,0.5,1.3,1.3,1.6,2.4l-2.7,0.6c-0.1-0.3-0.2-0.5-0.3-0.7c-0.2-0.2-0.4-0.4-0.6-0.5
	c-0.3-0.1-0.5-0.2-0.8-0.2c-0.7,0-1.2,0.3-1.6,0.8c-0.3,0.4-0.4,1.1-0.4,2c0,1.1,0.2,1.9,0.5,2.3c0.3,0.4,0.8,0.6,1.4,0.6
	s1-0.2,1.4-0.5C70.9,157.8,71.1,157.3,71.2,156.6L71.2,156.6z M81.6,159.1h-3.5l-0.5,1.6h-3.2l3.8-10h3.4l3.8,10h-3.3L81.6,159.1
	L81.6,159.1z M81,156.9l-1.1-3.6l-1.1,3.6H81L81,156.9z M95.2,160.7v-10H90c-1,0-1.7,0.1-2.2,0.3c-0.5,0.2-0.9,0.5-1.2,0.9
	c-0.3,0.4-0.5,1-0.5,1.6c0,0.5,0.1,1,0.3,1.4c0.2,0.4,0.6,0.7,1,1c0.3,0.2,0.6,0.3,1.1,0.4c-0.4,0.1-0.6,0.3-0.8,0.4
	c-0.1,0.1-0.3,0.3-0.5,0.5c-0.2,0.3-0.4,0.5-0.4,0.6l-1.5,2.9h3.5l1.6-3.1c0.2-0.4,0.4-0.7,0.6-0.8c0.2-0.1,0.5-0.2,0.7-0.2h0.3v4.1
	L95.2,160.7L95.2,160.7z M92.1,154.8h-1.3c-0.1,0-0.4-0.1-0.8-0.1c-0.2,0-0.4-0.1-0.5-0.3c-0.1-0.2-0.2-0.4-0.2-0.6
	c0-0.3,0.1-0.6,0.3-0.7s0.6-0.3,1.2-0.3h1.4V154.8z M47.1,180.5h-3.1v-7.6h-3.4v7.6h-3.1v-10h9.6L47.1,180.5L47.1,180.5z
	 M49.2,170.5h8.3v2.1h-5.2v1.6h4.8v2h-4.8v2h5.4v2.3h-8.4L49.2,170.5L49.2,170.5z M68.5,180.5h-3.1v-3.7c-1,0.5-1.8,0.8-2.7,0.8
	c-1,0-1.9-0.3-2.5-0.9c-0.7-0.6-1-1.4-1-2.5v-3.7h3.1v3.1c0,0.5,0.1,0.9,0.3,1.1c0.2,0.3,0.6,0.4,1,0.4c0.8,0,1.4-0.2,1.8-0.7v-3.9
	h3.1V180.5L68.5,180.5z M76.7,178.8h-3.5l-0.5,1.6h-3.2l3.8-10h3.4l3.8,10h-3.3L76.7,178.8L76.7,178.8z M76,176.7l-1.1-3.6l-1.1,3.6
	H76L76,176.7z M80.7,170.5h9.4v2.5H87v7.5h-3.1V173h-3.2L80.7,170.5L80.7,170.5z M94.6,174.3h1.6c1.5,0,2.6,0.3,3.4,0.8
	s1.1,1.4,1.1,2.5c0,0.9-0.3,1.6-1,2.1c-0.7,0.5-1.6,0.7-2.9,0.7h-5.3v-10h3.1L94.6,174.3L94.6,174.3z M94.6,178.3h1.6
	c1,0,1.5-0.3,1.5-1.1c0-0.6-0.5-0.9-1.5-0.9h-1.6V178.3z"/>
<path d="M79.3,207.8h-3v-7.2h-3.3v7.2h-3v-9.6h9.2L79.3,207.8L79.3,207.8z M81.3,198.2h4.9c1.1,0,1.9,0.3,2.4,0.8
	c0.5,0.5,0.8,1.2,0.8,2.2c0,1-0.3,1.7-0.9,2.3c-0.6,0.5-1.5,0.8-2.7,0.8h-1.6v3.6h-3L81.3,198.2L81.3,198.2z M84.2,202.3h0.7
	c0.6,0,1-0.1,1.2-0.3c0.2-0.2,0.3-0.5,0.3-0.7s-0.1-0.5-0.3-0.8c-0.2-0.2-0.6-0.3-1.1-0.3h-0.8L84.2,202.3L84.2,202.3z M99.4,207.8
	v-9.6h-4.9c-0.9,0-1.6,0.1-2.1,0.2c-0.5,0.1-0.9,0.5-1.2,0.9c-0.3,0.4-0.4,1-0.4,1.6c0,0.5,0.1,1,0.3,1.4c0.2,0.4,0.5,0.7,0.9,1
	c0.3,0.1,0.6,0.3,1,0.4c-0.3,0.1-0.6,0.2-0.8,0.3c-0.1,0.1-0.3,0.3-0.5,0.5c-0.2,0.3-0.3,0.5-0.4,0.6l-1.4,2.8h3.3l1.6-2.9
	c0.2-0.4,0.4-0.6,0.5-0.7c0.2-0.1,0.5-0.2,0.7-0.2h0.3v3.9L99.4,207.8L99.4,207.8z M96.4,202.1h-1.2c-0.1,0-0.4,0-0.8-0.1
	c-0.2,0-0.3-0.1-0.5-0.3c-0.1-0.2-0.2-0.3-0.2-0.5c0-0.3,0.1-0.5,0.3-0.7c0.2-0.2,0.6-0.3,1.1-0.3h1.3V202.1L96.4,202.1z
	 M101.4,198.2h3.9l1.5,5.8l1.5-5.8h3.9v9.6h-2.4v-7.3l-1.9,7.3h-2.2l-1.9-7.3v7.3h-2.4V198.2z M119.9,206.2h-3.4l-0.5,1.6h-3
	l3.6-9.6h3.2l3.6,9.6h-3.1L119.9,206.2z M119.3,204.1l-1.1-3.5l-1.1,3.5H119.3L119.3,204.1z M132.9,207.8v-9.6H128
	c-0.9,0-1.6,0.1-2.1,0.2c-0.5,0.1-0.9,0.5-1.2,0.9c-0.3,0.4-0.4,1-0.4,1.6c0,0.5,0.1,1,0.3,1.4c0.2,0.4,0.5,0.7,0.9,1
	c0.3,0.1,0.6,0.3,1,0.4c-0.3,0.1-0.6,0.2-0.8,0.3c-0.1,0.1-0.3,0.3-0.5,0.5c-0.2,0.3-0.3,0.5-0.4,0.6l-1.4,2.8h3.3l1.6-2.9
	c0.2-0.4,0.4-0.6,0.5-0.7c0.2-0.1,0.5-0.2,0.7-0.2h0.3v3.9L132.9,207.8L132.9,207.8z M129.9,202.1h-1.2c-0.1,0-0.4,0-0.8-0.1
	c-0.2,0-0.3-0.1-0.5-0.3c-0.1-0.2-0.2-0.3-0.2-0.5c0-0.3,0.1-0.5,0.3-0.7c0.2-0.2,0.6-0.3,1.1-0.3h1.3V202.1L129.9,202.1z
	 M79.3,226.7h-3v-7.2h-3.3v7.2h-3v-9.6h9.2L79.3,226.7L79.3,226.7z M81.3,217.1h7.9v2h-5v1.5h4.6v2h-4.6v1.9h5.1v2.2h-8.1V217.1z
	 M99.7,226.7h-3v-3.6c-0.9,0.5-1.8,0.7-2.6,0.7c-1,0-1.8-0.3-2.4-0.9c-0.6-0.6-1-1.4-1-2.4v-3.5h3v2.9c0,0.5,0.1,0.8,0.3,1.1
	s0.5,0.4,1,0.4c0.8,0,1.3-0.2,1.7-0.7v-3.7h3V226.7L99.7,226.7z M107.6,225.1h-3.4l-0.5,1.6h-3l3.6-9.6h3.2l3.6,9.6h-3.1
	L107.6,225.1z M107,223l-1.1-3.5l-1.1,3.5H107L107,223z M111.4,217.1h9v2.4h-3v7.2h-3v-7.2h-3V217.1z M124.7,220.8h1.6
	c1.4,0,2.5,0.3,3.2,0.8c0.7,0.5,1.1,1.3,1.1,2.4c0,0.9-0.3,1.6-1,2c-0.6,0.5-1.6,0.7-2.8,0.7h-5.1v-9.6h3L124.7,220.8L124.7,220.8z
	 M124.7,224.6h1.5c0.9,0,1.4-0.3,1.4-1c0-0.6-0.5-0.9-1.4-0.9h-1.5V224.6z"/>
<path class="st4" d="M386.5,131c33,0,59.7,26.7,59.7,59.7s-26.7,59.7-59.7,59.7s-59.7-26.7-59.7-59.7S353.5,131,386.5,131z"/>
<g>
	<path class="st4" d="M400.2,132.9l0.3,0.3c0.6,0.6,2.5,1.5,3.9,2.6c1.3,0.9,2.6,2,3.8,3.2c7.9,8.1,11.3,20.4,7.4,31.5
		c-3.7,10.5-11.5,17.2-21.7,20c-4.2,1.2-8.5,0.6-12.8,1.4c-7.4,1.3-13.8,5.7-17.6,10.4c-4.4,5.5-7.1,11.8-6.6,21.3
		c0.8,14,13.8,26.9,29.1,26.9c17.3,0,30.8-6.6,40.5-15.3c8.5-7.6,17.7-21,19.3-36.6c2.9-27.8-11.3-51.5-34.8-62.1
		C408.5,135.3,402.7,133.1,400.2,132.9L400.2,132.9z"/>
	<path id="_x31__5_" class="st5" d="M400.2,132.9l0.3,0.3c0.6,0.6,2.5,1.5,3.9,2.6c1.3,0.9,2.6,2,3.8,3.2
		c7.9,8.1,11.3,20.4,7.4,31.5c-3.7,10.5-11.5,17.2-21.7,20c-4.2,1.2-8.5,0.6-12.8,1.4c-7.4,1.3-13.8,5.7-17.6,10.4
		c-4.4,5.5-7.1,11.8-6.6,21.3c0.8,14,13.8,26.9,29.1,26.9c17.3,0,30.8-6.6,40.5-15.3c8.5-7.6,17.7-21,19.3-36.6
		c2.9-27.8-11.3-51.5-34.8-62.1C408.5,135.3,402.7,133.1,400.2,132.9L400.2,132.9z"/>
</g>
<path class="st2" d="M365.8,161.6H363v-2.5h-7.3v2.5h-2.8v-5.1h1.2c0.7-1.8,1-3.9,1-6.2v-2.5h9.5v8.8h1.2L365.8,161.6L365.8,161.6z
	 M361.1,156.5v-6h-2.8v0.1c0,1.6-0.3,3.5-0.8,5.8H361.1z M366.1,147.7h3.8l1.6,4.7l1.6-4.7h3.6l-3.7,8.8c-0.3,0.7-0.6,1.2-0.8,1.6
	s-0.6,0.6-1,0.9c-0.5,0.2-1.1,0.3-1.8,0.3c-0.4,0-1.1-0.1-2.1-0.2v-2.4c0.6,0.1,1,0.1,1.3,0.1c0.8,0,1.3-0.3,1.5-0.9L366.1,147.7z
	 M377.1,147.7h3.9l2,3.5l2-3.5h3.8l-3.5,5.5l3.9,5.9h-3.9l-2.2-3.7l-2.2,3.7h-3.9l3.9-5.9L377.1,147.7L377.1,147.7z M354.1,181.5
	h-3.5v-8.6h-3.9v8.6h-3.5v-11.4h10.9V181.5z M367.3,170.1v11.4H364v-6.2l-4.3,6.2h-3.3v-11.4h3.3v6.3l4.3-6.3H367.3z M386.2,184
	h-2.8v-2.5h-13.7v-11.4h3.5v8.6h2.4v-8.6h3.5v8.6h2.4v-8.6h3.5v8.8h1.2V184z M398.6,170.1v11.4h-3.3v-6.2l-4.3,6.2h-3.3v-11.4h3.3
	v6.3l4.3-6.3H398.6z"/>
<path d="M370.7,202.3h3.7c0.8,0,1.4,0.2,1.8,0.6c0.4,0.4,0.6,1,0.6,1.6c0,0.7-0.2,1.3-0.7,1.7c-0.4,0.4-1.1,0.6-2,0.6h-1.2v2.7h-2.2
	L370.7,202.3L370.7,202.3z M372.9,205.4h0.5c0.4,0,0.7-0.1,0.9-0.2s0.3-0.3,0.3-0.6s-0.1-0.4-0.2-0.6c-0.1-0.2-0.4-0.2-0.9-0.2h-0.6
	V205.4z M382.5,208.4h-2.6l-0.3,1.2h-2.3l2.7-7.3h2.4l2.7,7.3h-2.4L382.5,208.4z M382,206.8l-0.8-2.6l-0.8,2.6H382z M385.9,202.3
	h2.2v2.5h2.4v-2.5h2.2v7.3h-2.2v-2.9h-2.4v2.9h-2.2V202.3z M394.4,202.3h6v1.6h-3.8v1.2h3.5v1.5h-3.5v1.4h3.9v1.6h-6.1V202.3z
	 M401.7,202.3h2.2v2.5h2.4v-2.5h2.2v7.3h-2.2v-2.9H404v2.9h-2.2V202.3z M417.2,202.3v7.3h-2.1v-4l-2.7,4h-2.1v-7.3h2.1v4l2.7-4
	H417.2z M418.7,202.3h6v1.6h-3.8v1.2h3.5v1.5h-3.5v1.4h3.9v1.6h-6.1V202.3z M368.1,224h-2.2v-2.7c-0.7,0.4-1.4,0.6-2,0.6
	c-0.7,0-1.4-0.2-1.8-0.7c-0.5-0.4-0.7-1-0.7-1.8v-2.7h2.2v2.2c0,0.3,0.1,0.6,0.3,0.8c0.2,0.2,0.4,0.3,0.7,0.3c0.6,0,1-0.2,1.3-0.5
	v-2.8h2.2V224z M376.6,216.7v7.3h-2.1v-4l-2.7,4h-2.1v-7.3h2.1v4l2.7-4H376.6z M378.1,216.7h2.2v2.5h2.4v-2.5h2.2v7.3h-2.2V221h-2.4
	v2.9h-2.2V216.7z M386.3,220.3c0-1.2,0.3-2.1,1-2.8c0.7-0.7,1.6-1,2.8-1c1.2,0,2.2,0.3,2.8,1c0.7,0.7,1,1.6,1,2.7
	c0,0.9-0.1,1.6-0.4,2.1c-0.3,0.5-0.7,1-1.2,1.3c-0.5,0.3-1.2,0.5-2,0.5c-0.8,0-1.5-0.1-2-0.4c-0.5-0.3-1-0.7-1.3-1.2
	C386.5,221.9,386.3,221.2,386.3,220.3L386.3,220.3z M388.6,220.3c0,0.7,0.1,1.3,0.4,1.6c0.3,0.3,0.6,0.5,1.1,0.5s0.9-0.1,1.1-0.5
	c0.3-0.3,0.4-0.9,0.4-1.7c0-0.7-0.1-1.2-0.4-1.5c-0.3-0.3-0.7-0.5-1.1-0.5s-0.8,0.2-1.1,0.5C388.7,219.1,388.6,219.6,388.6,220.3
	L388.6,220.3z M395.1,216.7h4.2c0.7,0,1.2,0.2,1.6,0.5c0.4,0.3,0.6,0.8,0.6,1.3c0,0.4-0.1,0.8-0.4,1.1c-0.2,0.2-0.4,0.4-0.8,0.5
	c0.5,0.1,0.9,0.3,1.2,0.6c0.3,0.3,0.4,0.7,0.4,1.2c0,0.4-0.1,0.7-0.3,1s-0.4,0.5-0.7,0.7c-0.2,0.1-0.5,0.2-0.9,0.2
	c-0.5,0.1-0.8,0.1-1,0.1h-3.9V216.7L395.1,216.7z M397.3,219.5h1c0.3,0,0.6-0.1,0.7-0.2c0.1-0.1,0.2-0.3,0.2-0.5
	c0-0.2-0.1-0.4-0.2-0.5c-0.1-0.1-0.4-0.2-0.7-0.2h-1V219.5L397.3,219.5z M397.3,222.4h1.2c0.4,0,0.7-0.1,0.8-0.2
	c0.2-0.1,0.2-0.3,0.2-0.5c0-0.2-0.1-0.4-0.2-0.5c-0.1-0.1-0.4-0.2-0.8-0.2h-1.2L397.3,222.4L397.3,222.4z M403,216.6h2.2v2.5h2.4
	v-2.5h2.2v7.3h-2.2V221h-2.4v2.9H403V216.6z M418.4,216.6v7.3h-2.1v-4l-2.7,4h-2.1v-7.3h2.1v4l2.7-4H418.4z M426.5,223.9H424
	l-0.9-1.9c-0.2-0.4-0.4-0.7-0.5-0.8s-0.3-0.2-0.5-0.2v2.9h-2.2v-7.3h2.2v2.8c0.2,0,0.3-0.1,0.5-0.2s0.3-0.5,0.5-1.1
	c0.2-0.5,0.3-0.8,0.5-1s0.5-0.3,0.8-0.4c0.4-0.1,1-0.1,1.8-0.1v1.5h-0.1c-0.4,0-0.7,0.1-0.9,0.2c-0.2,0.1-0.3,0.4-0.5,0.7
	c-0.1,0.3-0.3,0.6-0.4,0.7c-0.1,0.2-0.3,0.3-0.6,0.4c0.3,0.1,0.6,0.3,0.8,0.5c0.2,0.3,0.5,0.7,0.8,1.2L426.5,223.9L426.5,223.9z
	 M431.8,222.7h-2.6l-0.3,1.2h-2.3l2.7-7.3h2.4l2.7,7.3h-2.4L431.8,222.7z M431.3,221.1l-0.8-2.6l-0.8,2.6H431.3z"/>
<g>
	<path class="st4" d="M141.9,308.2c33,0,59.7,26.7,59.7,59.7s-26.7,59.7-59.7,59.7s-59.7-26.7-59.7-59.7S108.9,308.2,141.9,308.2z"
		/>
</g>
<g>
	<path class="st4" d="M155.6,310.1l0.3,0.3c0.6,0.6,2.5,1.5,3.9,2.6c1.3,0.9,2.6,2,3.8,3.2c7.9,8.1,11.3,20.4,7.4,31.5
		c-3.7,10.5-11.5,17.2-21.7,20c-4.2,1.2-8.5,0.6-12.8,1.4c-7.4,1.3-13.8,5.7-17.6,10.4c-4.4,5.5-7.1,11.8-6.6,21.3
		c0.8,14,13.8,26.9,29.1,26.9c17.3,0,30.8-6.6,40.5-15.3c8.5-7.6,17.7-21,19.3-36.6c2.9-27.8-11.3-51.5-34.8-62.1
		C164,312.5,158.2,310.3,155.6,310.1L155.6,310.1z"/>
	<path id="_x31__7_" class="st5" d="M155.6,310.1l0.3,0.3c0.6,0.6,2.5,1.5,3.9,2.6c1.3,0.9,2.6,2,3.8,3.2
		c7.9,8.1,11.3,20.4,7.4,31.5c-3.7,10.5-11.5,17.2-21.7,20c-4.2,1.2-8.5,0.6-12.8,1.4c-7.4,1.3-13.8,5.7-17.6,10.4
		c-4.4,5.5-7.1,11.8-6.6,21.3c0.8,14,13.8,26.9,29.1,26.9c17.3,0,30.8-6.6,40.5-15.3c8.5-7.6,17.7-21,19.3-36.6
		c2.9-27.8-11.3-51.5-34.8-62.1C164,312.5,158.2,310.3,155.6,310.1L155.6,310.1z"/>
</g>
<path class="st2" d="M95.4,334.3h2.4l1,2.9l1-2.9h2.2l-2.3,5.5c-0.2,0.4-0.3,0.8-0.5,1c-0.1,0.2-0.3,0.4-0.6,0.5
	c-0.3,0.1-0.7,0.2-1.2,0.2c-0.3,0-0.7,0-1.3-0.1V340c0.4,0,0.6,0.1,0.8,0.1c0.5,0,0.8-0.2,0.9-0.6L95.4,334.3L95.4,334.3z
	 M104.9,337.1h1.2c1.1,0,1.9,0.2,2.4,0.6c0.5,0.4,0.8,1,0.8,1.8c0,0.7-0.2,1.2-0.7,1.5c-0.5,0.3-1.2,0.5-2,0.5h-3.8v-7.1h6v1.4h-3.8
	V337.1z M104.9,339.9h1.1c0.7,0,1-0.3,1-0.7c0-0.4-0.3-0.7-1-0.7h-1.1V339.9z M117.3,334.3v7.1h-2.1v-3.9l-2.7,3.9h-2.1v-7.1h2.1
	v3.9l2.7-3.9H117.3L117.3,334.3z M125.6,334.3v7.1h-2.1v-3.9l-2.7,3.9h-2.1v-7.1h2.1v3.9l2.7-3.9H125.6L125.6,334.3z M124,332.6
	c-0.1,0.4-0.3,0.7-0.6,1c-0.3,0.3-0.7,0.4-1.2,0.4c-0.5,0-0.8-0.1-1.2-0.4c-0.3-0.3-0.5-0.6-0.6-1h0.8c0.1,0.4,0.4,0.6,0.9,0.6
	c0.5,0,0.8-0.2,0.9-0.6H124L124,332.6z M134.6,343h-1.8v-1.6h-5.8v-7.1h2.2v5.4h2.4v-5.4h2.2v5.5h0.8V343z M140,340.3h-2.5l-0.3,1.2
	h-2.2l2.7-7.1h2.4l2.7,7.1h-2.3L140,340.3z M139.5,338.8l-0.8-2.6l-0.8,2.6H139.5L139.5,338.8z M146.7,334.3h2.2v2.5h2.4v-2.5h2.2
	v7.1h-2.2v-2.9h-2.4v2.9h-2.2V334.3z M159.3,340.3h-2.5l-0.3,1.2h-2.2l2.7-7.1h2.4l2.7,7.1h-2.3L159.3,340.3z M158.9,338.8l-0.8-2.6
	l-0.8,2.6H158.9L158.9,338.8z M91.6,348.4h5.8v1.3c-0.5,0.5-0.9,1-1.3,1.5c-0.4,0.6-0.7,1.4-1,2.1c-0.2,0.6-0.3,1.3-0.4,2.2h-2
	c0.1-1.2,0.4-2.1,0.7-2.9c0.3-0.8,0.9-1.6,1.6-2.5h-3.5L91.6,348.4L91.6,348.4z M105.3,348.4v7.1h-2.1v-3.9l-2.7,3.9h-2.1v-7.1h2.1
	v3.9l2.7-3.9H105.3L105.3,348.4z M103.7,346.6c-0.1,0.4-0.3,0.7-0.6,1c-0.3,0.3-0.7,0.4-1.2,0.4c-0.5,0-0.8-0.1-1.2-0.4
	c-0.3-0.3-0.5-0.6-0.6-1h0.8c0.1,0.4,0.4,0.6,0.9,0.6c0.5,0,0.8-0.2,0.9-0.6H103.7L103.7,346.6z M116.9,355.5h-2.2v-5.4h-2.4v5.4
	h-2.2v-7.1h6.8L116.9,355.5L116.9,355.5z M118.1,351.9c0-1.2,0.3-2.1,1-2.7c0.7-0.7,1.6-1,2.7-1c1.2,0,2.1,0.3,2.7,1
	c0.6,0.6,1,1.5,1,2.7c0,0.8-0.1,1.5-0.4,2c-0.3,0.5-0.7,1-1.2,1.2s-1.2,0.4-2,0.4s-1.5-0.1-2-0.4c-0.5-0.3-1-0.7-1.3-1.2
	C118.3,353.5,118.1,352.8,118.1,351.9z M120.3,351.9c0,0.7,0.1,1.2,0.4,1.6c0.3,0.3,0.6,0.5,1.1,0.5s0.8-0.1,1.1-0.5
	c0.3-0.3,0.4-0.9,0.4-1.7c0-0.7-0.1-1.2-0.4-1.5c-0.3-0.3-0.6-0.5-1.1-0.5c-0.4,0-0.8,0.1-1.1,0.5
	C120.4,350.7,120.3,351.2,120.3,351.9L120.3,351.9z M131.1,351.6c0.9,0.2,1.3,0.8,1.3,1.6c0,0.7-0.3,1.3-0.8,1.7
	c-0.5,0.4-1.3,0.7-2.3,0.7c-1.7,0-2.7-0.7-3.1-2.1l2.1-0.1c0.1,0.5,0.5,0.7,1,0.7c0.3,0,0.5-0.1,0.7-0.2c0.1-0.1,0.2-0.4,0.2-0.6
	s-0.1-0.5-0.3-0.6c-0.2-0.2-0.5-0.3-0.8-0.3h-0.6v-1.3h0.5c0.3,0,0.5-0.1,0.7-0.2c0.2-0.1,0.2-0.3,0.2-0.6c0-0.4-0.2-0.6-0.7-0.6
	s-0.8,0.2-0.9,0.7l-2-0.2c0.3-1.2,1.3-1.8,2.9-1.8c0.9,0,1.6,0.2,2.1,0.5c0.5,0.3,0.7,0.8,0.7,1.4
	C132,350.8,131.7,351.3,131.1,351.6z M140.3,348.4v7.1h-2.1v-3.9l-2.7,3.9h-2.1v-7.1h2.1v3.9l2.7-3.9H140.3L140.3,348.4z M149.3,357
	h-1.8v-1.6h-5.8v-7.1h2.2v5.4h2.4v-5.4h2.2v5.5h0.8V357z M157.1,348.4v7.1h-2.1v-3.9l-2.7,3.9h-2.1v-7.1h2.1v3.9l2.7-3.9H157.1
	L157.1,348.4z M165.4,348.4v7.1h-2.1v-3.9l-2.7,3.9h-2.1v-7.1h2.1v3.9l2.7-3.9H165.4L165.4,348.4z"/>
<path d="M126,391.3h-2.2v-7.4h-2.4v7.4h-2.2v-9.8h6.7L126,391.3L126,391.3z M127.4,381.5h3.6c0.8,0,1.4,0.3,1.8,0.8
	c0.4,0.5,0.6,1.3,0.6,2.2c0,1-0.2,1.8-0.6,2.3c-0.4,0.5-1.1,0.8-1.9,0.8h-1.2v3.6h-2.2V381.5z M129.6,385.7h0.5
	c0.4,0,0.7-0.1,0.9-0.3c0.2-0.2,0.3-0.5,0.3-0.8s-0.1-0.6-0.2-0.8c-0.1-0.2-0.4-0.3-0.8-0.3h-0.6L129.6,385.7L129.6,385.7z
	 M138.8,389.7h-2.4l-0.3,1.6h-2.2l2.6-9.8h2.4l2.6,9.8h-2.2L138.8,389.7L138.8,389.7z M138.3,387.6l-0.8-3.5l-0.8,3.5H138.3
	L138.3,387.6z M142,381.6h4c0.7,0,1.2,0.2,1.6,0.7s0.5,1,0.5,1.7c0,0.6-0.1,1.1-0.4,1.5c-0.2,0.3-0.4,0.5-0.7,0.7
	c0.5,0.2,0.9,0.5,1.1,0.9c0.2,0.4,0.3,0.9,0.3,1.6c0,0.5-0.1,1-0.3,1.4c-0.2,0.4-0.4,0.7-0.7,1c-0.2,0.1-0.5,0.3-0.8,0.3
	c-0.5,0.1-0.8,0.1-1,0.1H142V381.6z M144.2,385.4h1c0.3,0,0.6-0.1,0.7-0.2c0.1-0.2,0.2-0.4,0.2-0.7s-0.1-0.5-0.2-0.7
	c-0.1-0.2-0.4-0.2-0.7-0.2h-1V385.4L144.2,385.4z M144.2,389.2h1.1c0.4,0,0.6-0.1,0.8-0.3c0.1-0.2,0.2-0.4,0.2-0.7
	c0-0.3-0.1-0.5-0.2-0.7s-0.4-0.3-0.8-0.3h-1.1V389.2z M156.3,381.6v9.8h-2V386l-2.6,5.4h-2v-9.8h2v5.4l2.6-5.4H156.3z M164.1,391.3
	h-2.2V384h-1.7v3c0,1.2-0.1,2.1-0.1,2.7c-0.1,0.6-0.3,1-0.7,1.3c-0.3,0.3-0.9,0.4-1.7,0.4c-0.2,0-0.5,0-0.8-0.1v-2h0.3
	c0.3,0,0.5-0.1,0.6-0.3s0.2-0.5,0.2-1v-6.4h6L164.1,391.3L164.1,391.3z M167.7,385.3h1.2c1.1,0,1.8,0.3,2.4,0.8
	c0.5,0.5,0.8,1.3,0.8,2.4c0,0.9-0.2,1.6-0.7,2.1c-0.5,0.5-1.1,0.7-2,0.7h-3.7v-9.8h2.2L167.7,385.3L167.7,385.3z M167.7,389.3h1.1
	c0.7,0,1-0.3,1-1c0-0.6-0.3-0.9-1-0.9h-1.1V389.3z M173,381.6h2.2v3.4h2.4v-3.4h2.2v9.8h-2.2v-3.9h-2.4v3.9H173V381.6z M185.4,389.7
	H183l-0.3,1.6h-2.2l2.6-9.8h2.4l2.6,9.8h-2.2L185.4,389.7L185.4,389.7z M185,387.6l-0.8-3.5l-0.8,3.5H185L185,387.6z M194.9,391.4
	v-9.8h-3.6c-0.7,0-1.2,0.1-1.5,0.2c-0.3,0.2-0.6,0.5-0.9,0.9c-0.2,0.4-0.3,1-0.3,1.6c0,0.5,0.1,1,0.3,1.4c0.2,0.4,0.4,0.7,0.7,1
	c0.2,0.1,0.4,0.3,0.7,0.4c-0.3,0.1-0.4,0.2-0.5,0.4c-0.1,0.1-0.2,0.3-0.3,0.5c-0.1,0.3-0.3,0.5-0.3,0.6l-1,2.8h2.4l1.2-3
	c0.1-0.4,0.3-0.6,0.4-0.7c0.1-0.1,0.3-0.2,0.5-0.2h0.2v4H194.9L194.9,391.4z M192.7,385.5h-0.9c-0.1,0-0.3,0-0.6-0.1
	c-0.1,0-0.3-0.1-0.3-0.3s-0.1-0.3-0.1-0.6c0-0.3,0.1-0.5,0.2-0.7s0.4-0.3,0.8-0.3h1L192.7,385.5L192.7,385.5z M135.3,400.8h4
	c0.7,0,1.2,0.2,1.6,0.7s0.5,1,0.5,1.7c0,0.6-0.1,1.1-0.4,1.5c-0.2,0.3-0.4,0.5-0.7,0.7c0.5,0.2,0.9,0.5,1.1,0.9s0.3,0.9,0.3,1.6
	c0,0.5-0.1,1-0.3,1.4s-0.4,0.7-0.7,1c-0.2,0.1-0.5,0.3-0.8,0.3c-0.5,0.1-0.8,0.1-1,0.1h-3.7V400.8z M137.4,404.7h1
	c0.3,0,0.6-0.1,0.7-0.2c0.1-0.2,0.2-0.4,0.2-0.7s-0.1-0.5-0.2-0.7c-0.1-0.2-0.4-0.2-0.7-0.2h-1V404.7L137.4,404.7z M137.4,408.5h1.1
	c0.4,0,0.6-0.1,0.8-0.3c0.1-0.2,0.2-0.4,0.2-0.7c0-0.3-0.1-0.5-0.2-0.7s-0.4-0.3-0.8-0.3h-1.1V408.5z M149.2,410.6h-2.2v-7.4h-1.7v3
	c0,1.2-0.1,2.1-0.1,2.7c-0.1,0.6-0.3,1-0.7,1.3c-0.3,0.3-0.9,0.4-1.7,0.4c-0.2,0-0.5,0-0.8-0.1v-2h0.3c0.3,0,0.5-0.1,0.6-0.3
	c0.1-0.2,0.2-0.5,0.2-1v-6.4h6L149.2,410.6L149.2,410.6z M154.9,409h-2.4l-0.3,1.6H150l2.6-9.8h2.4l2.6,9.8h-2.2L154.9,409
	L154.9,409z M154.5,406.9l-0.8-3.5l-0.8,3.5H154.5L154.5,406.9z M162.9,406.6l1.9,0.8c-0.1,0.7-0.3,1.4-0.6,1.9
	c-0.3,0.5-0.6,0.9-1,1.1c-0.4,0.3-0.9,0.4-1.6,0.4c-0.7,0-1.4-0.1-1.8-0.5c-0.5-0.3-0.9-0.9-1.2-1.6c-0.3-0.8-0.5-1.8-0.5-3
	c0-1.6,0.3-2.9,0.9-3.7c0.6-0.9,1.5-1.3,2.6-1.3c0.9,0,1.6,0.3,2.1,0.7c0.5,0.5,0.9,1.3,1.1,2.3l-1.9,0.6c-0.1-0.3-0.1-0.5-0.2-0.7
	c-0.1-0.2-0.3-0.4-0.4-0.5s-0.4-0.2-0.6-0.2c-0.5,0-0.9,0.3-1.1,0.8c-0.2,0.4-0.3,1-0.3,1.9c0,1.1,0.1,1.8,0.3,2.2s0.6,0.6,1,0.6
	c0.4,0,0.7-0.2,0.9-0.5C162.6,407.8,162.8,407.3,162.9,406.6L162.9,406.6z M165.3,400.8h6.5v2.4h-2.2v7.3h-2.2v-7.3h-2.2V400.8z
	 M175,404.6h1.2c1.1,0,1.8,0.3,2.4,0.8c0.5,0.5,0.8,1.3,0.8,2.4c0,0.9-0.2,1.6-0.7,2.1c-0.5,0.5-1.1,0.7-2,0.7h-3.7v-9.8h2.2
	L175,404.6L175,404.6z M175,408.5h1.1c0.7,0,1-0.3,1-1c0-0.6-0.3-0.9-1-0.9H175V408.5z"/>
<g>
	<path class="st4" d="M332,308c33,0,59.7,26.7,59.7,59.7S365,427.5,332,427.5s-59.7-26.7-59.7-59.7S299,308,332,308z"/>
</g>
<g>
	<path class="st4" d="M345.7,309.9l0.3,0.3c0.6,0.6,2.5,1.5,3.9,2.6c1.3,0.9,2.6,2,3.8,3.2c7.9,8.1,11.3,20.4,7.4,31.5
		c-3.7,10.5-11.5,17.2-21.7,20c-4.2,1.2-8.5,0.6-12.8,1.4c-7.4,1.3-13.8,5.7-17.6,10.4c-4.4,5.5-7.1,11.8-6.6,21.3
		c0.8,14,13.8,26.9,29.1,26.9c17.3,0,30.8-6.6,40.5-15.3c8.5-7.6,17.7-21,19.3-36.6c2.9-27.8-11.3-51.5-34.8-62.1
		C354.1,312.3,348.3,310.1,345.7,309.9L345.7,309.9z"/>
	<path id="_x31__9_" class="st5" d="M345.7,309.9l0.3,0.3c0.6,0.6,2.5,1.5,3.9,2.6c1.3,0.9,2.6,2,3.8,3.2
		c7.9,8.1,11.3,20.4,7.4,31.5c-3.7,10.5-11.5,17.2-21.7,20c-4.2,1.2-8.5,0.6-12.8,1.4c-7.4,1.3-13.8,5.7-17.6,10.4
		c-4.4,5.5-7.1,11.8-6.6,21.3c0.8,14,13.8,26.9,29.1,26.9c17.3,0,30.8-6.6,40.5-15.3c8.5-7.6,17.7-21,19.3-36.6
		c2.9-27.8-11.3-51.5-34.8-62.1C354.1,312.3,348.3,310.1,345.7,309.9L345.7,309.9z"/>
</g>
<path class="st2" d="M290.7,335.8l1.8,0.6c-0.1,0.6-0.3,1.1-0.6,1.5c-0.3,0.4-0.6,0.7-1,0.9c-0.4,0.2-0.9,0.3-1.5,0.3
	c-0.7,0-1.3-0.1-1.8-0.4s-0.8-0.7-1.2-1.3c-0.3-0.6-0.5-1.4-0.5-2.4c0-1.3,0.3-2.3,0.9-3c0.6-0.7,1.4-1,2.5-1c0.8,0,1.5,0.2,2,0.6
	c0.5,0.4,0.8,1,1.1,1.8l-1.8,0.5c-0.1-0.2-0.1-0.4-0.2-0.5c-0.1-0.2-0.3-0.3-0.4-0.4c-0.2-0.1-0.3-0.1-0.5-0.1
	c-0.5,0-0.8,0.2-1.1,0.7c-0.2,0.3-0.3,0.8-0.3,1.5c0,0.9,0.1,1.4,0.3,1.8c0.2,0.3,0.5,0.5,1,0.5s0.7-0.1,0.9-0.4
	C290.4,336.6,290.6,336.2,290.7,335.8L290.7,335.8z M299.4,339h-2.3l-0.8-2c-0.2-0.5-0.3-0.8-0.4-0.9c-0.1-0.1-0.3-0.2-0.4-0.2v3.1
	h-2v-7.7h2v3c0.2,0,0.3-0.1,0.4-0.2c0.1-0.1,0.3-0.5,0.5-1.2c0.1-0.5,0.3-0.8,0.5-1c0.1-0.2,0.4-0.4,0.7-0.5
	c0.3-0.1,0.9-0.1,1.6-0.1v1.6h-0.1c-0.3,0-0.6,0.1-0.8,0.2c-0.2,0.1-0.3,0.4-0.4,0.7c-0.1,0.3-0.2,0.6-0.3,0.8s-0.3,0.3-0.5,0.4
	c0.3,0.1,0.5,0.3,0.8,0.6c0.2,0.3,0.5,0.7,0.7,1.3L299.4,339L299.4,339z M306.2,339h-2v-5.8h-1.6v2.4c0,1,0,1.7-0.1,2.2
	c-0.1,0.5-0.3,0.8-0.6,1c-0.3,0.2-0.9,0.3-1.6,0.3c-0.2,0-0.5,0-0.8-0.1v-1.6h0.3c0.3,0,0.5-0.1,0.6-0.2c0.1-0.1,0.2-0.4,0.2-0.8
	v-5.1h5.7L306.2,339L306.2,339z M307.3,335.1c0-1.3,0.3-2.2,0.9-2.9c0.6-0.7,1.4-1.1,2.5-1.1c1.1,0,2,0.3,2.5,1
	c0.6,0.7,0.9,1.7,0.9,2.9c0,0.9-0.1,1.6-0.4,2.2c-0.3,0.6-0.6,1-1.1,1.4c-0.5,0.3-1.1,0.5-1.8,0.5s-1.4-0.1-1.8-0.4
	c-0.5-0.3-0.9-0.7-1.2-1.3C307.5,336.8,307.3,336,307.3,335.1L307.3,335.1z M309.4,335.1c0,0.8,0.1,1.4,0.4,1.7
	c0.3,0.3,0.6,0.5,1,0.5c0.4,0,0.8-0.2,1-0.5c0.2-0.3,0.4-0.9,0.4-1.8c0-0.7-0.1-1.3-0.4-1.6c-0.3-0.3-0.6-0.5-1-0.5
	c-0.4,0-0.7,0.2-1,0.5C309.5,333.8,309.4,334.3,309.4,335.1L309.4,335.1z M315.3,331.2h2v2.7h2.2v-2.7h2v7.7h-2v-3.1h-2.2v3.1h-2
	V331.2z M323,331.2h2v2.7h2.2v-2.7h2v7.7h-2v-3.1H325v3.1h-2V331.2z M330.4,335.1c0-1.3,0.3-2.2,0.9-2.9c0.6-0.7,1.4-1.1,2.5-1.1
	c1.1,0,2,0.3,2.5,1c0.6,0.7,0.9,1.7,0.9,2.9c0,0.9-0.1,1.6-0.4,2.2c-0.3,0.6-0.6,1-1.1,1.4c-0.5,0.3-1.1,0.5-1.8,0.5
	s-1.4-0.1-1.8-0.4c-0.5-0.3-0.9-0.7-1.2-1.3C330.5,336.8,330.4,336,330.4,335.1L330.4,335.1z M332.4,335.1c0,0.8,0.1,1.4,0.4,1.7
	c0.3,0.3,0.6,0.5,1,0.5c0.4,0,0.8-0.2,1-0.5c0.2-0.3,0.4-0.9,0.4-1.8c0-0.7-0.1-1.3-0.4-1.6c-0.3-0.3-0.6-0.5-1-0.5s-0.7,0.2-1,0.5
	C332.6,333.8,332.5,334.3,332.4,335.1L332.4,335.1z M342.8,335.8l1.8,0.6c-0.1,0.6-0.3,1.1-0.6,1.5c-0.3,0.4-0.6,0.7-1,0.9
	c-0.4,0.2-0.9,0.3-1.5,0.3c-0.7,0-1.3-0.1-1.8-0.4c-0.5-0.3-0.8-0.7-1.2-1.3c-0.3-0.6-0.5-1.4-0.5-2.4c0-1.3,0.3-2.3,0.9-3
	c0.6-0.7,1.4-1,2.5-1c0.8,0,1.5,0.2,2,0.6c0.5,0.4,0.8,1,1.1,1.8l-1.8,0.5c-0.1-0.2-0.1-0.4-0.2-0.5c-0.1-0.2-0.3-0.3-0.4-0.4
	c-0.2-0.1-0.3-0.1-0.5-0.1c-0.5,0-0.8,0.2-1.1,0.7c-0.2,0.3-0.3,0.8-0.3,1.5c0,0.9,0.1,1.4,0.3,1.8c0.2,0.3,0.5,0.5,1,0.5
	c0.4,0,0.7-0.1,0.9-0.4C342.5,336.6,342.7,336.2,342.8,335.8L342.8,335.8z M345.1,331.2h6.2v1.9h-2.1v5.8h-2v-5.8h-2.1L345.1,331.2
	L345.1,331.2z M354.2,334.2h1.1c1,0,1.7,0.2,2.2,0.6c0.5,0.4,0.7,1.1,0.7,1.9c0,0.7-0.2,1.3-0.7,1.6c-0.4,0.4-1.1,0.6-1.9,0.6h-3.5
	v-7.7h2V334.2L354.2,334.2z M354.2,337.3h1c0.6,0,1-0.3,1-0.8c0-0.5-0.3-0.7-1-0.7h-1V337.3z M292.9,354.2h-2.3l-0.8-2
	c-0.2-0.5-0.3-0.8-0.4-0.9c-0.1-0.1-0.3-0.2-0.4-0.2v3.1h-2v-7.7h2v3c0.2,0,0.3-0.1,0.4-0.2c0.1-0.1,0.3-0.5,0.5-1.2
	c0.1-0.5,0.3-0.8,0.5-1c0.1-0.2,0.4-0.4,0.7-0.5c0.3-0.1,0.9-0.1,1.6-0.1v1.6h-0.1c-0.3,0-0.6,0.1-0.8,0.2c-0.2,0.1-0.3,0.4-0.4,0.7
	c-0.1,0.3-0.2,0.6-0.3,0.8s-0.3,0.3-0.5,0.4c0.3,0.1,0.5,0.3,0.8,0.6c0.2,0.3,0.5,0.7,0.7,1.3L292.9,354.2L292.9,354.2z
	 M298.7,349.4h1.1c1,0,1.7,0.2,2.2,0.6c0.5,0.4,0.7,1.1,0.7,1.9c0,0.7-0.2,1.3-0.7,1.6c-0.4,0.4-1.1,0.6-1.9,0.6h-3.5v-7.7h5.6v1.6
	h-3.5V349.4z M298.7,352.5h1c0.6,0,1-0.3,1-0.8c0-0.5-0.3-0.7-1-0.7h-1V352.5z M303.6,350.3c0-1.3,0.3-2.2,0.9-2.9
	c0.6-0.7,1.4-1.1,2.5-1.1c1.1,0,2,0.3,2.5,1c0.6,0.7,0.9,1.7,0.9,2.9c0,0.9-0.1,1.6-0.4,2.2c-0.3,0.6-0.6,1-1.1,1.4
	c-0.5,0.3-1.1,0.5-1.8,0.5s-1.4-0.1-1.8-0.4c-0.5-0.3-0.9-0.7-1.2-1.3C303.7,352,303.5,351.2,303.6,350.3L303.6,350.3z M305.6,350.3
	c0,0.8,0.1,1.4,0.4,1.7c0.3,0.3,0.6,0.5,1,0.5c0.4,0,0.8-0.2,1-0.5c0.2-0.3,0.4-0.9,0.4-1.8c0-0.7-0.1-1.3-0.4-1.6
	c-0.3-0.3-0.6-0.5-1-0.5c-0.4,0-0.7,0.2-1,0.5C305.8,349,305.6,349.5,305.6,350.3L305.6,350.3z M316.8,348.3h-3.2v5.8h-2v-7.7h5.2
	V348.3z M321.7,352.9h-2.3l-0.3,1.3H317l2.5-7.7h2.2l2.5,7.7H322L321.7,352.9z M321.3,351.2l-0.7-2.8l-0.7,2.8H321.3L321.3,351.2z
	 M324.4,346.4h6.2v1.9h-2.1v5.8h-2v-5.8h-2.1L324.4,346.4L324.4,346.4z M335.9,351l1.8,0.6c-0.1,0.6-0.3,1.1-0.6,1.5s-0.6,0.7-1,0.9
	c-0.4,0.2-0.9,0.3-1.5,0.3c-0.7,0-1.3-0.1-1.8-0.4c-0.5-0.3-0.8-0.7-1.2-1.3c-0.3-0.6-0.5-1.4-0.5-2.4c0-1.3,0.3-2.3,0.9-3
	c0.6-0.7,1.4-1,2.5-1c0.8,0,1.5,0.2,2,0.6c0.5,0.4,0.8,1,1.1,1.8l-1.8,0.5c-0.1-0.2-0.1-0.4-0.2-0.5c-0.1-0.2-0.3-0.3-0.4-0.4
	c-0.2-0.1-0.3-0.1-0.5-0.1c-0.5,0-0.8,0.2-1.1,0.7c-0.2,0.3-0.3,0.8-0.3,1.5c0,0.9,0.1,1.4,0.3,1.8s0.5,0.5,1,0.5s0.7-0.1,0.9-0.4
	C335.7,351.9,335.8,351.5,335.9,351L335.9,351z M338.2,346.4h6.2v1.9h-2.1v5.8h-2v-5.8h-2.1L338.2,346.4L338.2,346.4z M345.3,346.4
	h3.8c0.6,0,1.1,0.2,1.5,0.5c0.3,0.4,0.5,0.8,0.5,1.4c0,0.5-0.1,0.9-0.4,1.2c-0.2,0.2-0.4,0.4-0.7,0.5c0.5,0.1,0.8,0.4,1,0.7
	c0.2,0.3,0.3,0.7,0.3,1.2c0,0.4-0.1,0.7-0.2,1.1c-0.2,0.3-0.4,0.6-0.7,0.7c-0.2,0.1-0.4,0.2-0.8,0.3c-0.5,0.1-0.8,0.1-0.9,0.1h-3.5
	V346.4L345.3,346.4z M347.4,349.5h0.9c0.3,0,0.5-0.1,0.7-0.2c0.1-0.1,0.2-0.3,0.2-0.5s-0.1-0.4-0.2-0.5s-0.3-0.2-0.7-0.2h-0.9V349.5
	z M347.4,352.5h1c0.3,0,0.6-0.1,0.7-0.2c0.1-0.1,0.2-0.3,0.2-0.6s-0.1-0.4-0.2-0.5c-0.1-0.1-0.4-0.2-0.7-0.2h-1L347.4,352.5
	L347.4,352.5z M351.9,346.4h2.2l0.9,3.2l0.9-3.2h2.1l-2.2,6c-0.2,0.5-0.3,0.8-0.5,1.1c-0.1,0.2-0.3,0.4-0.6,0.6
	c-0.3,0.1-0.6,0.2-1.1,0.2c-0.2,0-0.7,0-1.2-0.1v-1.6c0.3,0,0.6,0.1,0.7,0.1c0.5,0,0.7-0.2,0.9-0.6L351.9,346.4L351.9,346.4z"/>
<path d="M315.2,383.4l1.9,0.6c-0.1,0.5-0.3,1-0.6,1.4c-0.3,0.4-0.6,0.6-1,0.8c-0.4,0.2-1,0.3-1.6,0.3c-0.8,0-1.4-0.1-1.9-0.3
	c-0.5-0.2-0.9-0.6-1.3-1.2c-0.3-0.6-0.5-1.3-0.5-2.2c0-1.2,0.3-2.1,1-2.7s1.5-1,2.6-1c0.9,0,1.6,0.2,2.1,0.5
	c0.5,0.4,0.9,0.9,1.2,1.7l-1.9,0.4c-0.1-0.2-0.1-0.4-0.2-0.5c-0.1-0.2-0.3-0.3-0.5-0.4c-0.2-0.1-0.4-0.1-0.6-0.1
	c-0.5,0-0.9,0.2-1.2,0.6c-0.2,0.3-0.3,0.8-0.3,1.4c0,0.8,0.1,1.3,0.3,1.6s0.6,0.4,1,0.4c0.4,0,0.7-0.1,1-0.3
	C314.9,384.2,315.1,383.9,315.2,383.4z M317.7,379.2h6.7v1.8h-2.2v5.4h-2.2V381h-2.2V379.2z M329.7,385.2h-2.5l-0.3,1.2h-2.2
	l2.7-7.1h2.4l2.7,7.1h-2.3L329.7,385.2z M329.2,383.6l-0.8-2.6l-0.8,2.6H329.2z M335.3,382h1.2c1.1,0,1.9,0.2,2.4,0.6
	c0.5,0.4,0.8,1,0.8,1.8c0,0.7-0.2,1.2-0.7,1.5c-0.5,0.3-1.2,0.5-2,0.5h-3.8v-7.1h6v1.4h-3.8V382L335.3,382z M335.3,384.8h1.1
	c0.7,0,1-0.3,1-0.7c0-0.4-0.3-0.7-1-0.7h-1.1V384.8z M347.6,379.2v7.1h-2.1v-3.9l-2.6,3.9h-2.1v-7.1h2.1v3.9l2.7-3.9H347.6z
	 M355.6,386.3h-2.2V381h-1.7v2.2c0,0.9-0.1,1.6-0.1,2c-0.1,0.4-0.3,0.7-0.7,0.9s-0.9,0.3-1.7,0.3c-0.2,0-0.5,0-0.8-0.1v-1.4h0.3
	c0.3,0,0.5-0.1,0.6-0.2c0.1-0.1,0.2-0.4,0.2-0.7v-4.7h6.1L355.6,386.3L355.6,386.3z M359.3,382h1.2c1.1,0,1.9,0.2,2.4,0.6
	c0.5,0.4,0.8,1,0.8,1.8c0,0.7-0.2,1.2-0.7,1.5c-0.5,0.3-1.2,0.5-2,0.5h-3.8v-7.1h2.2V382L359.3,382z M359.3,384.8h1.1
	c0.7,0,1-0.3,1-0.7c0-0.4-0.3-0.7-1-0.7h-1.1V384.8z M364.7,379.2h2.2v2.5h2.4v-2.5h2.2v7.1h-2.2v-2.9h-2.4v2.9h-2.2V379.2z
	 M372.7,382.8c0-1.2,0.3-2.1,1-2.7c0.6-0.6,1.6-1,2.7-1c1.2,0,2.1,0.3,2.7,1c0.6,0.6,1,1.5,1,2.7c0,0.8-0.1,1.5-0.4,2
	c-0.3,0.5-0.7,1-1.2,1.2c-0.5,0.3-1.2,0.4-2,0.4c-0.8,0-1.5-0.1-2-0.4c-0.5-0.3-1-0.7-1.3-1.2C372.9,384.3,372.7,383.6,372.7,382.8z
	 M374.9,382.8c0,0.7,0.1,1.2,0.4,1.6c0.3,0.3,0.6,0.5,1.1,0.5c0.5,0,0.8-0.1,1.1-0.5c0.3-0.3,0.4-0.9,0.4-1.6c0-0.7-0.1-1.2-0.4-1.5
	c-0.3-0.3-0.6-0.5-1.1-0.5c-0.4,0-0.8,0.1-1.1,0.5C375.1,381.5,374.9,382.1,374.9,382.8z M381.2,379.2h5.9v1.5h-3.7v1.1h3.4v1.4
	h-3.4v1.4h3.8v1.6h-6V379.2z M317.5,395.9h1.2c1.1,0,1.9,0.2,2.4,0.6s0.8,1,0.8,1.8c0,0.7-0.2,1.2-0.7,1.5s-1.2,0.5-2,0.5h-3.8v-7.1
	h6v1.4h-3.8V395.9L317.5,395.9z M317.5,398.8h1.1c0.7,0,1-0.3,1-0.7c0-0.4-0.3-0.7-1-0.7h-1.1V398.8z M322.7,396.8
	c0-1.2,0.3-2.1,1-2.7c0.6-0.6,1.6-1,2.7-1c1.2,0,2.1,0.3,2.7,1c0.6,0.6,1,1.5,1,2.7c0,0.8-0.1,1.5-0.4,2c-0.3,0.5-0.7,1-1.2,1.2
	s-1.2,0.4-2,0.4s-1.5-0.1-2-0.4c-0.5-0.3-1-0.7-1.3-1.2C322.9,398.3,322.7,397.6,322.7,396.8z M324.9,396.8c0,0.7,0.1,1.2,0.4,1.6
	c0.3,0.3,0.6,0.5,1.1,0.5s0.8-0.1,1.1-0.5c0.3-0.3,0.4-0.9,0.4-1.6c0-0.7-0.1-1.2-0.4-1.5c-0.3-0.3-0.6-0.5-1.1-0.5
	c-0.4,0-0.8,0.1-1.1,0.5C325,395.5,324.9,396,324.9,396.8z M336.9,395h-3.4v5.4h-2.2v-7.1h5.6V395z M342.2,399.1h-2.5l-0.3,1.2h-2.2
	l2.7-7.1h2.4l2.7,7.1h-2.3L342.2,399.1z M341.8,397.6L341,395l-0.8,2.6H341.8z M345.1,393.2h6.7v1.8h-2.2v5.4h-2.2V395h-2.2V393.2z
	 M357.5,397.4l1.9,0.6c-0.1,0.5-0.3,1-0.6,1.4c-0.3,0.4-0.6,0.6-1,0.8s-1,0.3-1.6,0.3c-0.8,0-1.4-0.1-1.9-0.3
	c-0.5-0.2-0.9-0.6-1.3-1.2c-0.3-0.6-0.5-1.3-0.5-2.2c0-1.2,0.3-2.1,1-2.7c0.6-0.6,1.5-1,2.6-1c0.9,0,1.6,0.2,2.1,0.5
	s0.9,0.9,1.2,1.7l-1.9,0.4c-0.1-0.2-0.1-0.4-0.2-0.5c-0.1-0.2-0.3-0.3-0.5-0.4c-0.2-0.1-0.4-0.1-0.6-0.1c-0.5,0-0.9,0.2-1.2,0.6
	c-0.2,0.3-0.3,0.8-0.3,1.4c0,0.8,0.1,1.3,0.3,1.6s0.6,0.4,1,0.4s0.7-0.1,1-0.3S357.4,397.9,357.5,397.4z M360,393.2h6.7v1.8h-2.2
	v5.4h-2.2V395H360V393.2z M367.6,393.2h4.1c0.7,0,1.2,0.2,1.6,0.5c0.4,0.3,0.5,0.7,0.5,1.3c0,0.4-0.1,0.8-0.4,1.1
	c-0.2,0.2-0.4,0.3-0.8,0.5c0.5,0.1,0.9,0.3,1.1,0.6s0.4,0.7,0.4,1.1c0,0.4-0.1,0.7-0.3,1c-0.2,0.3-0.4,0.5-0.7,0.7
	c-0.2,0.1-0.5,0.2-0.8,0.2c-0.5,0.1-0.8,0.1-1,0.1h-3.8V393.2z M369.8,396h1c0.3,0,0.6-0.1,0.7-0.2c0.1-0.1,0.2-0.3,0.2-0.5
	c0-0.2-0.1-0.4-0.2-0.5c-0.1-0.1-0.4-0.2-0.7-0.2h-1V396z M369.8,398.8h1.1c0.4,0,0.6-0.1,0.8-0.2c0.1-0.1,0.2-0.3,0.2-0.5
	c0-0.2-0.1-0.4-0.2-0.5c-0.1-0.1-0.4-0.2-0.8-0.2h-1.1V398.8L369.8,398.8z M375.1,396.8c0-1.2,0.3-2.1,1-2.7c0.6-0.6,1.6-1,2.7-1
	c1.2,0,2.1,0.3,2.7,1s1,1.5,1,2.7c0,0.8-0.1,1.5-0.4,2c-0.3,0.5-0.7,1-1.2,1.2s-1.2,0.4-2,0.4c-0.8,0-1.5-0.1-2-0.4
	c-0.5-0.3-1-0.7-1.3-1.2C375.2,398.3,375.1,397.6,375.1,396.8z M377.2,396.8c0,0.7,0.1,1.2,0.4,1.6c0.3,0.3,0.6,0.5,1.1,0.5
	s0.8-0.1,1.1-0.5c0.3-0.3,0.4-0.9,0.4-1.6c0-0.7-0.1-1.2-0.4-1.5c-0.3-0.3-0.6-0.5-1.1-0.5c-0.4,0-0.8,0.1-1.1,0.5
	C377.4,395.5,377.2,396,377.2,396.8z"/>
</svg>
