<?xml version="1.0" encoding="UTF-8"?>
<!DOCTYPE svg PUBLIC "-//W3C//DTD SVG 1.1//EN" "http://www.w3.org/Graphics/SVG/1.1/DTD/svg11.dtd">
<!-- Creator: CorelDRAW X5 -->
<svg xmlns="http://www.w3.org/2000/svg" xml:space="preserve" width="172.043mm" height="168.822mm" style="shape-rendering:geometricPrecision; text-rendering:geometricPrecision; image-rendering:optimizeQuality; fill-rule:evenodd; clip-rule:evenodd"
viewBox="0 0 17065 16746"
 xmlns:xlink="http://www.w3.org/1999/xlink">
 <defs>
  <style type="text/css">
   <![CDATA[
    .fil0 {fill:#2E313C}
   ]]>
  </style>
 </defs>
 <g id="Слой_x0020_1">
  <metadata id="CorelCorpID_0Corel-Layer"/>
  <path class="fil0" d="M12350 4780l337 379c28,27 35,24 38,61 -1379,-8 -2876,-4 -4254,7l-1040 7c-20,76 -26,111 -50,217 568,25 1420,11 2014,12l3332 8c-21,68 -319,349 -371,444 21,41 121,123 173,160 31,-26 617,-671 646,-733 -18,-32 -607,-695 -646,-726 -47,24 -154,114 -178,165z"/>
  <path class="fil0" d="M12271 10898c-122,-16 -474,-216 -554,-205 -15,25 -76,177 -77,214 20,17 827,367 900,365 38,-44 89,-152 121,-209 43,-79 80,-137 118,-210 49,-93 218,-360 229,-425 -25,-25 -174,-108 -199,-116 -39,32 -250,415 -285,495 -29,-26 -28,-28 -41,-65l-77 -235c-35,-107 -66,-217 -103,-320 -74,-208 -143,-444 -207,-636l-616 -1886c-37,-111 -69,-215 -104,-317 -18,-52 -34,-98 -54,-153 -19,-53 -33,-111 -50,-160l-208 -636c-20,-54 -37,-98 -54,-155 -9,-32 -19,-54 -27,-79 -8,-25 -15,-55 -24,-80 -22,-65 -33,-95 -53,-158 -21,-66 -24,-100 -61,-147l-206 -1c2,95 23,86 43,161 37,143 200,642 253,801 34,100 71,221 102,319l823 2554c97,299 281,830 360,1113 18,66 44,113 52,173z"/>
  <path class="fil0" d="M3737 7306l97 967c48,9 198,-6 237,-20 18,-96 -43,-437 -45,-574 61,23 204,143 270,189 83,59 187,135 265,190l2925 2114c180,132 487,356 671,477l138 99c110,-66 75,-43 180,-111 -27,-85 -2718,-2004 -3223,-2382l-812 -591c-88,-67 -172,-117 -268,-195 49,-46 528,-113 557,-146 26,-29 -35,-226 -39,-236 -33,-1 -918,201 -953,218z"/>
  <path class="fil0" d="M6854 3290l92 219c86,-7 420,-186 543,-223 0,50 -559,1753 -603,1886 -89,270 -212,686 -304,934 -59,159 -121,422 -200,631 -87,231 -231,773 -302,950 -20,51 -26,97 -47,152 -40,104 -40,156 -61,196 -9,18 -14,24 -19,39 -9,25 -15,66 -21,86 -48,161 -87,151 36,226 19,12 44,33 65,38 48,12 57,-51 88,-149 106,-326 259,-808 367,-1106 81,-221 130,-417 208,-633l208 -636c67,-210 140,-419 207,-629l517 -1592c29,-88 72,-251 106,-309 61,49 239,433 304,489 64,-11 145,-80 200,-106 -8,-74 -404,-710 -488,-844 -114,19 -739,314 -897,381z"/>
  <path class="fil0" d="M6983 12091c0,-141 60,-475 37,-576l-226 -19c-31,62 -42,380 -57,482 -10,73 -14,174 -21,253 -4,47 -5,82 -12,125 -3,19 -9,41 -9,60 0,29 1,43 13,55 27,18 900,206 943,200 20,-37 19,-66 29,-110 43,-201 25,-98 -496,-238l-20 -6c-3,-1 -7,-3 -10,-4 -3,-1 -7,-2 -10,-4 21,-50 191,-153 245,-193l3976 -2911c12,-8 19,-10 32,-19 1,-24 -47,-185 -64,-219 -28,8 -515,364 -676,479l-2038 1469c-183,134 -1579,1159 -1639,1174z"/>
  <path class="fil0" d="M4549 219l16 10 437 195c37,16 39,18 58,46 -202,85 -717,394 -919,542 -488,358 -940,705 -1343,1160 11,41 82,126 109,160l510 -454c355,-300 714,-592 1119,-834 100,-60 530,-326 642,-350 -7,104 -144,433 -157,554 39,32 160,71 228,73 38,-141 95,-310 140,-452 25,-80 137,-427 140,-482 -118,-48 -848,-385 -894,-388 -25,53 -82,162 -87,219z"/>
  <path class="fil0" d="M16002 11635c-45,-65 -144,-455 -199,-532 -57,2 -188,46 -221,73 41,123 281,871 315,915 62,5 911,-179 949,-202 0,-68 -24,-179 -49,-225 -81,-3 -210,38 -292,53 -91,17 -194,47 -280,56 10,-46 116,-242 143,-301 120,-258 300,-692 381,-962l105 -343c88,-308 216,-841 212,-1141 -334,43 -163,13 -313,598 -59,229 -128,512 -199,724 -86,253 -154,422 -247,664 -32,84 -259,589 -303,623z"/>
  <path class="fil0" d="M6971 15895c12,66 79,163 115,222 468,769 250,672 568,533 -4,-58 -101,-211 -133,-266 -35,-59 -133,-213 -138,-273 605,97 1565,171 2221,84 195,-26 399,-58 592,-79 -3,-40 -86,-173 -112,-212 -211,16 -427,52 -642,65 -419,26 -950,42 -1365,-13 -120,-16 -553,-51 -631,-91 69,-77 412,-282 444,-351l-128 -183c-66,27 -147,97 -202,138 -93,69 -525,391 -590,425z"/>
  <path class="fil0" d="M12355 608c56,17 119,54 163,78 27,15 42,27 73,44 29,16 55,25 80,38l149 86c35,20 32,25 68,48 27,17 50,29 73,44l144 90c135,97 290,191 414,288 97,76 168,123 266,201 150,120 362,293 506,430 27,25 216,191 232,243l-571 21c-15,49 -20,195 10,229 23,24 414,5 474,4l495 -18c20,-67 90,-896 85,-974 -50,-19 -173,-29 -236,-19 -17,105 -40,526 -63,576 -19,-8 -211,-198 -251,-236 -89,-83 -172,-151 -263,-228 -364,-303 -739,-575 -1154,-810 -86,-49 -594,-338 -644,-348l-47 213z"/>
  <path class="fil0" d="M0 9387c26,45 35,35 86,82 32,29 52,58 95,71 75,-61 339,-408 386,-435 2,3 3,4 4,8l7 18 24 138c7,51 21,126 33,175 28,118 42,241 71,354 125,484 208,799 411,1259 22,50 228,534 268,580l160 -95 -228 -568c-281,-708 -368,-1151 -498,-1897 57,13 188,110 253,154 50,33 196,140 242,152 24,-36 109,-152 118,-195 -38,-37 -532,-364 -601,-405 -65,-39 -135,-117 -210,-136 -37,58 -393,470 -466,550 -35,38 -134,148 -155,189z"/>
  <path class="fil0" d="M8987 11266c31,38 847,618 885,632l65 -231c-40,-23 -691,-474 -741,-526l-208 125z"/>
  <path class="fil0" d="M12076 8416c32,124 21,88 67,241 170,-125 698,-517 730,-545 -4,-41 -20,-78 -31,-115l-44 -110c-95,52 -696,500 -722,530z"/>
  <path class="fil0" d="M5577 5240l-59 221 935 -8c38,-134 40,-139 69,-233l-945 20z"/>
  <path class="fil0" d="M10359 4926l218 10 -254 -791 -235 -3c18,104 96,285 135,395 47,132 88,256 136,389z"/>
 </g>
</svg>
