<?xml version="1.0" encoding="UTF-8"?>
<!DOCTYPE svg PUBLIC "-//W3C//DTD SVG 1.1//EN" "http://www.w3.org/Graphics/SVG/1.1/DTD/svg11.dtd">
<!-- Creator: CorelDRAW X5 -->
<svg xmlns="http://www.w3.org/2000/svg" xml:space="preserve" width="290mm" height="290mm" style="shape-rendering:geometricPrecision; text-rendering:geometricPrecision; image-rendering:optimizeQuality; fill-rule:evenodd; clip-rule:evenodd"
viewBox="0 0 29000 29000"
 xmlns:xlink="http://www.w3.org/1999/xlink">
 <defs>
  <style type="text/css">
   <![CDATA[
    .str1 {stroke:black;stroke-width:75;stroke-linecap:round;stroke-linejoin:round}
    .str0 {stroke:#2B2A29;stroke-width:150;stroke-linecap:round;stroke-linejoin:round}
    .str2 {stroke:black;stroke-width:150;stroke-linecap:round;stroke-linejoin:round}
    .fil1 {fill:none}
    .fil6 {fill:#009847}
    .fil7 {fill:#3A4894}
    .fil2 {fill:#5B3625}
    .fil5 {fill:#807D7D}
    .fil4 {fill:#E02426}
    .fil0 {fill:#2E313C}
    .fil3 {fill:white}
   ]]>
  </style>
 </defs>
 <g id="Слой_x0020_1">
  <metadata id="CorelCorpID_0Corel-Layer"/>
  <path class="fil0" d="M18278 12156l340 382c28,28 35,24 38,61 -1390,-8 -2900,-4 -4289,7l-1049 7c-22,72 -74,173 -50,219 573,25 1432,11 2031,12l3359 8c-21,69 -321,352 -374,448 21,42 122,124 174,161 32,-27 622,-676 651,-739 -18,-33 -612,-701 -651,-732 -48,25 -155,115 -180,166z"/>
  <path class="fil0" d="M18199 18323c-123,-16 -477,-218 -558,-207 -15,25 -77,178 -78,216 20,17 834,370 907,368 38,-44 90,-153 122,-210 44,-79 81,-138 119,-212 49,-94 220,-363 231,-429 -25,-26 -176,-109 -201,-117 -39,32 -252,418 -288,499 -29,-26 -28,-29 -41,-66l-78 -237c-35,-108 -67,-219 -103,-323 -74,-210 -144,-448 -209,-642l-621 -1901c-38,-112 -70,-216 -105,-320 -18,-53 -34,-98 -55,-154 -19,-53 -33,-112 -51,-162l-210 -641c-20,-55 -38,-98 -55,-156 -9,-32 -19,-55 -27,-80 -8,-25 -15,-55 -24,-81 -22,-65 -33,-96 -53,-159 -21,-66 -24,-100 -62,-148l-208 -1c2,96 23,87 43,163 38,144 201,647 255,807 34,100 71,223 103,321l830 2575c98,301 284,837 363,1122 19,67 44,114 53,174z"/>
  <path class="fil0" d="M9595 14702l98 975c49,9 200,-6 239,-20 19,-97 -43,-441 -45,-579 61,23 205,144 272,191 84,59 188,136 267,192l2949 2131c182,133 491,359 677,481l139 100c54,-15 57,-20 98,-48 29,-20 62,-34 84,-63 -16,-50 -37,-48 -53,-59l-2106 -1547c-377,-280 -733,-527 -1091,-795l-819 -596c-89,-67 -174,-118 -271,-197 49,-46 532,-114 562,-147 26,-30 -35,-228 -40,-238 -34,-1 -925,203 -961,220z"/>
  <path class="fil0" d="M12737 10654l92 220c87,-8 424,-188 547,-225 0,50 -563,1767 -608,1902 -90,273 -214,691 -306,941 -59,161 -122,426 -202,636 -88,233 -233,779 -305,957 -21,51 -26,97 -48,153 -41,105 -41,157 -61,198 -9,18 -14,24 -19,39 -9,26 -15,66 -21,87 -48,162 -88,152 36,228 19,12 44,34 65,39 48,12 57,-51 89,-150 107,-329 261,-815 370,-1115 81,-223 131,-420 210,-638l210 -641c68,-212 141,-422 209,-634l522 -1605c29,-88 73,-253 107,-311 62,49 241,437 307,493 65,-11 147,-81 201,-107 -9,-75 -407,-716 -492,-851 -114,19 -745,317 -904,384z"/>
  <path class="fil0" d="M12868 19527c0,-142 61,-479 37,-581l-228 -19c-31,62 -43,383 -57,486 -10,74 -14,176 -21,255 -4,48 -5,83 -12,126 -3,19 -9,41 -9,61 0,29 1,44 14,55 28,19 907,207 951,202 20,-37 19,-66 29,-111 43,-202 25,-99 -500,-240l-20 -6c-3,-1 -7,-3 -10,-4 -3,-1 -7,-2 -10,-4 21,-51 192,-154 248,-194l4009 -2934c12,-8 19,-10 33,-19 1,-25 -48,-187 -64,-221 -36,10 -140,101 -198,139 -111,72 -245,163 -346,244 -52,41 -90,57 -137,99l-2055 1481c-185,135 -1592,1169 -1652,1183z"/>
  <path class="fil0" d="M10414 7558l16 10 441 196c37,16 40,18 59,46 -204,86 -723,397 -927,547 -281,206 -593,417 -846,662 -101,98 -139,124 -259,248 -85,88 -169,168 -250,259 12,41 83,127 110,161l514 -458c358,-303 720,-596 1128,-841 101,-61 534,-329 647,-353 -8,104 -145,437 -158,559 39,32 161,72 230,74 38,-142 96,-313 142,-455 26,-80 138,-431 141,-486 -119,-48 -855,-388 -901,-391 -25,53 -83,163 -87,221z"/>
  <path class="fil0" d="M21960 19067c-45,-65 -145,-458 -200,-537 -57,2 -189,46 -223,74 41,124 283,878 317,923 63,5 919,-180 957,-203 0,-69 -24,-180 -49,-226 -82,-3 -212,38 -295,53 -91,17 -195,48 -283,56 10,-46 117,-244 144,-304 120,-260 303,-698 384,-970l106 -345c89,-310 218,-848 213,-1150 -337,43 -164,13 -316,603 -60,231 -129,517 -201,730 -87,255 -155,426 -249,670 -33,85 -261,594 -306,628z"/>
  <path class="fil0" d="M12855 23361c12,67 80,164 116,224 471,776 252,678 572,537 -4,-58 -102,-213 -134,-269 -35,-60 -135,-215 -139,-275 610,97 1577,172 2239,85 197,-26 402,-59 597,-79 -3,-40 -87,-175 -113,-214 -213,16 -431,53 -648,66 -422,26 -958,43 -1376,-13 -121,-16 -558,-52 -636,-92 70,-78 416,-284 447,-354l-129 -184c-66,27 -148,98 -203,139 -93,69 -529,394 -594,429z"/>
  <path class="fil0" d="M18283 7950c56,17 120,55 165,78 28,15 42,27 73,44 29,16 55,26 80,38l151 87c36,20 32,26 68,48 27,17 50,29 74,44l145 91c136,97 293,192 417,290 97,76 169,124 268,203 151,121 365,295 510,433 27,25 218,192 234,245l-576 22c-15,49 -20,197 10,230 23,25 418,5 478,4l499 -18c20,-68 90,-903 86,-982 -51,-19 -175,-29 -238,-19 -17,106 -40,530 -64,581 -20,-8 -213,-200 -253,-237 -90,-83 -173,-153 -265,-229 -367,-305 -745,-580 -1164,-816 -87,-49 -599,-341 -650,-351l-47 215z"/>
  <path class="fil0" d="M5828 16800c26,46 35,35 87,83 32,30 52,59 95,72 76,-61 342,-412 389,-438 2,3 3,4 4,9l7 18 25 139c7,51 21,127 33,177 28,119 43,243 72,356 126,488 210,806 415,1270 22,50 230,539 270,584l161 -95 -230 -573c-283,-714 -371,-1161 -502,-1913 57,13 190,111 255,155 50,34 198,141 244,153 24,-36 110,-153 119,-196 -39,-38 -536,-367 -606,-409 -66,-39 -136,-118 -212,-137 -37,58 -396,474 -470,555 -36,39 -135,149 -156,191z"/>
  <path class="fil0" d="M11128 17565l271 2 282 -836c-32,-37 -158,-134 -201,-158 -2,2 -5,3 -5,7l-45 112c-66,196 -278,765 -301,873z"/>
  <path class="fil0" d="M14888 18694c31,38 854,623 892,637l65 -233c-40,-23 -696,-478 -747,-530l-210 126z"/>
  <path class="fil0" d="M18002 15822c7,65 34,193 68,243 43,-16 703,-521 736,-549 -4,-41 -20,-79 -32,-116l-45 -111c-95,52 -702,504 -728,534z"/>
  <path class="fil0" d="M11450 12620l-59 223 942 -9c27,-48 66,-175 70,-235l-953 20z"/>
  <path class="fil0" d="M16271 12303l220 10 -256 -798 -237 -3c18,105 96,287 136,399 47,133 89,258 137,392z"/>
  <g>
   <path class="fil1 str0" d="M14532 3854c1696,0 3071,1375 3071,3071 0,1696 -1375,3071 -3071,3071 -1696,0 -3071,-1375 -3071,-3071 0,-1696 1375,-3071 3071,-3071z"/>
   <path id="1" class="fil2" d="M14532 3854c1696,0 3071,1375 3071,3071 0,1696 -1375,3071 -3071,3071 -1696,0 -3071,-1375 -3071,-3071 0,-1696 1375,-3071 3071,-3071z"/>
  </g>
  <g>
   <path class="fil1 str1" d="M15237 3953l14 17c30,30 129,77 203,132 65,48 133,101 196,166 408,416 579,1050 379,1618 -191,542 -591,883 -1118,1028 -216,59 -436,33 -655,71 -381,65 -712,293 -906,534 -228,283 -367,609 -339,1097 40,720 710,1381 1497,1381 889,0 1581,-340 2082,-787 438,-391 909,-1081 993,-1882 150,-1430 -579,-2647 -1788,-3193 -127,-57 -426,-174 -557,-181z"/>
   <path id="1" class="fil3" d="M15237 3953l14 17c30,30 129,77 203,132 65,48 133,101 196,166 408,416 579,1050 379,1618 -191,542 -591,883 -1118,1028 -216,59 -436,33 -655,71 -381,65 -712,293 -906,534 -228,283 -367,609 -339,1097 40,720 710,1381 1497,1381 889,0 1581,-340 2082,-787 438,-391 909,-1081 993,-1882 150,-1430 -579,-2647 -1788,-3193 -127,-57 -426,-174 -557,-181z"/>
  </g>
  <g>
   <path class="fil1 str2" d="M6795 9742c1696,0 3071,1375 3071,3071 0,1696 -1375,3071 -3071,3071 -1696,0 -3071,-1375 -3071,-3071 0,-1696 1375,-3071 3071,-3071z"/>
   <path id="1" class="fil4" d="M6795 9742c1696,0 3071,1375 3071,3071 0,1696 -1375,3071 -3071,3071 -1696,0 -3071,-1375 -3071,-3071 0,-1696 1375,-3071 3071,-3071z"/>
  </g>
  <g>
   <path class="fil1 str1" d="M7500 9841l14 17c30,30 129,77 203,132 65,48 133,101 196,166 408,416 579,1050 379,1618 -191,542 -591,883 -1118,1028 -216,59 -436,33 -655,71 -381,65 -712,293 -906,534 -228,283 -367,609 -339,1097 40,720 710,1381 1497,1381 889,0 1581,-340 2082,-787 438,-391 909,-1081 993,-1882 150,-1430 -579,-2647 -1788,-3193 -127,-57 -426,-174 -557,-181z"/>
   <path id="1" class="fil3" d="M7500 9841l14 17c30,30 129,77 203,132 65,48 133,101 196,166 408,416 579,1050 379,1618 -191,542 -591,883 -1118,1028 -216,59 -436,33 -655,71 -381,65 -712,293 -906,534 -228,283 -367,609 -339,1097 40,720 710,1381 1497,1381 889,0 1581,-340 2082,-787 438,-391 909,-1081 993,-1882 150,-1430 -579,-2647 -1788,-3193 -127,-57 -426,-174 -557,-181z"/>
  </g>
  <g>
   <path class="fil1 str2" d="M22364 9761c1696,0 3071,1375 3071,3071 0,1696 -1375,3071 -3071,3071 -1696,0 -3071,-1375 -3071,-3071 0,-1696 1375,-3071 3071,-3071z"/>
   <path id="1" class="fil5" d="M22364 9761c1696,0 3071,1375 3071,3071 0,1696 -1375,3071 -3071,3071 -1696,0 -3071,-1375 -3071,-3071 0,-1696 1375,-3071 3071,-3071z"/>
  </g>
  <g>
   <path class="fil1 str1" d="M23069 9860l14 17c30,30 129,77 203,132 65,48 133,101 196,166 408,416 579,1050 379,1618 -191,542 -591,883 -1118,1028 -216,59 -436,33 -655,71 -381,65 -712,293 -906,534 -228,283 -367,609 -339,1097 40,720 710,1381 1497,1381 889,0 1581,-340 2082,-787 438,-391 909,-1081 993,-1882 150,-1430 -579,-2647 -1788,-3193 -127,-57 -426,-174 -557,-181z"/>
   <path id="1" class="fil3" d="M23069 9860l14 17c30,30 129,77 203,132 65,48 133,101 196,166 408,416 579,1050 379,1618 -191,542 -591,883 -1118,1028 -216,59 -436,33 -655,71 -381,65 -712,293 -906,534 -228,283 -367,609 -339,1097 40,720 710,1381 1497,1381 889,0 1581,-340 2082,-787 438,-391 909,-1081 993,-1882 150,-1430 -579,-2647 -1788,-3193 -127,-57 -426,-174 -557,-181z"/>
  </g>
  <g>
   <path class="fil1 str2" d="M9792 18872c1696,0 3071,1375 3071,3071 0,1696 -1375,3071 -3071,3071 -1696,0 -3071,-1375 -3071,-3071 0,-1696 1375,-3071 3071,-3071z"/>
   <path id="1" class="fil6" d="M9792 18872c1696,0 3071,1375 3071,3071 0,1696 -1375,3071 -3071,3071 -1696,0 -3071,-1375 -3071,-3071 0,-1696 1375,-3071 3071,-3071z"/>
  </g>
  <g>
   <path class="fil1 str1" d="M10497 18971l14 17c30,30 129,77 203,132 65,48 133,101 196,166 408,416 579,1050 379,1618 -191,542 -591,883 -1118,1028 -216,59 -436,33 -655,71 -381,65 -712,293 -906,534 -228,283 -367,609 -339,1097 40,720 710,1381 1497,1381 889,0 1581,-340 2082,-787 438,-391 909,-1081 993,-1882 150,-1430 -579,-2647 -1788,-3193 -127,-57 -426,-174 -557,-181z"/>
   <path id="1" class="fil3" d="M10497 18971l14 17c30,30 129,77 203,132 65,48 133,101 196,166 408,416 579,1050 379,1618 -191,542 -591,883 -1118,1028 -216,59 -436,33 -655,71 -381,65 -712,293 -906,534 -228,283 -367,609 -339,1097 40,720 710,1381 1497,1381 889,0 1581,-340 2082,-787 438,-391 909,-1081 993,-1882 150,-1430 -579,-2647 -1788,-3193 -127,-57 -426,-174 -557,-181z"/>
  </g>
  <g>
   <path class="fil1 str2" d="M19563 18862c1696,0 3071,1375 3071,3071 0,1696 -1375,3071 -3071,3071 -1696,0 -3071,-1375 -3071,-3071 0,-1696 1375,-3071 3071,-3071z"/>
   <path id="1" class="fil7" d="M19563 18862c1696,0 3071,1375 3071,3071 0,1696 -1375,3071 -3071,3071 -1696,0 -3071,-1375 -3071,-3071 0,-1696 1375,-3071 3071,-3071z"/>
  </g>
  <g>
   <path class="fil1 str1" d="M20268 18961l14 17c30,30 129,77 203,132 65,48 133,101 196,166 408,416 579,1050 379,1618 -191,542 -591,883 -1118,1028 -216,59 -436,33 -655,71 -381,65 -712,293 -906,534 -228,283 -367,609 -339,1097 40,720 710,1381 1497,1381 889,0 1581,-340 2082,-787 438,-391 909,-1081 993,-1882 150,-1430 -579,-2647 -1788,-3193 -127,-57 -426,-174 -557,-181z"/>
   <path id="1" class="fil3" d="M20268 18961l14 17c30,30 129,77 203,132 65,48 133,101 196,166 408,416 579,1050 379,1618 -191,542 -591,883 -1118,1028 -216,59 -436,33 -655,71 -381,65 -712,293 -906,534 -228,283 -367,609 -339,1097 40,720 710,1381 1497,1381 889,0 1581,-340 2082,-787 438,-391 909,-1081 993,-1882 150,-1430 -579,-2647 -1788,-3193 -127,-57 -426,-174 -557,-181z"/>
  </g>
 </g>
</svg>
