<?xml version="1.0" encoding="UTF-8"?>
<!DOCTYPE svg PUBLIC "-//W3C//DTD SVG 1.1//EN" "http://www.w3.org/Graphics/SVG/1.1/DTD/svg11.dtd">
<!-- Creator: CorelDRAW X5 -->
<svg xmlns="http://www.w3.org/2000/svg" xml:space="preserve" width="290mm" height="290mm" style="shape-rendering:geometricPrecision; text-rendering:geometricPrecision; image-rendering:optimizeQuality; fill-rule:evenodd; clip-rule:evenodd"
viewBox="0 0 29000 29000"
 xmlns:xlink="http://www.w3.org/1999/xlink">
 <defs>
  <style type="text/css">
   <![CDATA[
    .str0 {stroke:#2B2A29;stroke-width:150;stroke-linecap:round;stroke-linejoin:round}
    .str1 {stroke:black;stroke-width:150;stroke-linecap:round;stroke-linejoin:round}
    .fil0 {fill:none}
    .fil4 {fill:#009847}
    .fil5 {fill:#3A4894}
    .fil1 {fill:#5B3625}
    .fil3 {fill:#807D7D}
    .fil2 {fill:#E02426}
   ]]>
  </style>
 </defs>
 <g id="Слой_x0020_1">
  <metadata id="CorelCorpID_0Corel-Layer"/>
  <g>
   <path class="fil0 str0" d="M14532 3854c1696,0 3071,1375 3071,3071 0,1696 -1375,3071 -3071,3071 -1696,0 -3071,-1375 -3071,-3071 0,-1696 1375,-3071 3071,-3071z"/>
   <path id="1" class="fil1" d="M14532 3854c1696,0 3071,1375 3071,3071 0,1696 -1375,3071 -3071,3071 -1696,0 -3071,-1375 -3071,-3071 0,-1696 1375,-3071 3071,-3071z"/>
  </g>
  <g>
   <path class="fil0 str1" d="M6795 9742c1696,0 3071,1375 3071,3071 0,1696 -1375,3071 -3071,3071 -1696,0 -3071,-1375 -3071,-3071 0,-1696 1375,-3071 3071,-3071z"/>
   <path id="1" class="fil2" d="M6795 9742c1696,0 3071,1375 3071,3071 0,1696 -1375,3071 -3071,3071 -1696,0 -3071,-1375 -3071,-3071 0,-1696 1375,-3071 3071,-3071z"/>
  </g>
  <g>
   <path class="fil0 str1" d="M22364 9761c1696,0 3071,1375 3071,3071 0,1696 -1375,3071 -3071,3071 -1696,0 -3071,-1375 -3071,-3071 0,-1696 1375,-3071 3071,-3071z"/>
   <path id="1" class="fil3" d="M22364 9761c1696,0 3071,1375 3071,3071 0,1696 -1375,3071 -3071,3071 -1696,0 -3071,-1375 -3071,-3071 0,-1696 1375,-3071 3071,-3071z"/>
  </g>
  <g>
   <path class="fil0 str1" d="M9792 18872c1696,0 3071,1375 3071,3071 0,1696 -1375,3071 -3071,3071 -1696,0 -3071,-1375 -3071,-3071 0,-1696 1375,-3071 3071,-3071z"/>
   <path id="1" class="fil4" d="M9792 18872c1696,0 3071,1375 3071,3071 0,1696 -1375,3071 -3071,3071 -1696,0 -3071,-1375 -3071,-3071 0,-1696 1375,-3071 3071,-3071z"/>
  </g>
  <g>
   <path class="fil0 str1" d="M19563 18862c1696,0 3071,1375 3071,3071 0,1696 -1375,3071 -3071,3071 -1696,0 -3071,-1375 -3071,-3071 0,-1696 1375,-3071 3071,-3071z"/>
   <path id="1" class="fil5" d="M19563 18862c1696,0 3071,1375 3071,3071 0,1696 -1375,3071 -3071,3071 -1696,0 -3071,-1375 -3071,-3071 0,-1696 1375,-3071 3071,-3071z"/>
  </g>
 </g>
</svg>
