<?xml version="1.0" encoding="UTF-8"?>
<!DOCTYPE svg PUBLIC "-//W3C//DTD SVG 1.1//EN" "http://www.w3.org/Graphics/SVG/1.1/DTD/svg11.dtd">
<!-- Creator: CorelDRAW X5 -->
<svg xmlns="http://www.w3.org/2000/svg" xml:space="preserve" width="290mm" height="290mm" style="shape-rendering:geometricPrecision; text-rendering:geometricPrecision; image-rendering:optimizeQuality; fill-rule:evenodd; clip-rule:evenodd"
viewBox="0 0 29000 29000"
 xmlns:xlink="http://www.w3.org/1999/xlink">
 <defs>
  <style type="text/css">
   <![CDATA[
    .str0 {stroke:black;stroke-width:75;stroke-linecap:round;stroke-linejoin:round}
    .fil0 {fill:none}
    .fil1 {fill:white}
   ]]>
  </style>
 </defs>
 <g id="Слой_x0020_1">
  <metadata id="CorelCorpID_0Corel-Layer"/>
  <g>
   <path class="fil0 str0" d="M15237 3953l14 17c30,30 129,77 203,132 65,48 133,101 196,166 408,416 579,1050 379,1618 -191,542 -591,883 -1118,1028 -216,59 -436,33 -655,71 -381,65 -712,293 -906,534 -228,283 -367,609 -339,1097 40,720 710,1381 1497,1381 889,0 1581,-340 2082,-787 438,-391 909,-1081 993,-1882 150,-1430 -579,-2647 -1788,-3193 -127,-57 -426,-174 -557,-181z"/>
   <path id="1" class="fil1" d="M15237 3953l14 17c30,30 129,77 203,132 65,48 133,101 196,166 408,416 579,1050 379,1618 -191,542 -591,883 -1118,1028 -216,59 -436,33 -655,71 -381,65 -712,293 -906,534 -228,283 -367,609 -339,1097 40,720 710,1381 1497,1381 889,0 1581,-340 2082,-787 438,-391 909,-1081 993,-1882 150,-1430 -579,-2647 -1788,-3193 -127,-57 -426,-174 -557,-181z"/>
  </g>
  <g>
   <path class="fil0 str0" d="M7500 9841l14 17c30,30 129,77 203,132 65,48 133,101 196,166 408,416 579,1050 379,1618 -191,542 -591,883 -1118,1028 -216,59 -436,33 -655,71 -381,65 -712,293 -906,534 -228,283 -367,609 -339,1097 40,720 710,1381 1497,1381 889,0 1581,-340 2082,-787 438,-391 909,-1081 993,-1882 150,-1430 -579,-2647 -1788,-3193 -127,-57 -426,-174 -557,-181z"/>
   <path id="1" class="fil1" d="M7500 9841l14 17c30,30 129,77 203,132 65,48 133,101 196,166 408,416 579,1050 379,1618 -191,542 -591,883 -1118,1028 -216,59 -436,33 -655,71 -381,65 -712,293 -906,534 -228,283 -367,609 -339,1097 40,720 710,1381 1497,1381 889,0 1581,-340 2082,-787 438,-391 909,-1081 993,-1882 150,-1430 -579,-2647 -1788,-3193 -127,-57 -426,-174 -557,-181z"/>
  </g>
  <g>
   <path class="fil0 str0" d="M23069 9860l14 17c30,30 129,77 203,132 65,48 133,101 196,166 408,416 579,1050 379,1618 -191,542 -591,883 -1118,1028 -216,59 -436,33 -655,71 -381,65 -712,293 -906,534 -228,283 -367,609 -339,1097 40,720 710,1381 1497,1381 889,0 1581,-340 2082,-787 438,-391 909,-1081 993,-1882 150,-1430 -579,-2647 -1788,-3193 -127,-57 -426,-174 -557,-181z"/>
   <path id="1" class="fil1" d="M23069 9860l14 17c30,30 129,77 203,132 65,48 133,101 196,166 408,416 579,1050 379,1618 -191,542 -591,883 -1118,1028 -216,59 -436,33 -655,71 -381,65 -712,293 -906,534 -228,283 -367,609 -339,1097 40,720 710,1381 1497,1381 889,0 1581,-340 2082,-787 438,-391 909,-1081 993,-1882 150,-1430 -579,-2647 -1788,-3193 -127,-57 -426,-174 -557,-181z"/>
  </g>
  <g>
   <path class="fil0 str0" d="M10497 18971l14 17c30,30 129,77 203,132 65,48 133,101 196,166 408,416 579,1050 379,1618 -191,542 -591,883 -1118,1028 -216,59 -436,33 -655,71 -381,65 -712,293 -906,534 -228,283 -367,609 -339,1097 40,720 710,1381 1497,1381 889,0 1581,-340 2082,-787 438,-391 909,-1081 993,-1882 150,-1430 -579,-2647 -1788,-3193 -127,-57 -426,-174 -557,-181z"/>
   <path id="1" class="fil1" d="M10497 18971l14 17c30,30 129,77 203,132 65,48 133,101 196,166 408,416 579,1050 379,1618 -191,542 -591,883 -1118,1028 -216,59 -436,33 -655,71 -381,65 -712,293 -906,534 -228,283 -367,609 -339,1097 40,720 710,1381 1497,1381 889,0 1581,-340 2082,-787 438,-391 909,-1081 993,-1882 150,-1430 -579,-2647 -1788,-3193 -127,-57 -426,-174 -557,-181z"/>
  </g>
  <g>
   <path class="fil0 str0" d="M20268 18961l14 17c30,30 129,77 203,132 65,48 133,101 196,166 408,416 579,1050 379,1618 -191,542 -591,883 -1118,1028 -216,59 -436,33 -655,71 -381,65 -712,293 -906,534 -228,283 -367,609 -339,1097 40,720 710,1381 1497,1381 889,0 1581,-340 2082,-787 438,-391 909,-1081 993,-1882 150,-1430 -579,-2647 -1788,-3193 -127,-57 -426,-174 -557,-181z"/>
   <path id="1" class="fil1" d="M20268 18961l14 17c30,30 129,77 203,132 65,48 133,101 196,166 408,416 579,1050 379,1618 -191,542 -591,883 -1118,1028 -216,59 -436,33 -655,71 -381,65 -712,293 -906,534 -228,283 -367,609 -339,1097 40,720 710,1381 1497,1381 889,0 1581,-340 2082,-787 438,-391 909,-1081 993,-1882 150,-1430 -579,-2647 -1788,-3193 -127,-57 -426,-174 -557,-181z"/>
  </g>
 </g>
</svg>
