<svg id="Слой_1" data-name="Слой 1" xmlns="http://www.w3.org/2000/svg" viewBox="0 0 427.71 412.6"><defs><style>.cls-1,.cls-3{fill:#fefefe;}.cls-1{stroke:#fefefe;}.cls-2{fill:#fff;}.cls-4,.cls-5{fill:none;stroke-linecap:round;stroke-linejoin:round;}.cls-4{stroke:#2b2a29;}.cls-5{stroke:#000;}.cls-6{fill:#e9e9ec;}</style></defs><title>arrows</title><path class="cls-1" d="M395.1,189c-1,.4-.2,0-.58.6.46,0,.81,0,1.3,0h.89l.12,0h2l.35-.75c.23-.49-.17-.14.23-.43s-.6.29.49-.12c.6-.23.17,0,.55-.29l.58.69.12.12.35.43.12.14c.81-.32.29-.17.81-.46-.06.58.35.37-1.38,1.12a7.16,7.16,0,0,1-1.84.75c.06-.63,0-.14.29-.4.72-.78.32.14.66-.75l-1.27,0-.37,1.21a.3.3,0,0,0,.06.14,1.65,1.65,0,0,0,1.35.72c-.6.32-.23-.12-.4.58l-.06,3.31h.46c-.4,1.61-.78-.32-.92,1.81.55.14.46-.4.49.75a7.07,7.07,0,0,1-.26,1.32c.09,0,.17-.14.23-.09s.4-.63,1.3.14l.6.72a.22.22,0,0,1,.06.12l.14.23c-1,0-2.39-.14-3.66,0-1.44.12-4.06-.37-4.2,1.09-.09.81,0,0,0,.52l.09,3.6c0,2-.35,4.15.46,5l-.12-9.53h5.76v1.84a9.4,9.4,0,0,1-3.2.23V205a8.24,8.24,0,0,1,3,.23V207c-1.84,0-3.31-.63-3.25,1.12s1.79.52,3.48,1.15v1.38c-1.09.83-4.81.46-5.61.29l1.27.78h.12c.17,0,.09-.49.4.23a1.4,1.4,0,0,1,.12.32l.09.17c.75,1.55.32.2.32,2.33,0,0,.12,0,.12,0,.2.86.17,0,.2,0,.6.23-.69-1.21.35.32l.32.49a4.39,4.39,0,0,0-2.59-.09l-.46.55c.81.29.86.14,1.47.52-.43.37-1,.32-1.41.69.52.14-.6.23.66.09,1.64.14,3.4-.17,4.66.63,1.55,1,1.09,2.74-.14,3.66.63.78,1.67,1,1.44,2.71a2.51,2.51,0,0,1-2,2.13c-.2.55-.52.6-2.25.6a7.35,7.35,0,0,0-2.39,0c.06,0,.14,0,.2.09s.14.06.2.09l1.5.43c.35.12,0-.06.32.14l.43.37.12.12v.72l-.92.46c0,2.68.43,1.67.46,2.76h-.69c.12,1.55.35.49.46,1.73.09.89-.29.89-.46,1.9.92,0,.86-.2,1.15.52h-1.12c.58,3.6-.49.83-.49,3.05,0,.86.29.66.55,1.15s.09.49.2.89c.2.86-.14.49.43.78-1.44.17-.49.06-.92,1l-.66,1.12c-.4.58-.43.55-.92.69v.63c1.18-.09.63-.26,1.58,0v1.5c.06,0,.14,0,.17.12s.49-.12.35,1l0,.2s0,.09,0,.12a4.24,4.24,0,0,0-.2.49c.55.23.14.14,1,.2-.66.2-.46,0-.75.75,2.68-.09,4.72-.83,5.64-.78,4.17.09,15.43-5.27,19.35-7.77l5.93-4.15c4.43-3.46,11.4-11.06,14.4-16.33a86.69,86.69,0,0,0,4.49-9,67.09,67.09,0,0,0,3.2-10.39,56.38,56.38,0,0,0,1.24-12.29c0-12.27-2.48-21.39-8.38-32-4.2-7.49-12.81-16.53-20.13-20.93-4.61-2.76-13.53-7.34-19.2-8.09,2.1,1.41,5,2.68,7.57,5.24a36.69,36.69,0,0,1,3.08,3.37,31.87,31.87,0,0,1,6.8,25.08c-1,6.45-4,13.24-8.49,17.45-2.94,2.76-3.46,3.54-7.2,5.67a33.7,33.7,0,0,1-6.74,3c-.75.23-1.81.46-2.59.72Z" transform="translate(-23.37 -15.6)"/><path class="cls-2" d="M97.15,187.3c-.43,1.32-.2.35.12.72,1.64-.06.83-.75,2-.14-.66.52-.43,0-.46,1.27.58.26.29.2,1.15.23-.09.81-.49.49-.23,1.55.35,1.47.26.6-.06,1.9a8.23,8.23,0,0,0,.06,2.19c.66,22.63-5.82,20.13-3.2,22.92a6.77,6.77,0,0,0-.72.81c-.17.37-.23,1.9-1.27,2.68s.66-.35-.2.12l-.23.09c.4,2.1,0,6.82.09,9s.72-.29.26,2.19c.09,0,.17-.17.2-.12s.14-.09.2-.12.14-.06.17-.09.12-.06.14-.06c.35-.06.17-.06.81.89.4.6.17-.46.35.75l.23,4h-.89c.2,1.07.23.52.37,1.12a6,6,0,0,1-.32,3.46c.14.58-.14,0,.14.2C95.79,244,95,244,94,244v1.76h1.61v1.67c-2.42,0-1.44,0-3.48.58l-1.12.4c1.07,1.07,1.76-.17,2.53,1,.37-.35.46-.75,1-1,.37.75-.06.66.86,1a15.31,15.31,0,0,0-3.08.32l-2.1.37c-.75.2-.35,0-.83.43,1.44-.06,3.25-.46,4.58-.17,1.67.29,9.44-1.84,11.11-2.45s3.4-1.15,5-1.87a62.29,62.29,0,0,0,24-96.11,61.28,61.28,0,0,0-14.68-13.3c-7.37-4.49-9.73-5.5-18.17-8a1.28,1.28,0,0,0-.72-.14c-.75.06-.32-.09-.78.32,4.89,2,10,7.23,12.73,11.34A32.1,32.1,0,0,1,104.81,183a31.59,31.59,0,0,1-7.6,4.29Z" transform="translate(-23.37 -15.6)"/><path class="cls-3" d="M395.1,189c-3.63.17-12.55.86-16.1,2a36.75,36.75,0,0,0-6.16,2.79l-2.33,1.55c-.12.09-.29.17-.43.26a21,21,0,0,0-2.53,2,24.55,24.55,0,0,0-4.15,4.81c-1.58,2.62-1.9,2.25-3.28,5.84-4.2,10.85-3,19.41,2.65,28.88a32,32,0,0,0,5.21,6,19.39,19.39,0,0,0,2,1.67l1.87,1.35a4.56,4.56,0,0,0,1.3.78c.69.29.86.37,1.55.72a28.89,28.89,0,0,0,3.2,1.38,29.89,29.89,0,0,0,7.37,1.76c2.65.46,15.46-.29,16.53-1.5-.92-.06-3,.69-5.64.78.29-.75.09-.55.75-.75-.81,0-.4,0-1-.2,0-.12.2-.43.2-.49s0-.09,0-.12l0-.2c.17-1.09-.29-.75-.35-1,0-.09-.12-.06-.17-.12v-1.5c-1-.29-.4-.09-1.58,0v-.63c.46-.14.49-.12.92-.69l.66-1.12c.43-1-.49-.83.92-1-.58-.32-.23.06-.43-.78-.12-.4.09-.35-.2-.89s-.55-.32-.55-1.15c0-2.22,1.07.52.49-3.05h1.12c-.29-.69-.23-.49-1.15-.52.2-1,.55-1,.46-1.9-.12-1.24-.37-.17-.46-1.73h.69c0-1.09-.46-.06-.46-2.76l.92-.46v-.72c-.06,0-.09-.09-.12-.12l-.43-.37c-.32-.2,0,0-.32-.14l-1.5-.43c-.06,0-.14,0-.2-.09s-.14-.06-.2-.09a7.35,7.35,0,0,1,2.39,0c1.73,0,2-.06,2.25-.6a8.21,8.21,0,0,1-4.17.06c-.32-1.64-.37-7.89.2-9.18-1.27.14-.14.06-.66-.09.43-.37,1-.32,1.41-.69-.6-.37-.69-.23-1.47-.52l.46-.55a4.17,4.17,0,0,1,2.59.09l-.32-.49c-1-1.53.26-.09-.35-.32,0,0,0,.83-.2,0,0,0-.09,0-.12,0,0-2.13.4-.78-.32-2.33l-.09-.17a2.19,2.19,0,0,1-.12-.32c-.29-.72-.23-.23-.4-.23h-.12l-1.27-.78c.81.17,4.55.58,5.61-.29v-1.38c-1.7-.63-3.43.58-3.48-1.15s1.41-1.12,3.25-1.12v-1.84a8.24,8.24,0,0,0-3-.23v-1.61a9.34,9.34,0,0,0,3.2-.23v-1.84h-5.76l.12,9.53c-.81-.81-.46-3-.46-5l-.09-3.6c0-.58-.06.26,0-.52.14-1.47,2.76-1,4.2-1.09,1.27-.12,2.62.06,3.66,0l-.14-.23a.22.22,0,0,1-.06-.12l-.6-.72c-.89-.78-1.21,0-1.3-.14s-.14.06-.23.09a6.66,6.66,0,0,0,.26-1.32c0-1.18.06-.6-.49-.75.14-2.13.52-.2.92-1.81h-.46l.06-3.31c.2-.66-.2-.26.4-.58a1.73,1.73,0,0,1-1.35-.72s0-.09-.06-.14l.37-1.21,1.27,0c-.35.89.06,0-.66.75-.23.26-.2-.23-.29.4a5.68,5.68,0,0,0,1.84-.75c1.7-.75,1.32-.55,1.38-1.12-.52.29,0,.17-.81.46a.63.63,0,0,0-.12-.14l-.35-.43-.12-.12-.58-.69c-.35.35.09.06-.55.29-1.09.4-.12-.14-.49.12s0-.06-.23.43l-.35.75h-2l-.12,0h-.89c-.46,0-.81,0-1.3,0,.37-.6-.4-.2.58-.6Z" transform="translate(-23.37 -15.6)"/><path d="M307,177.57l6.62,7.43c.55.55.69.46.75,1.18-27-.14-56.41-.09-83.41.14l-20.41.14c-.43,1.41-1.44,3.37-1,4.26,11.14.49,27.84.2,39.5.23l65.33.14c-.4,1.32-6.25,6.85-7.28,8.7a15.08,15.08,0,0,0,3.4,3.14c.6-.52,12.09-13.16,12.67-14.37-.35-.63-11.89-13.62-12.67-14.22A11.37,11.37,0,0,0,307,177.57Z" transform="translate(-23.37 -15.6)"/><path d="M305.46,297.55c-2.39-.32-9.27-4.23-10.85-4a20.13,20.13,0,0,0-1.53,4.2c.37.35,16.24,7.2,17.65,7.14a29.25,29.25,0,0,0,2.36-4.09c.86-1.55,1.55-2.68,2.33-4.12,1-1.84,4.29-7.05,4.49-8.35A22.92,22.92,0,0,0,316,286c-.78.63-4.89,8.12-5.59,9.7a2.19,2.19,0,0,1-.81-1.3l-1.53-4.61c-.69-2.1-1.3-4.26-2-6.28-1.44-4.09-2.82-8.7-4.06-12.47l-12.09-37c-.72-2.19-1.35-4.2-2-6.22-.35-1-.66-1.93-1.07-3s-.66-2.19-1-3.14l-4.09-12.47c-.4-1.07-.72-1.9-1.07-3-.17-.63-.37-1.07-.52-1.55s-.29-1.07-.46-1.58c-.43-1.27-.66-1.87-1-3.11a7.5,7.5,0,0,0-1.21-2.88h-4c0,1.87.46,1.7.83,3.17.75,2.79,3.92,12.58,5,15.69.66,2,1.38,4.35,2,6.25l16.15,50.1c1.9,5.87,5.53,16.27,7.05,21.83a26.42,26.42,0,0,1,1,3.4Z" transform="translate(-23.37 -15.6)"/><path d="M138.09,227.09,140,246a16.5,16.5,0,0,0,4.66-.37c.37-1.87-.83-8.58-.89-11.26,1.21.46,4,2.79,5.3,3.71,1.64,1.15,3.66,2.65,5.18,3.74l57.36,41.46c3.54,2.59,9.56,7,13.16,9.36l2.71,2a4.55,4.55,0,0,0,1.9-1,5.74,5.74,0,0,0,1.64-1.24,1.53,1.53,0,0,0-1-1.15l-41-30.09c-7.34-5.44-14.25-10.25-21.22-15.46l-15.92-11.6c-1.73-1.3-3.37-2.3-5.27-3.83,1-.89,10.34-2.22,10.91-2.85s-.69-4.43-.78-4.64c-.66,0-18,3.94-18.69,4.26Z" transform="translate(-23.37 -15.6)"/><path d="M199.22,148.34l1.79,4.29c1.7-.14,8.23-3.66,10.65-4.38,0,1-10.94,34.38-11.83,37-1.76,5.3-4.17,13.45-6,18.31-1.15,3.14-2.39,8.29-3.92,12.38-1.73,4.52-4.52,15.15-5.93,18.63-.4,1-.52,1.9-.92,3-.78,2-.81,3.05-1.18,3.86a4.51,4.51,0,0,0-.37.75c-.17.49-.29,1.3-.4,1.7-1,3.17-1.7,3,.69,4.43a5.23,5.23,0,0,0,1.27.75c.92.23,1.12-1,1.73-2.91,2.07-6.39,5.07-15.84,7.2-21.68,1.58-4.35,2.56-8.18,4.09-12.41l4.09-12.47c1.32-4.12,2.74-8.21,4.06-12.32L214.39,156a48.88,48.88,0,0,1,2.07-6c1.21,1,4.69,8.49,6,9.59,1.27-.2,2.85-1.58,3.92-2.07-.17-1.47-7.92-13.94-9.56-16.56-2.22.37-14.48,6.16-17.59,7.49Z" transform="translate(-23.37 -15.6)"/><path d="M201.75,321c0-2.76,1.18-9.33.72-11.29L198,309.3c-.6,1.21-.83,7.46-1.12,9.44-.2,1.44-.26,3.43-.4,5-.09.92-.09,1.61-.23,2.45a8.34,8.34,0,0,0-.17,1.18c0,.58,0,.83.26,1.07.55.37,17.65,4,18.51,3.92a8.19,8.19,0,0,0,.58-2.16c.83-3.94.49-1.93-9.73-4.66l-.4-.12-.2-.09c-.06,0-.14,0-.2-.09.4-1,3.74-3,4.81-3.77l78-57.07c.23-.17.37-.2.63-.37a23.4,23.4,0,0,0-1.24-4.29c-.69.2-2.71,2-3.86,2.71-2.16,1.41-4.75,3.17-6.74,4.75-1,.81-1.73,1.12-2.68,1.93l-40,28.82c-3.6,2.62-31,22.72-32.13,23Z" transform="translate(-23.37 -15.6)"/><path d="M154,88.14l.32.2,8.58,3.83c.72.32.78.35,1.15.89-4,1.67-14.05,7.72-18,10.62-5.47,4-11.52,8.09-16.47,12.87-2,1.9-2.71,2.42-5,4.84-1.64,1.7-3.28,3.25-4.87,5a14.19,14.19,0,0,0,2.16,3.14l10-8.9c7-5.9,14-11.6,21.94-16.35,2-1.18,10.39-6.39,12.58-6.85-.14,2-2.82,8.49-3.08,10.88a10,10,0,0,0,4.46,1.44c.75-2.76,1.87-6.08,2.76-8.87.49-1.55,2.71-8.38,2.74-9.44-2.33-.92-16.61-7.54-17.53-7.6a17.53,17.53,0,0,0-1.7,4.29Z" transform="translate(-23.37 -15.6)"/><path d="M378.6,312c-.89-1.27-2.82-8.93-3.89-10.45a11.08,11.08,0,0,0-4.35,1.44c.81,2.42,5.5,17.07,6.16,17.94,1.24.09,17.88-3.51,18.63-3.94a11.83,11.83,0,0,0-1-4.41c-1.58-.06-4.12.75-5.73,1-1.79.35-3.8.92-5.5,1.09.2-.89,2.27-4.75,2.79-5.9a182.15,182.15,0,0,0,7.49-18.86l2.07-6.71c1.73-6,4.23-16.5,4.15-22.37-6.54.83-3.2.26-6.13,11.72-1.15,4.49-2.5,10-3.92,14.19-1.7,5-3,8.29-4.84,13-.63,1.64-5.07,11.55-6,12.21Z" transform="translate(-23.37 -15.6)"/><path d="M201.52,395.53c.23,1.3,1.55,3.2,2.25,4.35,9.16,15.09,4.89,13.19,11.14,10.45-.09-1.12-2-4.15-2.62-5.21s-2.62-4.17-2.71-5.36c11.86,1.9,30.69,3.34,43.56,1.64,3.83-.52,7.8-1.15,11.6-1.55-.06-.78-1.7-3.4-2.19-4.15-4.15.32-8.38,1-12.61,1.3-8.21.52-18.63.83-26.78-.26-2.36-.32-10.85-1-12.38-1.79,1.35-1.5,8.09-5.53,8.7-6.88L217,384.5a22.24,22.24,0,0,0-3.94,2.71c-1.81,1.35-10.31,7.66-11.57,8.35Z" transform="translate(-23.37 -15.6)"/><path d="M307.11,95.74a18.27,18.27,0,0,1,3.2,1.53c.55.29.83.52,1.41.86s1.07.49,1.55.75l2.94,1.67c.69.37.63.49,1.32.92.52.32,1,.58,1.44.86l2.82,1.76c2.65,1.9,5.7,3.74,8.12,5.64,1.9,1.5,3.28,2.42,5.21,3.94,2.94,2.36,7.11,5.73,9.93,8.44.52.49,4.23,3.74,4.55,4.75l-11.2.43c-.29,1-.4,3.83.2,4.49.46.49,8.12.12,9.3.09l9.7-.35c.4-1.32,1.76-17.56,1.67-19.09a12.22,12.22,0,0,0-4.64-.37c-.35,2-.78,10.31-1.24,11.29-.37-.14-4.15-3.89-4.92-4.61-1.76-1.61-3.37-3-5.15-4.46A151.29,151.29,0,0,0,320.7,98.42c-1.7-1-11.63-6.62-12.64-6.82l-.92,4.17Z" transform="translate(-23.37 -15.6)"/><path d="M64.81,267.92c.49.89.69.69,1.67,1.61.63.58,1,1.15,1.84,1.38,1.47-1.18,6.65-8,7.57-8.52a1,1,0,0,1,.09.17l.12.35.49,2.71c.12,1,.43,2.48.63,3.43.55,2.3.83,4.72,1.41,6.94,2.45,9.5,4.09,15.66,8.06,24.7.43,1,4.46,10.48,5.27,11.37l3.14-1.84-4.46-11.14c-5.5-13.88-7.23-22.57-9.76-37.2,1.12.26,3.69,2.16,5,3,1,.66,3.86,2.74,4.75,3a19.12,19.12,0,0,0,2.3-3.8c-.75-.72-10.42-7.14-11.81-7.95s-2.65-2.3-4.12-2.65c-.72,1.12-7.72,9.21-9.16,10.8a29.48,29.48,0,0,0-3,3.71Z" transform="translate(-23.37 -15.6)"/><path d="M167.92,282.78l5.27,0,5.47-16.27a25.27,25.27,0,0,0-3.92-3.08c0,.06-.09.06-.12.14l-.86,2.19C172.47,269.62,168.35,280.68,167.92,282.78Z" transform="translate(-23.37 -15.6)"/><path d="M241.06,304.75c.6.75,16.61,12.12,17.36,12.41l1.27-4.55c-.78-.43-13.53-9.3-14.54-10.31Z" transform="translate(-23.37 -15.6)"/><path d="M301.61,248.89a14,14,0,0,0,1.32,4.72c.83-.32,13.68-10.14,14.34-10.68a14.67,14.67,0,0,0-.6-2.27l-.86-2.16c-1.87,1-13.65,9.79-14.17,10.39Z" transform="translate(-23.37 -15.6)"/><path d="M174.17,186.58,173,190.93l18.31-.17a15.66,15.66,0,0,0,1.35-4.58l-18.54.4Z" transform="translate(-23.37 -15.6)"/><path d="M267.95,180.42l4.26.2-5-15.52-4.61-.06c.35,2,1.87,5.59,2.65,7.75C266.19,175.38,267,177.83,267.95,180.42Z" transform="translate(-23.37 -15.6)"/><path class="cls-4" d="M234.12,16.1a59.75,59.75,0,1,1-59.75,59.75A59.75,59.75,0,0,1,234.12,16.1Z" transform="translate(-23.37 -15.6)"/><path class="cls-5" d="M247.82,18l.26.35c.58.58,2.5,1.5,3.94,2.56a29.57,29.57,0,0,1,3.83,3.22c7.92,8.09,11.26,20.41,7.37,31.47-3.71,10.54-11.49,17.19-21.74,20-4.2,1.15-8.47.63-12.76,1.38a30,30,0,0,0-17.62,10.37c-4.43,5.5-7.14,11.83-6.59,21.34.78,14,13.82,26.86,29.14,26.86a59.52,59.52,0,0,0,40.48-15.32c8.52-7.6,17.68-21,19.32-36.6,2.91-27.81-11.26-51.48-34.78-62.11-2.48-1.12-8.29-3.4-10.83-3.51Z" transform="translate(-23.37 -15.6)"/><path id="_1" data-name="1" class="cls-6" d="M247.82,18l.26.35c.58.58,2.5,1.5,3.94,2.56a29.57,29.57,0,0,1,3.83,3.22c7.92,8.09,11.26,20.41,7.37,31.47-3.71,10.54-11.49,17.19-21.74,20-4.2,1.15-8.47.63-12.76,1.38a30,30,0,0,0-17.62,10.37c-4.43,5.5-7.14,11.83-6.59,21.34.78,14,13.82,26.86,29.14,26.86a59.52,59.52,0,0,0,40.48-15.32c8.52-7.6,17.68-21,19.32-36.6,2.91-27.81-11.26-51.48-34.78-62.11-2.48-1.12-8.29-3.4-10.83-3.51Z" transform="translate(-23.37 -15.6)"/><path class="cls-3" d="M192.57,38h4.87a3.44,3.44,0,0,1,2.39.75,2.84,2.84,0,0,1,.81,2.16,3,3,0,0,1-.86,2.25,3.66,3.66,0,0,1-2.62.81h-1.61v3.51H192.6V38Zm2.94,4h.72a1.77,1.77,0,0,0,1.18-.29,1,1,0,0,0,.35-.75,1,1,0,0,0-.29-.75,1.58,1.58,0,0,0-1.12-.32h-.83ZM208,45.87h-3.34l-.46,1.55h-3L204.75,38h3.2l3.57,9.47h-3.05L208,45.87Zm-.6-2-1-3.4-1,3.4h2.07Zm5.1-5.87h5.47a2.94,2.94,0,0,1,2.1.69,2.21,2.21,0,0,1,.75,1.67,2.16,2.16,0,0,1-.52,1.44,2.33,2.33,0,0,1-1,.63,2.61,2.61,0,0,1,1.5.83,2.34,2.34,0,0,1,.49,1.5A2.6,2.6,0,0,1,220.9,46a2.44,2.44,0,0,1-1,.92,3.55,3.55,0,0,1-1.12.32c-.66.09-1.09.14-1.32.14h-5Zm3,3.71h1.27a1.52,1.52,0,0,0,1-.23.89.89,0,0,0,.26-.69.76.76,0,0,0-.26-.63,1.48,1.48,0,0,0-.92-.23h-1.3Zm0,3.71h1.5a1.64,1.64,0,0,0,1.07-.26.94.94,0,0,0,.32-.72.78.78,0,0,0-.32-.66,1.7,1.7,0,0,0-1.07-.26h-1.5v1.9ZM222.77,38h2.94v3.31h3.2V38h2.94v9.47H228.9V43.59h-3.2v3.83h-2.94Zm10.65,4.75a4.79,4.79,0,0,1,1.3-3.6,4.88,4.88,0,0,1,3.6-1.3A5,5,0,0,1,242,39.07a4.73,4.73,0,0,1,1.27,3.54,6.33,6.33,0,0,1-.55,2.74A3.86,3.86,0,0,1,241.08,47a5.26,5.26,0,0,1-2.62.6,6,6,0,0,1-2.65-.52,4.15,4.15,0,0,1-1.7-1.61,5.45,5.45,0,0,1-.66-2.76Zm2.94,0a3.32,3.32,0,0,0,.52,2.07,2,2,0,0,0,2.91,0,3.52,3.52,0,0,0,.52-2.22,2.84,2.84,0,0,0-.55-2,1.83,1.83,0,0,0-1.47-.6,1.72,1.72,0,0,0-1.41.63,3.25,3.25,0,0,0-.55,2.07ZM244.83,38h7.83v2h-4.89v1.5h4.55v1.93h-4.55v1.87h5v2.16h-8ZM206.16,66.08h-2.91V58.94H200v7.14h-2.91V56.61h9.07v9.47Zm10.65,0h-2.94V58.94h-2.3v2.91a11.94,11.94,0,0,1-.2,2.65,1.75,1.75,0,0,1-.89,1.24,4.85,4.85,0,0,1-2.27.4,5.24,5.24,0,0,1-1.09-.12V64.09h.43a1.07,1.07,0,0,0,.83-.26,1.34,1.34,0,0,0,.26-1V56.61h8.15v9.47Zm1.93-9.47h7.83v2h-4.89v1.5h4.55v1.93h-4.55v1.87h5v2.16h-8ZM237,66.08h-2.94V62.57a5.4,5.4,0,0,1-2.56.75,3.43,3.43,0,0,1-2.39-.86,3,3,0,0,1-.92-2.36V56.61h2.94v2.91a1.68,1.68,0,0,0,.32,1.07,1.2,1.2,0,0,0,1,.37,1.94,1.94,0,0,0,1.67-.69V56.61H237Zm1.55-4.72a4.79,4.79,0,0,1,1.3-3.6,4.88,4.88,0,0,1,3.6-1.3,5,5,0,0,1,3.66,1.27,4.73,4.73,0,0,1,1.27,3.54,6.33,6.33,0,0,1-.55,2.74,3.86,3.86,0,0,1-1.61,1.64,5.26,5.26,0,0,1-2.62.6,6,6,0,0,1-2.65-.52,4.15,4.15,0,0,1-1.7-1.61,5.45,5.45,0,0,1-.66-2.76Zm2.94,0a3.32,3.32,0,0,0,.52,2.07,2,2,0,0,0,2.91,0,3.52,3.52,0,0,0,.52-2.22,2.84,2.84,0,0,0-.55-2,1.83,1.83,0,0,0-1.47-.6,1.72,1.72,0,0,0-1.41.63,3.25,3.25,0,0,0-.55,2.07Z" transform="translate(-23.37 -15.6)"/><path d="M221.39,86.09H218v6.42h-2.19V84h5.61Zm1-2.07H226a2.22,2.22,0,0,1,1.79.69,2.82,2.82,0,0,1,.6,1.93,2.92,2.92,0,0,1-.63,2,2.51,2.51,0,0,1-2,.72h-1.21v3.14h-2.22Zm2.22,3.63h.55a1.22,1.22,0,0,0,.89-.26.91.91,0,0,0,.26-.66,1.17,1.17,0,0,0-.23-.69,1.07,1.07,0,0,0-.83-.29h-.63Zm9.33,3.48h-2.5l-.35,1.41h-2.25L231.5,84h2.39l2.68,8.49h-2.3Zm-.46-1.84-.78-3.05-.78,3.05Zm6-2h1.18A3.53,3.53,0,0,1,243,88a2.66,2.66,0,0,1,.78,2.1,2.28,2.28,0,0,1-.72,1.81,3.1,3.1,0,0,1-2,.63h-3.77V84h6v1.73h-3.8V87.3Zm0,3.4h1.12c.69,0,1-.29,1-.89s-.35-.78-1-.78h-1.12ZM251.79,84v8.49h-2.07V87.85l-2.65,4.66H245V84h2.07v4.69L249.75,84Zm1,0h6.68v2.1h-2.25v6.39H255V86.12h-2.25Zm7.66,0h5.87v1.81h-3.69v1.35H266v1.73h-3.43v1.67h3.8v1.93h-6Zm13.71,8.49h-2.19V86.09h-1.73v2.62a14.9,14.9,0,0,1-.14,2.36,1.66,1.66,0,0,1-.66,1.12,3.19,3.19,0,0,1-1.7.35,4.83,4.83,0,0,1-.83-.09V90.73h.32a.8.8,0,0,0,.63-.23,1.49,1.49,0,0,0,.17-.86V84h6.1v8.49Zm3.66-5.21H279a3.53,3.53,0,0,1,2.39.69,2.66,2.66,0,0,1,.78,2.1,2.28,2.28,0,0,1-.72,1.81,3.1,3.1,0,0,1-2,.63h-3.77V84h2.19V87.3Zm0,3.4h1.12c.69,0,1-.29,1-.89s-.35-.78-1-.78h-1.12ZM218,104h1.18a3.53,3.53,0,0,1,2.39.69,2.66,2.66,0,0,1,.78,2.1,2.28,2.28,0,0,1-.72,1.81,3.1,3.1,0,0,1-2,.63H215.8v-8.49h6v1.73H218V104Zm0,3.4h1.12c.69,0,1-.29,1-.89s-.35-.78-1-.78H218Zm5.24-2.42a4.75,4.75,0,0,1,1-3.22,3.79,3.79,0,0,1,5.44,0,4.81,4.81,0,0,1,1,3.2,6,6,0,0,1-.43,2.45,3.67,3.67,0,0,1-1.21,1.5,3.51,3.51,0,0,1-2,.52,3.76,3.76,0,0,1-2-.46,3.29,3.29,0,0,1-1.27-1.44,5.75,5.75,0,0,1-.49-2.48Zm2.19,0a3.29,3.29,0,0,0,.4,1.84,1.28,1.28,0,0,0,1.09.58,1.25,1.25,0,0,0,1.09-.55,3.7,3.7,0,0,0,.37-2,3.1,3.1,0,0,0-.4-1.76,1.25,1.25,0,0,0-1.09-.55,1.2,1.2,0,0,0-1.07.58,3.4,3.4,0,0,0-.4,1.87Zm12-2.19H234v6.42h-2.19v-8.49h5.61Zm5.36,5h-2.5l-.35,1.41h-2.25l2.68-8.49h2.39l2.68,8.49h-2.3Zm-.46-1.84-.78-3.05-.78,3.05Zm3.31-5.24h6.68v2.1H250v6.39h-2.19v-6.39H245.6Zm12.38,5,1.93.69a4.83,4.83,0,0,1-.6,1.61,3,3,0,0,1-1,1,3.24,3.24,0,0,1-1.58.32,4,4,0,0,1-1.9-.4,3.23,3.23,0,0,1-1.27-1.41A5.6,5.6,0,0,1,253,105a5,5,0,0,1,1-3.25,3.26,3.26,0,0,1,2.65-1.12,3,3,0,0,1,2.1.66,3.92,3.92,0,0,1,1.15,2l-1.93.52a2.55,2.55,0,0,0-.2-.58,1.18,1.18,0,0,0-.46-.46,1.06,1.06,0,0,0-.6-.17,1.24,1.24,0,0,0-1.15.72,3.54,3.54,0,0,0-.29,1.67,3.74,3.74,0,0,0,.35,1.93,1.15,1.15,0,0,0,1,.52,1.08,1.08,0,0,0,1-.43,2.93,2.93,0,0,0,.46-1.24Zm2.5-5h6.68v2.1h-2.25v6.39h-2.19v-6.39h-2.25Zm7.66,0h4.12a2,2,0,0,1,1.58.6,2.14,2.14,0,0,1,.55,1.5,2.23,2.23,0,0,1-.4,1.3,1.84,1.84,0,0,1-.78.58,1.91,1.91,0,0,1,1.12.75,2.42,2.42,0,0,1,.37,1.35,2.63,2.63,0,0,1-.26,1.18,2.2,2.2,0,0,1-.69.83,2.14,2.14,0,0,1-.83.29,6.63,6.63,0,0,1-1,.12h-3.8Zm2.22,3.34h1a1,1,0,0,0,.72-.2.81.81,0,0,0,.2-.6.74.74,0,0,0-.2-.58,1,1,0,0,0-.69-.2h-1v1.58Zm0,3.34h1.12a1.22,1.22,0,0,0,.81-.23,1,1,0,0,0,.23-.63.82.82,0,0,0-.23-.6,1.17,1.17,0,0,0-.81-.23h-1.12v1.7Zm9.88.43h-2.5l-.35,1.41h-2.25l2.68-8.49h2.39l2.68,8.49h-2.3Zm-.46-1.84L279,103l-.78,3.05Z" transform="translate(-23.37 -15.6)"/><path class="cls-5" d="M83.61,130.61a59.75,59.75,0,1,1-59.75,59.75A59.75,59.75,0,0,1,83.61,130.61Z" transform="translate(-23.37 -15.6)"/><path class="cls-5" d="M97.35,132.54l.26.35c.58.58,2.5,1.5,3.94,2.56a29.57,29.57,0,0,1,3.83,3.22c7.92,8.09,11.26,20.41,7.37,31.47-3.71,10.54-11.49,17.19-21.74,20-4.2,1.15-8.47.63-12.76,1.38A30,30,0,0,0,60.64,201.9c-4.43,5.5-7.14,11.83-6.59,21.34.78,14,13.82,26.86,29.14,26.86a59.52,59.52,0,0,0,40.48-15.32c8.52-7.6,17.68-21,19.32-36.6,2.91-27.81-11.26-51.48-34.78-62.11-2.48-1.12-8.29-3.4-10.83-3.51Z" transform="translate(-23.37 -15.6)"/><path id="_1-2" data-name="1" class="cls-6" d="M97.35,132.54l.26.35c.58.58,2.5,1.5,3.94,2.56a29.57,29.57,0,0,1,3.83,3.22c7.92,8.09,11.26,20.41,7.37,31.47-3.71,10.54-11.49,17.19-21.74,20-4.2,1.15-8.47.63-12.76,1.38A30,30,0,0,0,60.64,201.9c-4.43,5.5-7.14,11.83-6.59,21.34.78,14,13.82,26.86,29.14,26.86a59.52,59.52,0,0,0,40.48-15.32c8.52-7.6,17.68-21,19.32-36.6,2.91-27.81-11.26-51.48-34.78-62.11-2.48-1.12-8.29-3.4-10.83-3.51Z" transform="translate(-23.37 -15.6)"/><path class="cls-3" d="M51.77,160.72H48.29l-1.21-2.59a5.24,5.24,0,0,0-.66-1.15,1,1,0,0,0-.66-.23v4H42.67v-10h3.08v3.86a.83.83,0,0,0,.63-.29,7.37,7.37,0,0,0,.69-1.53,4.82,4.82,0,0,1,.69-1.35,2.17,2.17,0,0,1,1.15-.58,13,13,0,0,1,2.5-.17v2.13h-.14a1.93,1.93,0,0,0-1.18.29,2.14,2.14,0,0,0-.63,1,4,4,0,0,1-.52,1,1.85,1.85,0,0,1-.78.52,3,3,0,0,1,1.18.75A6.71,6.71,0,0,1,50.42,158Zm.72-5a5.26,5.26,0,0,1,1.35-3.83,5.12,5.12,0,0,1,3.8-1.35,5.24,5.24,0,0,1,3.86,1.35,5.12,5.12,0,0,1,1.35,3.77,6,6,0,0,1-.6,2.88,4.34,4.34,0,0,1-1.7,1.76,5.49,5.49,0,0,1-2.79.63,6.11,6.11,0,0,1-2.79-.55,4.28,4.28,0,0,1-1.81-1.7,5.68,5.68,0,0,1-.69-2.94Zm3.11,0a3.26,3.26,0,0,0,.58,2.19,2.12,2.12,0,0,0,3.08,0,3.64,3.64,0,0,0,.55-2.33,3.13,3.13,0,0,0-.58-2.07,2,2,0,0,0-1.55-.66,1.88,1.88,0,0,0-1.5.66,3.38,3.38,0,0,0-.58,2.19Zm15.63.89,2.71.83a4.81,4.81,0,0,1-.86,1.9,3.8,3.8,0,0,1-1.47,1.15,5.45,5.45,0,0,1-2.22.4,7,7,0,0,1-2.68-.46,4.1,4.1,0,0,1-1.79-1.67,5.77,5.77,0,0,1-.75-3.05,5.16,5.16,0,0,1,1.32-3.83,5,5,0,0,1,3.74-1.32,5,5,0,0,1,3,.78,4.51,4.51,0,0,1,1.61,2.36l-2.74.6a2.47,2.47,0,0,0-.29-.66,1.65,1.65,0,0,0-.63-.55,2,2,0,0,0-.83-.2,1.86,1.86,0,0,0-1.61.83,3.57,3.57,0,0,0-.43,2,3.61,3.61,0,0,0,.52,2.27,1.75,1.75,0,0,0,1.41.6,1.81,1.81,0,0,0,1.35-.49,3,3,0,0,0,.66-1.44Zm10.39,2.45H78.09l-.49,1.64H74.43l3.77-10h3.37l3.77,10H82.09l-.49-1.64ZM81,156.89l-1.09-3.6-1.09,3.6H81Zm14.22,3.83v-10H90a7.06,7.06,0,0,0-2.19.26,2.33,2.33,0,0,0-1.24.92,2.67,2.67,0,0,0-.46,1.61,2.64,2.64,0,0,0,1.32,2.42,3.64,3.64,0,0,0,1.09.4,3,3,0,0,0-.81.37,2.93,2.93,0,0,0-.49.52,2.44,2.44,0,0,0-.43.63l-1.5,2.91h3.51l1.64-3.05a2.06,2.06,0,0,1,.58-.78,1.43,1.43,0,0,1,.75-.23h.26v4.06h3.11Zm-3.11-6h-1.3a5.32,5.32,0,0,1-.81-.14.83.83,0,0,1-.52-.32,1.07,1.07,0,0,1-.2-.58,1,1,0,0,1,.32-.75,1.88,1.88,0,0,1,1.15-.26h1.35ZM47.13,180.48H44.05V172.9h-3.4v7.57H37.57v-10h9.59v10Zm2-10h8.29v2.13H52.29v1.58H57.1v2H52.29v2h5.36v2.27H49.21v-10Zm19.32,10H65.39v-3.71a5.64,5.64,0,0,1-2.71.78,3.64,3.64,0,0,1-2.53-.89,3.19,3.19,0,0,1-1-2.48v-3.69h3.11v3.08a1.64,1.64,0,0,0,.35,1.12,1.3,1.3,0,0,0,1,.4,2,2,0,0,0,1.76-.72v-3.89H68.5v10Zm8.21-1.64H73.16l-.49,1.64H69.51l3.77-10h3.37l3.77,10H77.17l-.49-1.64ZM76,176.68l-1.09-3.6-1.09,3.6H76Zm4.66-6.19h9.42V173H87v7.54H83.85V173H80.68v-2.48Zm13.91,3.86h1.64a5.59,5.59,0,0,1,3.37.81,2.92,2.92,0,0,1,1.09,2.5,2.51,2.51,0,0,1-1,2.13,4.83,4.83,0,0,1-2.88.75H91.5v-10h3.08v3.86Zm0,4H96.2c1,0,1.47-.35,1.47-1.07s-.49-.92-1.47-.92H94.61Z" transform="translate(-23.37 -15.6)"/><path d="M79.3,207.8h-3v-7.23H73.08v7.23h-3v-9.59h9.16v9.59Zm2-9.59h4.92a3.39,3.39,0,0,1,2.42.78,2.85,2.85,0,0,1,.81,2.19,3,3,0,0,1-.86,2.27,3.77,3.77,0,0,1-2.68.81H84.25v3.57h-3v-9.59Zm3,4.09h.72a1.86,1.86,0,0,0,1.21-.29,1,1,0,0,0,.35-.75,1.14,1.14,0,0,0-.29-.78,1.58,1.58,0,0,0-1.12-.32h-.83v2.13Zm15.17,5.5v-9.59H94.47a7.71,7.71,0,0,0-2.1.23,2.35,2.35,0,0,0-1.18.86,2.74,2.74,0,0,0-.43,1.55,2.66,2.66,0,0,0,.35,1.38,3.22,3.22,0,0,0,.92,1,3.58,3.58,0,0,0,1,.37,3.39,3.39,0,0,0-.78.35,4.08,4.08,0,0,0-.46.49,3.06,3.06,0,0,0-.4.6L90,207.77h3.34l1.58-2.94a2.16,2.16,0,0,1,.55-.75,1.26,1.26,0,0,1,.72-.23h.26v3.89h3Zm-3-5.7H95.19a3.78,3.78,0,0,1-.78-.12.86.86,0,0,1-.49-.29,1,1,0,0,1-.17-.55.88.88,0,0,1,.29-.72,1.74,1.74,0,0,1,1.09-.26h1.3v1.93Zm4.92-3.89h3.89l1.5,5.84,1.5-5.84h3.89v9.59H109.7v-7.31l-1.87,7.31h-2.19l-1.87-7.31v7.31h-2.42Zm18.57,8h-3.37l-.46,1.58h-3l3.6-9.59h3.22l3.6,9.59h-3.11Zm-.63-2.07-1.07-3.46-1.07,3.46h2.13Zm13.62,3.66v-9.59H128a7.71,7.71,0,0,0-2.1.23,2.35,2.35,0,0,0-1.18.86,2.74,2.74,0,0,0-.43,1.55,2.66,2.66,0,0,0,.35,1.38,3.22,3.22,0,0,0,.92,1,3.58,3.58,0,0,0,1,.37,3.39,3.39,0,0,0-.78.35,4.08,4.08,0,0,0-.46.49,3.06,3.06,0,0,0-.4.6l-1.44,2.76h3.34l1.58-2.94a2.16,2.16,0,0,1,.55-.75,1.26,1.26,0,0,1,.72-.23h.26v3.89h3Zm-3-5.7H128.7a3.78,3.78,0,0,1-.78-.12.86.86,0,0,1-.49-.29,1,1,0,0,1-.17-.55.88.88,0,0,1,.29-.72,1.74,1.74,0,0,1,1.09-.26h1.3v1.93ZM79.3,226.69h-3v-7.23H73.08v7.23h-3V217.1h9.16v9.59Zm2-9.59H89.2v2h-5v1.53h4.61v2H84.22v1.9h5.13v2.16H81.25Zm18.49,9.59h-3v-3.57a5.5,5.5,0,0,1-2.59.75,3.46,3.46,0,0,1-2.42-.86,3.08,3.08,0,0,1-1-2.39v-3.54h3V220a1.61,1.61,0,0,0,.35,1.09,1.2,1.2,0,0,0,1,.37,2,2,0,0,0,1.7-.69v-3.71h3v9.62Zm7.86-1.58h-3.37l-.46,1.58h-3l3.6-9.59h3.22l3.6,9.59h-3.11ZM107,223l-1.07-3.46L104.84,223H107Zm4.46-5.93h9v2.36h-3v7.23h-3v-7.23h-3Zm13.3,3.69h1.58a5.43,5.43,0,0,1,3.22.78,2.79,2.79,0,0,1,1.07,2.39,2.41,2.41,0,0,1-1,2,4.66,4.66,0,0,1-2.76.69h-5.1V217.1h3v3.69Zm0,3.83h1.53c.92,0,1.38-.35,1.38-1s-.46-.89-1.38-.89h-1.53Z" transform="translate(-23.37 -15.6)"/><path class="cls-5" d="M386.46,131a59.75,59.75,0,1,1-59.75,59.75A59.75,59.75,0,0,1,386.46,131Z" transform="translate(-23.37 -15.6)"/><path class="cls-5" d="M400.17,132.91l.26.35c.58.58,2.5,1.5,3.94,2.56A29.57,29.57,0,0,1,408.2,139c7.92,8.09,11.26,20.41,7.37,31.47-3.71,10.54-11.49,17.19-21.74,20-4.2,1.15-8.47.63-12.76,1.38a30,30,0,0,0-17.62,10.37c-4.43,5.5-7.14,11.83-6.59,21.34.78,14,13.82,26.86,29.14,26.86a59.52,59.52,0,0,0,40.48-15.32c8.52-7.6,17.68-21,19.32-36.6,2.91-27.81-11.26-51.48-34.78-62.11-2.48-1.12-8.29-3.4-10.83-3.51Z" transform="translate(-23.37 -15.6)"/><path id="_1-3" data-name="1" class="cls-6" d="M400.17,132.91l.26.35c.58.58,2.5,1.5,3.94,2.56A29.57,29.57,0,0,1,408.2,139c7.92,8.09,11.26,20.41,7.37,31.47-3.71,10.54-11.49,17.19-21.74,20-4.2,1.15-8.47.63-12.76,1.38a30,30,0,0,0-17.62,10.37c-4.43,5.5-7.14,11.83-6.59,21.34.78,14,13.82,26.86,29.14,26.86a59.52,59.52,0,0,0,40.48-15.32c8.52-7.6,17.68-21,19.32-36.6,2.91-27.81-11.26-51.48-34.78-62.11-2.48-1.12-8.29-3.4-10.83-3.51Z" transform="translate(-23.37 -15.6)"/><path class="cls-3" d="M365.84,161.59H363v-2.48h-7.26v2.48h-2.82v-5.1h1.18a18.31,18.31,0,0,0,1-6.22v-2.53h9.53v8.75h1.24v5.1Zm-4.75-5.1v-6h-2.82v.14a25.76,25.76,0,0,1-.81,5.82Zm5-8.75H370l1.58,4.69,1.55-4.69h3.57l-3.74,8.78a11.08,11.08,0,0,1-.81,1.58,2.72,2.72,0,0,1-1,.86,4.12,4.12,0,0,1-1.84.35c-.4,0-1.12-.06-2.13-.17v-2.36q.91.09,1.3.09c.81,0,1.3-.29,1.47-.89Zm11,0H381l2,3.48,2-3.48h3.83l-3.54,5.5,3.86,5.87h-3.94l-2.25-3.66-2.25,3.66h-3.92l3.92-5.93-3.57-5.44Zm-23,33.77h-3.51v-8.58H346.7v8.58h-3.51V170.14h10.88Zm13.22-11.37v11.37H364v-6.25l-4.26,6.25H356.4V170.14h3.31v6.28l4.29-6.28ZM386.17,184h-2.82v-2.48H369.67V170.14h3.51v8.58h2.36v-8.58h3.51v8.58h2.39v-8.58H385v8.75h1.21Zm12.44-13.85v11.37H395.3v-6.25L391,181.51h-3.31V170.14H391v6.28l4.29-6.28Z" transform="translate(-23.37 -15.6)"/><path d="M370.65,202.33h3.74a2.71,2.71,0,0,1,1.84.58,2.17,2.17,0,0,1,.6,1.64,2.25,2.25,0,0,1-.66,1.73,2.91,2.91,0,0,1-2,.63h-1.24v2.71h-2.25v-7.28Zm2.25,3.11h.55a1.48,1.48,0,0,0,.92-.23.72.72,0,0,0,.26-.58.8.8,0,0,0-.23-.58c-.14-.17-.43-.23-.86-.23h-.63Zm9.56,3h-2.56l-.35,1.21h-2.3l2.74-7.28h2.45l2.74,7.28H382.8Zm-.46-1.58-.81-2.62-.81,2.62Zm3.92-4.49h2.25v2.53h2.45v-2.53h2.25v7.28h-2.25v-2.94h-2.45v2.94h-2.25Zm8.47,0h6v1.55h-3.77V205h3.51v1.5h-3.51V208h3.89v1.64h-6.13Zm7.37,0H404v2.53h2.45v-2.53h2.25v7.28h-2.25v-2.94H404v2.94h-2.25Zm15.43,0v7.28h-2.1v-4l-2.74,4h-2.13v-7.28h2.13v4l2.74-4Zm1.5,0h6v1.55h-3.77V205h3.51v1.5h-3.51V208h3.89v1.64h-6.13ZM368.15,224H365.9v-2.71a4.19,4.19,0,0,1-2,.58,2.68,2.68,0,0,1-1.84-.66,2.28,2.28,0,0,1-.72-1.81v-2.68h2.25v2.25a1.13,1.13,0,0,0,.26.81.88.88,0,0,0,.72.29,1.59,1.59,0,0,0,1.3-.52v-2.82h2.25Zm8.47-7.28V224h-2.1v-4l-2.74,4h-2.13v-7.28h2.13v4l2.74-4Zm1.53,0h2.25v2.53h2.45v-2.53h2.25V224h-2.25V221h-2.45V224h-2.25Zm8.18,3.66a4,4,0,0,1,6.56-2.76,3.66,3.66,0,0,1,1,2.74,4.47,4.47,0,0,1-.43,2.1,2.92,2.92,0,0,1-1.24,1.27,3.94,3.94,0,0,1-2,.46,4.79,4.79,0,0,1-2-.4,2.83,2.83,0,0,1-1.3-1.24,4,4,0,0,1-.49-2.13Zm2.25,0a2.49,2.49,0,0,0,.4,1.58,1.38,1.38,0,0,0,1.12.49,1.36,1.36,0,0,0,1.12-.46,2.77,2.77,0,0,0,.4-1.7,2.33,2.33,0,0,0-.4-1.5,1.44,1.44,0,0,0-1.12-.46,1.4,1.4,0,0,0-1.09.49,2.38,2.38,0,0,0-.4,1.58Zm6.51-3.66h4.2a2.31,2.31,0,0,1,1.61.52,1.7,1.7,0,0,1,.58,1.3,1.6,1.6,0,0,1-.4,1.09,1.72,1.72,0,0,1-.78.49,2.12,2.12,0,0,1,1.15.63,1.73,1.73,0,0,1,.37,1.15,2,2,0,0,1-.26,1,1.92,1.92,0,0,1-.72.72,2,2,0,0,1-.86.23c-.52.06-.83.09-1,.09h-3.89v-7.23Zm2.27,2.85h1a1.09,1.09,0,0,0,.72-.17.62.62,0,0,0,.2-.52.59.59,0,0,0-.2-.49,1.15,1.15,0,0,0-.72-.17h-1v1.35Zm0,2.85h1.15a1.18,1.18,0,0,0,.81-.2.65.65,0,0,0,.23-.55.72.72,0,0,0-.23-.52,1.22,1.22,0,0,0-.83-.2h-1.15v1.47Zm5.64-5.73h2.25v2.53h2.45v-2.53h2.25v7.28h-2.25V221h-2.45v2.94H403Zm15.43,0v7.28h-2.1v-4l-2.74,4h-2.13v-7.28h2.13v4l2.74-4Zm8.12,7.28H424l-.86-1.87a3.44,3.44,0,0,0-.49-.83.68.68,0,0,0-.49-.17v2.88h-2.25v-7.28h2.25v2.79a.63.63,0,0,0,.46-.2,4.1,4.1,0,0,0,.52-1.12,3.32,3.32,0,0,1,.52-1,1.53,1.53,0,0,1,.83-.43,9.42,9.42,0,0,1,1.81-.12v1.53h-.12a1.47,1.47,0,0,0-.86.23,1.56,1.56,0,0,0-.46.72,2.71,2.71,0,0,1-.37.72,1.19,1.19,0,0,1-.58.37,2,2,0,0,1,.83.55,6.31,6.31,0,0,1,.78,1.21l1,2Zm5.27-1.21h-2.56l-.35,1.21h-2.3l2.74-7.28h2.45l2.74,7.28h-2.36Zm-.46-1.58-.81-2.62-.81,2.62Z" transform="translate(-23.37 -15.6)"/><path class="cls-5" d="M141.92,308.2a59.75,59.75,0,1,1-59.75,59.75A59.75,59.75,0,0,1,141.92,308.2Z" transform="translate(-23.37 -15.6)"/><path class="cls-5" d="M155.63,310.13l.26.35c.58.58,2.5,1.5,3.94,2.56a29.57,29.57,0,0,1,3.83,3.22c7.92,8.09,11.26,20.41,7.37,31.47-3.71,10.54-11.49,17.19-21.74,20-4.2,1.15-8.47.63-12.76,1.38a30,30,0,0,0-17.62,10.37c-4.43,5.5-7.14,11.83-6.59,21.34.78,14,13.82,26.86,29.14,26.86a59.52,59.52,0,0,0,40.48-15.32c8.52-7.6,17.68-21,19.32-36.6C204.17,348,190,324.3,166.48,313.67c-2.48-1.12-8.29-3.4-10.83-3.51Z" transform="translate(-23.37 -15.6)"/><path id="_1-4" data-name="1" class="cls-6" d="M155.63,310.13l.26.35c.58.58,2.5,1.5,3.94,2.56a29.57,29.57,0,0,1,3.83,3.22c7.92,8.09,11.26,20.41,7.37,31.47-3.71,10.54-11.49,17.19-21.74,20-4.2,1.15-8.47.63-12.76,1.38a30,30,0,0,0-17.62,10.37c-4.43,5.5-7.14,11.83-6.59,21.34.78,14,13.82,26.86,29.14,26.86a59.52,59.52,0,0,0,40.48-15.32c8.52-7.6,17.68-21,19.32-36.6C204.17,348,190,324.3,166.48,313.67c-2.48-1.12-8.29-3.4-10.83-3.51Z" transform="translate(-23.37 -15.6)"/><path class="cls-3" d="M95.36,334.35h2.39l1,2.94,1-2.94H102l-2.33,5.5c-.2.43-.35.78-.49,1a1.49,1.49,0,0,1-.63.55,2.58,2.58,0,0,1-1.15.2,10.49,10.49,0,0,1-1.32-.12V340c.37,0,.63.06.81.06a.84.84,0,0,0,.92-.58l-2.36-5.15Zm9.56,2.74h1.18a4.11,4.11,0,0,1,2.39.58,2.06,2.06,0,0,1,.78,1.79,1.7,1.7,0,0,1-.72,1.5,3.46,3.46,0,0,1-2,.52h-3.77v-7.11h6v1.44h-3.8Zm0,2.85H106c.69,0,1-.26,1-.75s-.35-.66-1-.66h-1.12Zm12.35-5.59v7.11H115.2v-3.92l-2.68,3.92h-2.07v-7.11h2.07v3.94l2.68-3.94h2.07Zm8.29,0v7.11h-2.07v-3.92l-2.68,3.92h-2.07v-7.11h2.07v3.94l2.68-3.94h2.07ZM124,332.59a1.44,1.44,0,0,1-.58,1,1.79,1.79,0,0,1-1.15.37,1.73,1.73,0,0,1-1.15-.37,1.51,1.51,0,0,1-.58-1h.83a1,1,0,0,0,1.81,0H124ZM134.64,343h-1.76v-1.55h-5.82v-7.11h2.19v5.38h2.42v-5.38h2.19v5.47h.78Zm5.36-2.74h-2.5l-.35,1.18H134.9l2.68-7.11H140l2.68,7.11h-2.3Zm-.46-1.53-.78-2.56-.78,2.56h1.55Zm7.14-4.41h2.19v2.5h2.42v-2.5h2.22v7.11h-2.22v-2.88h-2.42v2.88h-2.19Zm12.67,5.93h-2.5l-.35,1.18h-2.25l2.68-7.11h2.39l2.68,7.11h-2.3Zm-.46-1.53-.78-2.56-.78,2.56h1.55Zm-67.32,9.62h5.79v1.32a8.58,8.58,0,0,0-1.27,1.47,9.63,9.63,0,0,0-1,2.13,10.45,10.45,0,0,0-.37,2.16h-2a12.17,12.17,0,0,1,.72-2.94A11.59,11.59,0,0,1,95,350H91.53v-1.67Zm13.73,0v7.11h-2.07v-3.92l-2.68,3.92H98.47v-7.11h2.07v3.94l2.68-3.94h2.07Zm-1.61-1.76a1.44,1.44,0,0,1-.58,1A1.79,1.79,0,0,1,102,348a1.73,1.73,0,0,1-1.15-.37,1.51,1.51,0,0,1-.58-1h.83a1,1,0,0,0,1.81,0h.81Zm13.22,8.87h-2.19V350.1h-2.42v5.38H110.1v-7.11h6.82v7.11Zm1.18-3.54a3.59,3.59,0,0,1,1-2.71,3.63,3.63,0,0,1,2.71-1,3.72,3.72,0,0,1,2.74,1,3.62,3.62,0,0,1,1,2.68,4.22,4.22,0,0,1-.43,2,3.13,3.13,0,0,1-1.21,1.24,4.06,4.06,0,0,1-2,.43,4.45,4.45,0,0,1-2-.37,3,3,0,0,1-1.27-1.21A4.09,4.09,0,0,1,118.08,351.94Zm2.19,0a2.46,2.46,0,0,0,.4,1.55,1.53,1.53,0,0,0,2.19,0,2.67,2.67,0,0,0,.4-1.67,2.29,2.29,0,0,0-.4-1.47,1.34,1.34,0,0,0-1.09-.46,1.32,1.32,0,0,0-1.07.46,2.46,2.46,0,0,0-.4,1.55Zm10.83-.32a1.55,1.55,0,0,1,1.3,1.61,2.06,2.06,0,0,1-.81,1.7,3.57,3.57,0,0,1-2.27.66,2.85,2.85,0,0,1-3.11-2.1l2.07-.14a.93.93,0,0,0,1,.75,1,1,0,0,0,.69-.23.9.9,0,0,0,.23-.63.74.74,0,0,0-.29-.63,1.18,1.18,0,0,0-.81-.26h-.6v-1.27H129a1,1,0,0,0,.66-.23.73.73,0,0,0,.23-.6c0-.37-.23-.58-.72-.58a.78.78,0,0,0-.86.66l-2-.23c.32-1.24,1.27-1.84,2.88-1.84a3.56,3.56,0,0,1,2.07.52,1.63,1.63,0,0,1,.75,1.38A1.52,1.52,0,0,1,131.09,351.62Zm9.18-3.25v7.11h-2.07v-3.92l-2.68,3.92h-2.07v-7.11h2.07v3.94l2.68-3.94h2.07Zm9.07,8.67h-1.76v-1.55h-5.82v-7.11H144v5.38h2.42v-5.38h2.19v5.47h.78Zm7.77-8.67v7.11h-2.07v-3.92l-2.68,3.92H150.3v-7.11h2.07v3.94l2.68-3.94h2.07Zm8.29,0v7.11h-2.07v-3.92l-2.68,3.92h-2.07v-7.11h2.07v3.94l2.68-3.94h2.07Z" transform="translate(-23.37 -15.6)"/><path d="M126,391.3h-2.16v-7.37h-2.36v7.37h-2.16v-9.76H126v9.76Zm1.44-9.76H131a2.08,2.08,0,0,1,1.76.78,3.76,3.76,0,0,1,.58,2.22,3.65,3.65,0,0,1-.63,2.3,2.3,2.3,0,0,1-1.93.83H129.6v3.63h-2.16Zm2.16,4.17h.52a1,1,0,0,0,.86-.32,1.15,1.15,0,0,0,.26-.78,1.31,1.31,0,0,0-.23-.78,1,1,0,0,0-.83-.32h-.6v2.19Zm9.16,4h-2.45l-.35,1.61h-2.19l2.62-9.76h2.36l2.62,9.76h-2.25l-.35-1.61Zm-.46-2.1-.78-3.51-.78,3.51h1.55Zm3.74-6h4a1.89,1.89,0,0,1,1.55.69,2.64,2.64,0,0,1,.55,1.73,2.82,2.82,0,0,1-.37,1.5,1.87,1.87,0,0,1-.75.66,2,2,0,0,1,1.09.86,3.11,3.11,0,0,1,.35,1.55,3.34,3.34,0,0,1-.26,1.35,2.39,2.39,0,0,1-.69,1,1.75,1.75,0,0,1-.81.32,7.79,7.79,0,0,1-1,.14H142Zm2.16,3.83h1a.86.86,0,0,0,.69-.23,1,1,0,0,0,.2-.69.91.91,0,0,0-.2-.66.84.84,0,0,0-.69-.23h-1v1.81Zm0,3.83h1.09a.89.89,0,0,0,.78-.29,1.16,1.16,0,0,0,.23-.75,1.05,1.05,0,0,0-.23-.69,1,1,0,0,0-.78-.26H144.2Zm12.06-7.66v9.76h-2V386l-2.62,5.36h-2v-9.76h2V387l2.62-5.41Zm7.83,9.76h-2.16V384h-1.67v3a20.32,20.32,0,0,1-.14,2.74,1.87,1.87,0,0,1-.66,1.27,2.79,2.79,0,0,1-1.67.4,2.86,2.86,0,0,1-.81-.12v-2h.32a.67.67,0,0,0,.6-.26,2,2,0,0,0,.17-1v-6.45h6v9.76Zm3.57-6h1.15a3.2,3.2,0,0,1,2.36.78,3.3,3.3,0,0,1,.78,2.42,2.91,2.91,0,0,1-.69,2.07,2.62,2.62,0,0,1-2,.72h-3.69v-9.76h2.16v3.77Zm0,3.92h1.09a.91.91,0,0,0,1-1c0-.6-.35-.89-1-.89h-1.09ZM173,381.6h2.16V385h2.36V381.6h2.16v9.76h-2.16v-3.94h-2.36v3.94H173Zm12.38,8.15H183l-.35,1.61h-2.19l2.62-9.76h2.36l2.62,9.76H185.8l-.35-1.61Zm-.46-2.1-.78-3.51-.78,3.51H185Zm9.9,3.71V381.6h-3.6a4.14,4.14,0,0,0-1.53.23,2,2,0,0,0-.86.89,3.69,3.69,0,0,0-.32,1.58,3.53,3.53,0,0,0,.26,1.41,2.39,2.39,0,0,0,.69,1,2,2,0,0,0,.75.37,1.4,1.4,0,0,0-.55.37,2.59,2.59,0,0,0-.35.52,2.67,2.67,0,0,0-.29.6l-1,2.82h2.42l1.15-3a2.38,2.38,0,0,1,.4-.75.72.72,0,0,1,.52-.23h.2v4h2.13Zm-2.16-5.82h-.92a1.73,1.73,0,0,1-.58-.14.53.53,0,0,1-.35-.32,1.22,1.22,0,0,1-.14-.58,1.07,1.07,0,0,1,.2-.72,1,1,0,0,1,.81-.26h1v2Zm-57.44,15.29h4a1.89,1.89,0,0,1,1.55.69,2.64,2.64,0,0,1,.55,1.73,2.82,2.82,0,0,1-.37,1.5,1.87,1.87,0,0,1-.75.66,2,2,0,0,1,1.09.86,3.11,3.11,0,0,1,.35,1.55,3.34,3.34,0,0,1-.26,1.35,2.39,2.39,0,0,1-.69,1,1.75,1.75,0,0,1-.81.32,7.79,7.79,0,0,1-1,.14h-3.71Zm2.16,3.83h1a.86.86,0,0,0,.69-.23,1,1,0,0,0,.2-.69.91.91,0,0,0-.2-.66.84.84,0,0,0-.69-.23h-1v1.81Zm0,3.83h1.09a.89.89,0,0,0,.78-.29,1.16,1.16,0,0,0,.23-.75,1.05,1.05,0,0,0-.23-.69,1,1,0,0,0-.78-.26h-1.09Zm11.81,2.1h-2.16v-7.37H145.4v3a20.32,20.32,0,0,1-.14,2.74,1.87,1.87,0,0,1-.66,1.27,2.79,2.79,0,0,1-1.67.4,2.86,2.86,0,0,1-.81-.12v-2h.32a.67.67,0,0,0,.6-.26,2,2,0,0,0,.17-1v-6.45h6v9.76Zm5.7-1.61h-2.45l-.35,1.61H150l2.62-9.76h2.36l2.62,9.76h-2.25L155,409Zm-.46-2.1-.78-3.51-.78,3.51h1.55Zm8.38-.26,1.9.81a5.5,5.5,0,0,1-.6,1.87,3,3,0,0,1-1,1.12,2.83,2.83,0,0,1-1.55.37,3.24,3.24,0,0,1-1.84-.46,3.63,3.63,0,0,1-1.24-1.64,7.45,7.45,0,0,1-.52-3,6.43,6.43,0,0,1,.92-3.71,3,3,0,0,1,2.59-1.3,2.9,2.9,0,0,1,2.07.75,4.92,4.92,0,0,1,1.12,2.3l-1.9.6a3.73,3.73,0,0,0-.2-.66,1.3,1.3,0,0,0-.43-.52,1,1,0,0,0-.58-.17,1.24,1.24,0,0,0-1.12.83,4.58,4.58,0,0,0-.29,1.93,4.86,4.86,0,0,0,.35,2.22,1.1,1.1,0,0,0,1,.6,1,1,0,0,0,.92-.49,3.68,3.68,0,0,0,.46-1.41Zm2.45-5.79h6.54v2.42h-2.19v7.34h-2.16v-7.34H165.3ZM175,404.6h1.15a3.2,3.2,0,0,1,2.36.78,3.3,3.3,0,0,1,.78,2.42,2.91,2.91,0,0,1-.69,2.07,2.62,2.62,0,0,1-2,.72h-3.69v-9.76H175v3.77Zm0,3.92h1.09a.91.91,0,0,0,1-1c0-.6-.35-.89-1-.89H175Z" transform="translate(-23.37 -15.6)"/><path class="cls-5" d="M332,308a59.75,59.75,0,1,1-59.75,59.75A59.75,59.75,0,0,1,332,308Z" transform="translate(-23.37 -15.6)"/><path class="cls-5" d="M345.69,309.93l.26.35c.58.58,2.5,1.5,3.94,2.56a29.57,29.57,0,0,1,3.83,3.22c7.92,8.09,11.26,20.41,7.37,31.47-3.71,10.54-11.49,17.19-21.74,20-4.2,1.15-8.47.63-12.76,1.38A30,30,0,0,0,309,379.29c-4.43,5.5-7.14,11.83-6.59,21.34.78,14,13.82,26.86,29.14,26.86A59.52,59.52,0,0,0,372,412.17c8.52-7.6,17.68-21,19.32-36.6,2.91-27.81-11.26-51.48-34.78-62.11-2.48-1.12-8.29-3.4-10.83-3.51Z" transform="translate(-23.37 -15.6)"/><path id="_1-5" data-name="1" class="cls-6" d="M345.69,309.93l.26.35c.58.58,2.5,1.5,3.94,2.56a29.57,29.57,0,0,1,3.83,3.22c7.92,8.09,11.26,20.41,7.37,31.47-3.71,10.54-11.49,17.19-21.74,20-4.2,1.15-8.47.63-12.76,1.38A30,30,0,0,0,309,379.29c-4.43,5.5-7.14,11.83-6.59,21.34.78,14,13.82,26.86,29.14,26.86A59.52,59.52,0,0,0,372,412.17c8.52-7.6,17.68-21,19.32-36.6,2.91-27.81-11.26-51.48-34.78-62.11-2.48-1.12-8.29-3.4-10.83-3.51Z" transform="translate(-23.37 -15.6)"/><path class="cls-3" d="M290.67,335.79l1.79.63a4.23,4.23,0,0,1-.58,1.47,2.55,2.55,0,0,1-1,.89,3.1,3.1,0,0,1-1.47.29,3.53,3.53,0,0,1-1.76-.37,3.08,3.08,0,0,1-1.18-1.3A5.13,5.13,0,0,1,286,335a4.5,4.5,0,0,1,.86-3,3.05,3.05,0,0,1,2.48-1,2.9,2.9,0,0,1,2,.6,3.51,3.51,0,0,1,1.07,1.81l-1.81.46a1.49,1.49,0,0,0-.2-.52,1.54,1.54,0,0,0-.43-.43,1.17,1.17,0,0,0-1.61.52A3.32,3.32,0,0,0,288,335a3.15,3.15,0,0,0,.35,1.76,1.12,1.12,0,0,0,1,.49,1,1,0,0,0,.89-.37,2.54,2.54,0,0,0,.43-1.12Zm8.78,3.17h-2.3l-.81-2a6.49,6.49,0,0,0-.43-.89.59.59,0,0,0-.43-.17V339h-2v-7.75h2v3a.46.46,0,0,0,.4-.23,6,6,0,0,0,.46-1.18,3.58,3.58,0,0,1,.46-1,1.29,1.29,0,0,1,.75-.46,7.24,7.24,0,0,1,1.64-.14v1.64h-.12a1.19,1.19,0,0,0-.78.23,1.42,1.42,0,0,0-.4.75,3.39,3.39,0,0,1-.35.78,1.06,1.06,0,0,1-.52.4,2.11,2.11,0,0,1,.78.58,5.24,5.24,0,0,1,.69,1.3l.89,2.13Zm6.8,0h-2v-5.84h-1.58v2.39a10.16,10.16,0,0,1-.14,2.16,1.39,1.39,0,0,1-.63,1,3.11,3.11,0,0,1-1.58.32,4,4,0,0,1-.78-.09v-1.55h.32a.76.76,0,0,0,.58-.2,1.29,1.29,0,0,0,.17-.78v-5.13h5.67V339Zm1.09-3.86a4.32,4.32,0,0,1,.89-2.94,3.17,3.17,0,0,1,2.5-1.07,3.14,3.14,0,0,1,2.53,1,4.29,4.29,0,0,1,.89,2.91,5.45,5.45,0,0,1-.4,2.22,3.07,3.07,0,0,1-1.12,1.35,3.31,3.31,0,0,1-1.84.49,3.88,3.88,0,0,1-1.84-.4,3,3,0,0,1-1.18-1.32,4.8,4.8,0,0,1-.46-2.25Zm2,0a2.91,2.91,0,0,0,.37,1.7,1.26,1.26,0,0,0,2,0,3.34,3.34,0,0,0,.37-1.81,2.72,2.72,0,0,0-.37-1.61,1.19,1.19,0,0,0-1-.49,1.13,1.13,0,0,0-1,.52,2.85,2.85,0,0,0-.37,1.7Zm5.9-3.89h2v2.71h2.25v-2.71h2V339h-2v-3.14h-2.25V339h-2Zm7.69,0h2v2.71h2.25v-2.71h2V339h-2v-3.14H325V339h-2Zm7.43,3.89a4.32,4.32,0,0,1,.89-2.94,3.17,3.17,0,0,1,2.5-1.07,3.14,3.14,0,0,1,2.53,1,4.29,4.29,0,0,1,.89,2.91,5.45,5.45,0,0,1-.4,2.22,3.07,3.07,0,0,1-1.12,1.35,3.31,3.31,0,0,1-1.84.49,3.88,3.88,0,0,1-1.84-.4,3,3,0,0,1-1.18-1.32,4.8,4.8,0,0,1-.46-2.25Zm2,0a2.91,2.91,0,0,0,.37,1.7,1.26,1.26,0,0,0,2,0,3.34,3.34,0,0,0,.37-1.81,2.72,2.72,0,0,0-.37-1.61,1.19,1.19,0,0,0-1-.49,1.13,1.13,0,0,0-1,.52,2.85,2.85,0,0,0-.37,1.7Zm10.31.69,1.79.63a4.23,4.23,0,0,1-.58,1.47,2.55,2.55,0,0,1-1,.89,3.1,3.1,0,0,1-1.47.29,3.53,3.53,0,0,1-1.76-.37,3.08,3.08,0,0,1-1.18-1.3,5.13,5.13,0,0,1-.49-2.36,4.5,4.5,0,0,1,.86-3,3.05,3.05,0,0,1,2.48-1,2.9,2.9,0,0,1,2,.6,3.51,3.51,0,0,1,1.07,1.81l-1.81.46a1.49,1.49,0,0,0-.2-.52A1.54,1.54,0,0,0,342,333a1.17,1.17,0,0,0-1.61.52,3.32,3.32,0,0,0-.29,1.53,3.15,3.15,0,0,0,.35,1.76,1.12,1.12,0,0,0,1,.49,1,1,0,0,0,.89-.37,2.54,2.54,0,0,0,.43-1.12Zm2.3-4.58h6.22v1.9H349.2v5.82h-2v-5.82h-2.07v-1.9Zm9.18,3h1.09a3.24,3.24,0,0,1,2.22.63,2.38,2.38,0,0,1,.72,1.93,2.06,2.06,0,0,1-.66,1.64,2.83,2.83,0,0,1-1.9.58H352.2v-7.75h2v3Zm0,3.08h1c.63,0,1-.26,1-.81s-.32-.72-1-.72h-1Zm-61.39,16.9h-2.3l-.81-2a6.49,6.49,0,0,0-.43-.89.59.59,0,0,0-.43-.17v3.05h-2v-7.75h2v3a.46.46,0,0,0,.4-.23,6,6,0,0,0,.46-1.18,3.58,3.58,0,0,1,.46-1,1.29,1.29,0,0,1,.75-.46,7.24,7.24,0,0,1,1.64-.14V348h-.12a1.19,1.19,0,0,0-.78.23,1.42,1.42,0,0,0-.4.75,3.39,3.39,0,0,1-.35.78,1.06,1.06,0,0,1-.52.4,2.11,2.11,0,0,1,.78.58,5.24,5.24,0,0,1,.69,1.3l.89,2.13Zm5.84-4.75h1.09a3.24,3.24,0,0,1,2.22.63,2.38,2.38,0,0,1,.72,1.93,2.06,2.06,0,0,1-.66,1.64,2.83,2.83,0,0,1-1.9.58h-3.51v-7.75h5.56V348H298.7Zm0,3.08h1c.63,0,1-.26,1-.81s-.32-.72-1-.72h-1Zm4.87-2.19a4.32,4.32,0,0,1,.89-2.94,3.17,3.17,0,0,1,2.5-1.07,3.14,3.14,0,0,1,2.53,1,4.29,4.29,0,0,1,.89,2.91,5.45,5.45,0,0,1-.4,2.22,3.07,3.07,0,0,1-1.12,1.35,3.31,3.31,0,0,1-1.84.49,3.88,3.88,0,0,1-1.84-.4A3,3,0,0,1,304,352.6a4.8,4.8,0,0,1-.46-2.25Zm2,0A2.91,2.91,0,0,0,306,352a1.26,1.26,0,0,0,2,0,3.34,3.34,0,0,0,.37-1.81,2.72,2.72,0,0,0-.37-1.61,1.19,1.19,0,0,0-1-.49,1.13,1.13,0,0,0-1,.52,2.85,2.85,0,0,0-.37,1.7Zm11.14-2h-3.2v5.84h-2v-7.75h5.24Zm5,4.55H319.4l-.32,1.27H317l2.48-7.75h2.22l2.48,7.75H322Zm-.43-1.67-.72-2.79-.72,2.79h1.44Zm3.08-4.78h6.22v1.9h-2.07v5.82h-2v-5.82h-2.07v-1.9ZM335.9,351l1.79.63a4.23,4.23,0,0,1-.58,1.47,2.55,2.55,0,0,1-1,.89,3.1,3.1,0,0,1-1.47.29,3.53,3.53,0,0,1-1.76-.37,3.08,3.08,0,0,1-1.18-1.3,5.13,5.13,0,0,1-.49-2.36,4.5,4.5,0,0,1,.86-3,3.05,3.05,0,0,1,2.48-1,2.9,2.9,0,0,1,2,.6,3.51,3.51,0,0,1,1.07,1.81l-1.81.46a1.49,1.49,0,0,0-.2-.52,1.54,1.54,0,0,0-.43-.43,1.17,1.17,0,0,0-1.61.52,3.32,3.32,0,0,0-.29,1.53,3.15,3.15,0,0,0,.35,1.76,1.12,1.12,0,0,0,1,.49,1,1,0,0,0,.89-.37,2.54,2.54,0,0,0,.43-1.12Zm2.3-4.58h6.22v1.9h-2.07v5.82h-2v-5.82h-2.07v-1.9Zm7.14,0h3.83a1.89,1.89,0,0,1,1.47.55,2,2,0,0,1,.52,1.38,1.81,1.81,0,0,1-.37,1.18,1.51,1.51,0,0,1-.72.52,1.84,1.84,0,0,1,1,.69,2.1,2.1,0,0,1,.35,1.24,2.76,2.76,0,0,1-.23,1.09,1.87,1.87,0,0,1-.66.75,2,2,0,0,1-.78.26c-.46.06-.78.12-.92.12h-3.51v-7.77Zm2.07,3h.89a.68.68,0,0,0,.83-.75.7.7,0,0,0-.17-.52,1,1,0,0,0-.66-.2h-.89Zm0,3.05h1a1.06,1.06,0,0,0,.75-.23.8.8,0,0,0,.23-.58.72.72,0,0,0-.2-.55,1.06,1.06,0,0,0-.75-.2h-1v1.55Zm4.49-6.08h2.22l.92,3.2.89-3.2H358l-2.16,6c-.17.49-.35.83-.46,1.09a1.58,1.58,0,0,1-.58.58,2.17,2.17,0,0,1-1.07.23,9.12,9.12,0,0,1-1.24-.12V352.6c.35,0,.6.06.75.06a.8.8,0,0,0,.86-.6l-2.19-5.59Z" transform="translate(-23.37 -15.6)"/><path d="M315.17,383.44l1.93.58a3.66,3.66,0,0,1-.6,1.35,2.54,2.54,0,0,1-1,.81,4.1,4.1,0,0,1-1.58.29,4.48,4.48,0,0,1-1.9-.35,3.09,3.09,0,0,1-1.27-1.18,4.14,4.14,0,0,1-.52-2.16,3.65,3.65,0,0,1,1-2.71,3.55,3.55,0,0,1,2.65-1,3.5,3.5,0,0,1,2.1.55,3.29,3.29,0,0,1,1.15,1.67l-1.93.43a2.09,2.09,0,0,0-.2-.49,1,1,0,0,0-.46-.37,1.38,1.38,0,0,0-1.76.46,2.58,2.58,0,0,0-.29,1.41,2.73,2.73,0,0,0,.35,1.61,1.23,1.23,0,0,0,1,.43,1.2,1.2,0,0,0,1-.35A2.17,2.17,0,0,0,315.17,383.44Zm2.5-4.2h6.68V381h-2.25v5.36h-2.19V381h-2.25Zm12,5.93h-2.5l-.35,1.18h-2.25l2.68-7.11h2.39l2.68,7.11h-2.3Zm-.46-1.53-.78-2.56-.78,2.56Zm6-1.67h1.18a4.11,4.11,0,0,1,2.39.58,2,2,0,0,1,.78,1.76,1.7,1.7,0,0,1-.72,1.5,3.46,3.46,0,0,1-2,.52h-3.77v-7.11h6v1.44h-3.8V382Zm0,2.85h1.12c.69,0,1-.26,1-.75s-.35-.66-1-.66h-1.12Zm12.32-5.59v7.11h-2.07v-3.89l-2.65,3.89h-2.07v-7.11h2.07v3.92l2.68-3.92Zm8,7.11h-2.19V381h-1.73v2.19a10.77,10.77,0,0,1-.14,2,1.31,1.31,0,0,1-.66.92,3.6,3.6,0,0,1-1.7.29,4.83,4.83,0,0,1-.83-.09v-1.44h.32a.8.8,0,0,0,.63-.2,1.15,1.15,0,0,0,.17-.72v-4.69h6.1v7.11Zm3.66-4.38h1.18a4.11,4.11,0,0,1,2.39.58,2,2,0,0,1,.78,1.76,1.7,1.7,0,0,1-.72,1.5,3.46,3.46,0,0,1-2,.52h-3.77v-7.11h2.19V382Zm0,2.85h1.12c.69,0,1-.26,1-.75s-.35-.66-1-.66h-1.12Zm5.5-5.59h2.19v2.48h2.39v-2.48h2.22v7.11h-2.22v-2.88h-2.39v2.88h-2.19Zm8,3.54a3.59,3.59,0,0,1,1-2.71,4.32,4.32,0,0,1,5.44,0,3.62,3.62,0,0,1,1,2.68,4.22,4.22,0,0,1-.43,2,3.13,3.13,0,0,1-1.21,1.24,4.06,4.06,0,0,1-2,.43,4.45,4.45,0,0,1-2-.37,3,3,0,0,1-1.27-1.21A4.09,4.09,0,0,1,372.73,382.78Zm2.19,0a2.46,2.46,0,0,0,.4,1.55,1.53,1.53,0,0,0,2.19,0,2.65,2.65,0,0,0,.37-1.64,2.29,2.29,0,0,0-.4-1.47,1.34,1.34,0,0,0-1.09-.46,1.32,1.32,0,0,0-1.07.46A2.46,2.46,0,0,0,374.91,382.78Zm6.33-3.57h5.87v1.53h-3.69v1.12h3.43v1.44h-3.43v1.41h3.8v1.61h-6Zm-63.78,16.73h1.18a4.11,4.11,0,0,1,2.39.58,2,2,0,0,1,.78,1.76,1.7,1.7,0,0,1-.72,1.5,3.46,3.46,0,0,1-2,.52h-3.77v-7.11h6v1.44h-3.8v1.32Zm0,2.85h1.12c.69,0,1-.26,1-.75s-.35-.66-1-.66h-1.12Zm5.24-2a3.59,3.59,0,0,1,1-2.71,4.32,4.32,0,0,1,5.44,0,3.62,3.62,0,0,1,1,2.68,4.22,4.22,0,0,1-.43,2,3.13,3.13,0,0,1-1.21,1.24,4.06,4.06,0,0,1-2,.43,4.45,4.45,0,0,1-2-.37,3,3,0,0,1-1.27-1.21A4.09,4.09,0,0,1,322.71,396.77Zm2.19,0a2.46,2.46,0,0,0,.4,1.55,1.53,1.53,0,0,0,2.19,0,2.65,2.65,0,0,0,.37-1.64,2.29,2.29,0,0,0-.4-1.47,1.34,1.34,0,0,0-1.09-.46,1.32,1.32,0,0,0-1.07.46A2.46,2.46,0,0,0,324.9,396.77Zm12-1.81h-3.43v5.36h-2.19V393.2h5.61Zm5.36,4.17h-2.5l-.35,1.18h-2.25l2.68-7.11h2.39l2.68,7.11h-2.3Zm-.46-1.53L341,395l-.78,2.56Zm3.31-4.41h6.68V395h-2.25v5.36h-2.19V395h-2.25Zm12.38,4.2,1.93.58a3.66,3.66,0,0,1-.6,1.35,2.54,2.54,0,0,1-1,.81,4.1,4.1,0,0,1-1.58.29,4.48,4.48,0,0,1-1.9-.35A3.09,3.09,0,0,1,353,398.9a4.14,4.14,0,0,1-.52-2.16,3.65,3.65,0,0,1,1-2.71,3.55,3.55,0,0,1,2.65-1,3.5,3.5,0,0,1,2.1.55,3.29,3.29,0,0,1,1.15,1.67l-1.93.43a2.09,2.09,0,0,0-.2-.49,1,1,0,0,0-.46-.37,1.38,1.38,0,0,0-1.76.46,2.58,2.58,0,0,0-.29,1.41,2.73,2.73,0,0,0,.35,1.61,1.23,1.23,0,0,0,1,.43,1.2,1.2,0,0,0,1-.35A2.17,2.17,0,0,0,357.47,397.4Zm2.5-4.2h6.68V395H364.4v5.36h-2.19V395H360Zm7.66,0h4.12a2.23,2.23,0,0,1,1.58.52,1.62,1.62,0,0,1,.55,1.27,1.65,1.65,0,0,1-.4,1.09,1.69,1.69,0,0,1-.78.46,1.94,1.94,0,0,1,1.12.63,1.76,1.76,0,0,1,.37,1.12,2,2,0,0,1-.26,1,2,2,0,0,1-.69.69,2.26,2.26,0,0,1-.83.23c-.49.06-.83.09-1,.09h-3.8Zm2.22,2.79h1a1.15,1.15,0,0,0,.72-.17.62.62,0,0,0,.2-.52.59.59,0,0,0-.2-.49,1.11,1.11,0,0,0-.69-.17h-1Zm0,2.79H371a1.23,1.23,0,0,0,.81-.2A.74.74,0,0,0,372,398a.72.72,0,0,0-.23-.52,1.36,1.36,0,0,0-.81-.2h-1.12v1.47Zm5.21-2a3.59,3.59,0,0,1,1-2.71,4.32,4.32,0,0,1,5.44,0,3.62,3.62,0,0,1,1,2.68,4.22,4.22,0,0,1-.43,2,3.13,3.13,0,0,1-1.21,1.24,4.06,4.06,0,0,1-2,.43,4.45,4.45,0,0,1-2-.37,3,3,0,0,1-1.27-1.21A4.09,4.09,0,0,1,375.06,396.77Zm2.19,0a2.46,2.46,0,0,0,.4,1.55,1.53,1.53,0,0,0,2.19,0,2.65,2.65,0,0,0,.37-1.64,2.29,2.29,0,0,0-.4-1.47,1.34,1.34,0,0,0-1.09-.46,1.32,1.32,0,0,0-1.07.46A2.46,2.46,0,0,0,377.25,396.77Z" transform="translate(-23.37 -15.6)"/></svg>