<?xml version="1.0" encoding="UTF-8"?>
<!DOCTYPE svg PUBLIC "-//W3C//DTD SVG 1.1//EN" "http://www.w3.org/Graphics/SVG/1.1/DTD/svg11.dtd">
<!-- Creator: CorelDRAW X5 -->
<svg xmlns="http://www.w3.org/2000/svg" xml:space="preserve" width="290mm" height="290mm" style="shape-rendering:geometricPrecision; text-rendering:geometricPrecision; image-rendering:optimizeQuality; fill-rule:evenodd; clip-rule:evenodd"
viewBox="0 0 29000 29000"
 xmlns:xlink="http://www.w3.org/1999/xlink">
 <defs>
  <style type="text/css">
   <![CDATA[
    .fil0 {fill:black;fill-rule:nonzero}
   ]]>
  </style>
 </defs>
 <g id="Слой_x0020_1">
  <metadata id="CorelCorpID_0Corel-Layer"/>
  <path class="fil0" d="M13878 7452l-177 0 0 329 -113 0 0 -437 289 0 0 107zm51 -107l188 0c41,0 71,12 92,35 20,23 31,56 31,99 0,44 -11,79 -33,103 -22,25 -56,37 -102,37l-62 0 0 162 -113 0 0 -437zm113 186l28 0c22,0 37,-4 46,-14 9,-9 13,-21 13,-35 0,-14 -4,-25 -11,-35 -8,-10 -22,-14 -43,-14l-32 0 0 97zm480 178l-129 0 -18 72 -115 0 137 -437 123 0 137 437 -118 0 -18 -72zm-24 -94l-40 -157 -40 157 81 0zm309 -102l60 0c55,0 96,12 123,35 27,23 40,60 40,109 0,40 -12,71 -37,93 -24,21 -60,32 -105,32l-194 0 0 -437 307 0 0 88 -195 0 0 80zm0 175l58 0c35,0 53,-15 53,-46 0,-27 -18,-40 -53,-40l-58 0 0 86zm633 -343l0 437 -106 0 0 -240 -137 240 -106 0 0 -437 106 0 0 242 138 -242 105 0zm50 0l343 0 0 108 -115 0 0 329 -113 0 0 -329 -115 0 0 -108zm394 0l302 0 0 93 -189 0 0 69 176 0 0 89 -176 0 0 86 195 0 0 99 -308 0 0 -437zm704 437l-113 0 0 -329 -88 0 0 134c0,55 -2,96 -7,122 -5,26 -16,45 -34,57 -18,12 -47,18 -87,18 -12,0 -26,-2 -42,-5l0 -88 17 0c15,0 26,-4 32,-12 6,-8 9,-23 9,-44l0 -289 314 0 0 437zm188 -268l60 0c55,0 96,12 123,35 27,23 40,60 40,109 0,40 -12,71 -37,93 -25,21 -60,32 -105,32l-194 0 0 -437 113 0 0 168zm0 175l58 0c35,0 53,-15 53,-46 0,-27 -18,-40 -53,-40l-58 0 0 86zm-3074 686l60 0c55,0 96,12 123,35 27,23 40,60 40,109 0,40 -12,71 -37,93 -25,21 -60,32 -105,32l-194 0 0 -437 307 0 0 88 -195 0 0 80zm0 175l58 0c35,0 53,-15 53,-46 0,-27 -18,-40 -53,-40l-58 0 0 86zm269 -124c0,-71 17,-127 50,-166 33,-40 79,-60 139,-60 61,0 108,20 141,59 33,39 49,94 49,164 0,51 -7,93 -22,126 -14,33 -35,58 -62,76 -27,18 -61,27 -102,27 -41,0 -75,-8 -102,-23 -27,-16 -49,-41 -66,-75 -17,-34 -25,-76 -25,-127zm113 1c0,44 7,76 20,95 14,19 32,29 56,29 24,0 43,-9 56,-28 13,-19 20,-53 20,-102 0,-41 -7,-71 -21,-90 -14,-19 -33,-28 -56,-28 -23,0 -41,10 -55,29 -14,19 -21,51 -21,96zm615 -112l-177 0 0 329 -113 0 0 -437 289 0 0 107zm276 257l-129 0 -18 72 -115 0 137 -437 123 0 137 437 -118 0 -18 -72zm-24 -94l-40 -157 -40 157 81 0zm170 -270l343 0 0 108 -115 0 0 329 -113 0 0 -329 -115 0 0 -108zm637 258l99 36c-7,33 -17,61 -31,83 -14,22 -32,39 -53,50 -21,11 -48,17 -81,17 -40,0 -72,-7 -97,-21 -25,-14 -47,-38 -65,-73 -18,-35 -27,-79 -27,-133 0,-72 16,-128 48,-167 32,-39 78,-58 136,-58 46,0 82,11 109,33 26,22 46,56 59,102l-100 27c-3,-13 -7,-23 -11,-29 -6,-10 -14,-18 -23,-24 -9,-6 -19,-8 -31,-8 -26,0 -45,12 -59,37 -10,18 -15,47 -15,86 0,48 6,82 18,100 12,18 30,27 52,27 22,0 38,-7 49,-22 11,-14 19,-35 24,-63zm128 -258l343 0 0 108 -115 0 0 329 -113 0 0 -329 -115 0 0 -108zm394 0l211 0c35,0 62,10 81,31 19,21 28,47 28,77 0,26 -7,48 -20,66 -9,12 -22,22 -39,29 26,8 45,21 58,39 12,18 19,41 19,69 0,23 -4,43 -13,61 -9,18 -21,32 -36,43 -9,7 -24,11 -43,14 -25,4 -42,6 -51,6l-195 0 0 -437zm114 171l49 0c18,0 30,-4 37,-11 7,-7 10,-18 10,-31 0,-13 -3,-23 -10,-30 -7,-7 -19,-11 -36,-11l-50 0 0 83zm0 172l58 0c19,0 33,-4 41,-12 8,-8 12,-19 12,-33 0,-13 -4,-23 -12,-31 -8,-8 -22,-12 -42,-12l-57 0 0 88zm507 22l-129 0 -18 72 -115 0 137 -437 123 0 137 437 -118 0 -18 -72zm-24 -94l-40 -157 -40 157 81 0z"/>
  <path class="fil0" d="M6573 13711l-152 0 0 -372 -167 0 0 372 -152 0 0 -493 471 0 0 493zm101 -493l253 0c55,0 96,13 124,39 27,26 41,64 41,112 0,50 -15,89 -45,117 -30,28 -76,42 -137,42l-83 0 0 183 -153 0 0 -493zm153 210l37 0c29,0 50,-5 62,-15 12,-10 18,-23 18,-39 0,-15 -5,-29 -15,-39 -10,-11 -30,-16 -58,-16l-43 0 0 110zm780 283l0 -493 -254 0c-47,0 -83,4 -108,12 -25,8 -45,23 -60,45 -15,22 -23,48 -23,80 0,27 6,51 17,71 12,20 28,36 48,48 13,8 31,14 53,19 -18,6 -31,12 -40,18 -6,4 -14,13 -24,26 -11,13 -18,23 -21,31l-74 143 172 0 81 -151c10,-19 19,-32 28,-38 11,-8 23,-11 37,-11l13 0 0 200 153 0zm-153 -293l-64 0c-7,0 -20,-2 -40,-7 -10,-2 -18,-7 -25,-15 -6,-8 -10,-18 -10,-29 0,-16 5,-28 15,-37 10,-9 29,-13 57,-13l67 0 0 100zm253 -200l200 0 77 300 77 -300 200 0 0 493 -124 0 0 -376 -96 376 -113 0 -96 -376 0 376 -125 0 0 -493zm955 411l-173 0 -24 81 -156 0 185 -493 166 0 185 493 -159 0 -24 -81zm-32 -107l-54 -177 -54 177 109 0zm700 188l0 -493 -254 0c-47,0 -83,4 -108,12 -25,8 -45,23 -60,45 -15,22 -23,48 -23,80 0,27 6,51 17,71 12,20 28,36 48,48 13,8 31,14 53,19 -18,6 -31,12 -40,18 -6,4 -14,13 -24,26 -11,13 -18,23 -21,31l-74 143 172 0 81 -151c10,-19 20,-32 28,-38 11,-8 23,-11 37,-11l13 0 0 200 153 0zm-153 -293l-64 0c-7,0 -20,-2 -40,-7 -10,-2 -18,-7 -25,-15 -6,-8 -10,-18 -10,-29 0,-16 5,-28 15,-37 10,-9 29,-13 57,-13l67 0 0 100zm-2603 1264l-152 0 0 -372 -167 0 0 372 -152 0 0 -493 471 0 0 493zm101 -493l408 0 0 105 -255 0 0 78 237 0 0 100 -237 0 0 97 263 0 0 112 -415 0 0 -493zm950 493l-152 0 0 -183c-47,26 -91,39 -133,39 -50,0 -91,-15 -124,-45 -32,-30 -49,-70 -49,-122l0 -181 152 0 0 151c0,24 6,43 17,56 11,13 28,20 49,20 40,0 69,-12 87,-36l0 -191 152 0 0 493zm404 -81l-173 0 -24 81 -156 0 185 -493 166 0 185 493 -159 0 -24 -81zm-32 -107l-54 -177 -54 177 109 0zm230 -305l463 0 0 122 -155 0 0 371 -152 0 0 -371 -155 0 0 -122zm684 190l81 0c75,0 130,13 166,40 36,26 54,67 54,123 0,46 -17,80 -50,104 -33,24 -80,36 -142,36l-262 0 0 -493 152 0 0 190zm0 197l78 0c48,0 72,-17 72,-52 0,-30 -24,-45 -72,-45l-78 0 0 97z"/>
  <path class="fil0" d="M21550 13428l192 0c42,0 73,10 94,30 21,20 31,48 31,85 0,38 -11,67 -34,89 -23,21 -57,32 -104,32l-63 0 0 139 -116 0 0 -374zm116 160l28 0c22,0 38,-4 47,-12 9,-8 14,-18 14,-30 0,-12 -4,-22 -12,-30 -8,-8 -22,-12 -44,-12l-33 0 0 83zm492 153l-132 0 -18 62 -118 0 141 -374 126 0 141 374 -121 0 -18 -62zm-24 -81l-41 -135 -41 135 83 0zm201 -232l116 0 0 131 126 0 0 -131 116 0 0 374 -116 0 0 -151 -126 0 0 151 -116 0 0 -374zm435 0l310 0 0 80 -194 0 0 60 180 0 0 76 -180 0 0 74 200 0 0 85 -316 0 0 -374zm378 0l116 0 0 131 126 0 0 -131 116 0 0 374 -116 0 0 -151 -126 0 0 151 -116 0 0 -374zm793 0l0 374 -109 0 0 -205 -140 205 -109 0 0 -374 109 0 0 207 141 -207 108 0zm77 0l310 0 0 80 -194 0 0 60 180 0 0 76 -180 0 0 74 200 0 0 85 -316 0 0 -374zm-2598 1112l-116 0 0 -139c-35,20 -69,29 -101,29 -38,0 -69,-11 -94,-34 -25,-23 -37,-54 -37,-93l0 -138 116 0 0 115c0,18 4,32 13,42 9,10 21,15 38,15 30,0 52,-9 66,-27l0 -145 116 0 0 374zm435 -374l0 374 -109 0 0 -205 -140 205 -109 0 0 -374 109 0 0 207 141 -207 108 0zm78 0l116 0 0 131 126 0 0 -131 116 0 0 374 -116 0 0 -151 -126 0 0 151 -116 0 0 -374zm420 187c0,-61 17,-109 51,-143 34,-34 81,-51 142,-51 62,0 110,17 144,50 34,33 51,80 51,140 0,44 -7,80 -22,108 -15,28 -36,50 -64,65 -28,16 -62,23 -104,23 -42,0 -77,-7 -105,-20 -28,-14 -50,-35 -67,-64 -17,-29 -26,-66 -26,-109zm116 1c0,38 7,65 21,81 14,16 33,25 57,25 25,0 44,-8 58,-24 14,-16 20,-45 20,-87 0,-35 -7,-61 -21,-77 -14,-16 -33,-24 -58,-24 -23,0 -42,8 -56,25 -14,16 -21,44 -21,82zm335 -188l217 0c36,0 64,9 83,27 19,18 29,40 29,66 0,22 -7,41 -21,57 -9,11 -23,19 -40,25 27,6 47,18 59,33 13,16 19,36 19,59 0,19 -5,37 -14,52 -9,16 -21,28 -37,37 -10,6 -24,10 -44,12 -26,3 -43,5 -52,5l-200 0 0 -374zm117 147l50 0c18,0 31,-3 38,-9 7,-6 11,-15 11,-27 0,-11 -3,-19 -11,-26 -7,-6 -19,-9 -37,-9l-51 0 0 71zm0 147l59 0c20,0 34,-3 42,-11 8,-7 12,-17 12,-28 0,-11 -4,-20 -12,-27 -8,-7 -22,-10 -43,-10l-59 0 0 76zm290 -294l116 0 0 131 126 0 0 -131 116 0 0 374 -116 0 0 -151 -126 0 0 151 -116 0 0 -374zm793 0l0 374 -109 0 0 -205 -140 205 -109 0 0 -374 109 0 0 207 141 -207 108 0zm418 374l-130 0 -45 -97c-11,-23 -19,-37 -25,-43 -6,-6 -14,-9 -25,-9l0 148 -115 0 0 -374 115 0 0 144c10,0 18,-4 23,-11 6,-7 14,-26 26,-57 9,-23 17,-40 26,-50 9,-10 23,-17 43,-22 20,-4 51,-7 94,-7l0 79 -6 0c-20,0 -34,4 -44,11 -10,7 -17,20 -24,36 -6,17 -13,29 -20,38 -7,8 -17,15 -29,20 17,6 31,15 44,28 12,13 26,34 40,62l51 102zm272 -62l-132 0 -18 62 -118 0 141 -374 126 0 141 374 -121 0 -18 -62zm-24 -81l-41 -135 -41 135 83 0z"/>
  <path class="fil0" d="M8974 23143l-110 0 0 -379 -122 0 0 379 -110 0 0 -502 343 0 0 502zm73 -502l184 0c40,0 70,13 90,40 20,27 30,65 30,114 0,51 -11,90 -33,119 -22,29 -55,43 -100,43l-61 0 0 186 -111 0 0 -502zm111 214l27 0c21,0 36,-5 45,-16 9,-10 13,-24 13,-40 0,-16 -4,-29 -11,-40 -7,-11 -22,-16 -42,-16l-32 0 0 112zm471 205l-126 0 -17 83 -113 0 135 -502 121 0 135 502 -116 0 -18 -83zm-23 -109l-40 -180 -39 180 79 0zm192 -311l207 0c35,0 61,12 79,36 19,24 28,54 28,89 0,30 -7,55 -20,76 -9,14 -22,25 -39,34 26,9 45,24 57,45 12,21 18,48 18,80 0,26 -4,49 -13,70 -9,21 -20,37 -35,49 -9,7 -23,13 -42,16 -25,5 -41,7 -50,7l-191 0 0 -502zm112 197l48 0c17,0 29,-4 36,-13 7,-8 10,-20 10,-36 0,-15 -3,-26 -10,-34 -7,-8 -19,-12 -35,-12l-49 0 0 95zm0 197l56 0c19,0 33,-5 40,-14 8,-9 12,-22 12,-38 0,-15 -4,-27 -12,-36 -8,-9 -21,-14 -41,-14l-56 0 0 102zm620 -394l0 502 -104 0 0 -276 -134 276 -104 0 0 -502 104 0 0 278 135 -278 103 0zm403 502l-111 0 0 -379 -87 0 0 154c0,63 -2,110 -7,140 -5,30 -16,52 -34,66 -18,14 -46,21 -86,21 -12,0 -26,-2 -42,-5l0 -102 17 0c15,0 26,-5 32,-14 6,-9 9,-26 9,-51l0 -332 308 0 0 502zm184 -309l59 0c54,0 94,13 121,40 26,27 39,68 39,125 0,46 -12,82 -36,106 -24,25 -58,37 -103,37l-190 0 0 -502 110 0 0 193zm0 201l57 0c35,0 52,-18 52,-53 0,-31 -17,-46 -52,-46l-57 0 0 99zm277 -394l111 0 0 176 121 0 0 -176 111 0 0 502 -111 0 0 -203 -121 0 0 203 -111 0 0 -502zm637 419l-126 0 -17 83 -113 0 135 -502 121 0 135 502 -116 0 -18 -83zm-23 -109l-40 -180 -39 180 79 0zm509 191l0 -502 -184 0c-34,0 -60,4 -78,12 -18,8 -33,23 -44,46 -11,22 -17,49 -17,81 0,28 4,52 13,72 9,20 20,37 35,49 10,8 22,15 39,20 -13,6 -23,12 -29,19 -4,4 -10,13 -18,26 -8,14 -13,24 -16,31l-54 146 125 0 59 -153c8,-20 14,-33 20,-39 8,-8 17,-12 27,-12l10 0 0 204 111 0zm-111 -299l-47 0c-5,0 -15,-2 -29,-7 -7,-2 -13,-7 -18,-16 -5,-8 -7,-18 -7,-29 0,-16 4,-29 11,-37 7,-9 21,-13 41,-13l49 0 0 102zm-2954 786l207 0c35,0 61,12 79,36 19,24 28,54 28,89 0,30 -7,55 -20,76 -9,14 -22,25 -39,34 26,9 45,24 57,45 12,21 18,48 18,80 0,26 -4,49 -13,70 -9,21 -20,37 -35,49 -9,7 -23,13 -42,16 -25,5 -41,7 -50,7l-191 0 0 -502zm112 197l48 0c17,0 29,-4 36,-13 7,-8 10,-20 10,-36 0,-15 -3,-26 -10,-34 -7,-8 -19,-12 -35,-12l-49 0 0 95zm0 197l56 0c19,0 33,-5 40,-14 8,-9 12,-22 12,-38 0,-15 -4,-27 -12,-36 -8,-9 -21,-14 -41,-14l-56 0 0 102zm606 108l-111 0 0 -379 -87 0 0 154c0,63 -2,110 -7,140 -5,30 -16,52 -34,66 -18,14 -46,21 -86,21 -12,0 -26,-2 -42,-5l0 -102 17 0c15,0 26,-5 32,-14 6,-9 9,-26 9,-51l0 -332 308 0 0 502zm294 -83l-126 0 -17 83 -113 0 135 -502 121 0 135 502 -116 0 -18 -83zm-23 -109l-40 -180 -39 180 79 0zm430 -14l97 41c-7,38 -17,70 -31,96 -14,26 -31,45 -52,58 -21,13 -47,20 -79,20 -39,0 -71,-8 -95,-24 -25,-16 -46,-44 -64,-84 -18,-40 -27,-91 -27,-153 0,-83 16,-147 47,-192 32,-45 76,-67 134,-67 45,0 81,13 106,38 26,26 45,65 58,118l-98 31c-3,-15 -7,-27 -11,-34 -6,-12 -14,-21 -23,-27 -9,-6 -19,-10 -30,-10 -25,0 -44,14 -58,42 -10,21 -15,54 -15,99 0,56 6,94 18,115 12,21 29,31 51,31 21,0 37,-8 48,-25 11,-17 19,-41 24,-73zm126 -297l336 0 0 124 -113 0 0 378 -111 0 0 -378 -113 0 0 -124zm497 193l59 0c54,0 94,13 121,40 26,27 39,69 39,125 0,46 -12,82 -36,106 -24,25 -58,37 -103,37l-190 0 0 -502 110 0 0 193zm0 201l57 0c35,0 52,-18 52,-53 0,-31 -17,-46 -52,-46l-57 0 0 99z"/>
  <path class="fil0" d="M18699 22739l99 30c-7,28 -17,51 -31,69 -14,19 -32,33 -53,42 -21,10 -48,14 -81,14 -40,0 -72,-6 -97,-17 -25,-12 -47,-32 -65,-61 -18,-29 -27,-66 -27,-112 0,-60 16,-107 48,-139 32,-32 78,-49 136,-49 46,0 82,9 109,28 26,19 46,47 59,86l-100 22c-3,-11 -7,-19 -11,-24 -6,-9 -14,-15 -23,-20 -9,-5 -19,-7 -31,-7 -26,0 -45,10 -59,31 -10,15 -15,39 -15,72 0,41 6,68 18,83 12,15 30,23 52,23 22,0 38,-6 49,-18 11,-12 19,-30 24,-53zm128 -216l343 0 0 90 -115 0 0 275 -113 0 0 -275 -115 0 0 -90zm619 305l-129 0 -18 60 -115 0 137 -365 123 0 137 365 -118 0 -18 -60zm-24 -79l-40 -131 -40 131 81 0zm309 -85l60 0c55,0 96,10 123,29 27,19 40,50 40,91 0,34 -12,60 -37,77 -24,18 -60,27 -105,27l-194 0 0 -365 307 0 0 74 -195 0 0 67zm0 146l58 0c35,0 53,-13 53,-38 0,-22 -18,-34 -53,-34l-58 0 0 72zm633 -287l0 365 -106 0 0 -200 -137 200 -106 0 0 -365 106 0 0 202 138 -202 105 0zm411 365l-113 0 0 -275 -88 0 0 112c0,46 -2,80 -7,102 -5,22 -16,38 -34,48 -18,10 -47,15 -87,15 -12,0 -26,-1 -42,-4l0 -74 17 0c15,0 26,-3 32,-10 6,-7 9,-19 9,-37l0 -242 314 0 0 365zm188 -224l60 0c55,0 96,10 123,29 27,19 40,50 40,91 0,34 -12,60 -37,77 -24,18 -60,27 -105,27l-194 0 0 -365 113 0 0 141zm0 146l58 0c35,0 53,-13 53,-38 0,-22 -18,-34 -53,-34l-58 0 0 72zm282 -287l113 0 0 128 123 0 0 -128 113 0 0 365 -113 0 0 -148 -123 0 0 148 -113 0 0 -365zm410 183c0,-60 17,-106 50,-139 33,-33 80,-50 139,-50 61,0 108,16 141,49 33,33 49,78 49,137 0,43 -7,78 -22,105 -14,27 -35,49 -62,64 -27,15 -61,23 -102,23 -41,0 -75,-7 -102,-20 -27,-13 -49,-34 -66,-62 -17,-28 -25,-64 -25,-107zm113 1c0,37 7,63 20,79 14,16 32,24 56,24 24,0 43,-8 56,-24 13,-16 20,-44 20,-85 0,-34 -7,-60 -21,-75 -14,-16 -33,-24 -56,-24 -23,0 -41,8 -55,24 -14,16 -21,43 -21,80zm326 -183l302 0 0 78 -189 0 0 58 176 0 0 74 -176 0 0 72 195 0 0 83 -308 0 0 -365zm-3279 860l60 0c55,0 96,10 123,29 27,19 40,50 40,91 0,34 -12,60 -37,77 -24,18 -60,27 -105,27l-194 0 0 -365 307 0 0 74 -195 0 0 67zm0 146l58 0c35,0 53,-13 53,-38 0,-22 -18,-34 -53,-34l-58 0 0 72zm269 -104c0,-60 17,-106 50,-139 33,-33 79,-50 139,-50 61,0 108,16 141,49 33,33 49,78 49,137 0,43 -7,78 -22,105 -14,27 -35,49 -62,64 -27,15 -61,23 -102,23 -41,0 -75,-7 -102,-20 -27,-13 -49,-34 -66,-62 -17,-28 -25,-64 -25,-107zm113 1c0,37 7,63 20,79 14,16 32,24 56,24 24,0 43,-8 56,-24 13,-16 20,-44 20,-85 0,-34 -7,-60 -21,-75 -14,-16 -33,-24 -56,-24 -23,0 -41,8 -55,24 -14,16 -21,43 -21,80zm615 -94l-177 0 0 275 -113 0 0 -365 289 0 0 90zm276 215l-129 0 -18 60 -115 0 137 -365 123 0 137 365 -118 0 -18 -60zm-24 -79l-40 -131 -40 131 81 0zm170 -226l343 0 0 90 -115 0 0 275 -113 0 0 -275 -115 0 0 -90zm637 216l99 30c-7,28 -17,51 -31,69 -14,19 -32,33 -53,42 -21,10 -48,14 -81,14 -40,0 -72,-6 -97,-17 -25,-12 -47,-32 -65,-61 -18,-29 -27,-66 -27,-112 0,-60 16,-107 48,-139 32,-32 78,-49 136,-49 46,0 82,9 109,28 26,19 46,47 59,86l-100 22c-3,-11 -7,-19 -11,-24 -6,-9 -14,-15 -23,-20 -9,-5 -19,-7 -31,-7 -26,0 -45,10 -59,31 -10,15 -15,39 -15,72 0,41 6,68 18,83 12,15 30,23 52,23 22,0 38,-6 49,-18 11,-12 19,-30 24,-53zm128 -216l343 0 0 90 -115 0 0 275 -113 0 0 -275 -115 0 0 -90zm394 0l211 0c35,0 62,9 81,26 19,17 28,39 28,65 0,22 -7,40 -20,56 -9,10 -22,18 -39,24 26,6 45,17 58,32 12,15 19,35 19,58 0,19 -4,36 -13,51 -9,15 -21,27 -36,36 -9,5 -24,9 -43,12 -25,3 -42,5 -51,5l-195 0 0 -365zm114 143l49 0c18,0 30,-3 37,-9 7,-6 10,-15 10,-26 0,-11 -3,-19 -10,-25 -7,-6 -19,-9 -36,-9l-50 0 0 69zm0 143l58 0c19,0 33,-3 41,-10 8,-7 12,-16 12,-28 0,-11 -4,-19 -12,-26 -8,-7 -22,-10 -41,-10l-57 0 0 74zm269 -104c0,-60 17,-106 50,-139 33,-33 79,-50 139,-50 61,0 108,16 141,49 33,33 49,78 49,137 0,43 -7,78 -22,105 -14,27 -35,49 -62,64 -27,15 -61,23 -102,23 -41,0 -75,-7 -102,-20 -27,-13 -49,-34 -66,-62 -17,-28 -25,-64 -25,-107zm113 1c0,37 7,63 20,79 14,16 32,24 56,24 24,0 43,-8 56,-24 13,-16 20,-44 20,-85 0,-34 -7,-60 -21,-75 -14,-16 -33,-24 -56,-24 -23,0 -41,8 -55,24 -14,16 -21,43 -21,80z"/>
 </g>
</svg>
