<?xml version="1.0" encoding="UTF-8"?>
<!DOCTYPE svg PUBLIC "-//W3C//DTD SVG 1.1//EN" "http://www.w3.org/Graphics/SVG/1.1/DTD/svg11.dtd">
<!-- Creator: CorelDRAW X5 -->
<svg xmlns="http://www.w3.org/2000/svg" xml:space="preserve" width="290mm" height="290mm" style="shape-rendering:geometricPrecision; text-rendering:geometricPrecision; image-rendering:optimizeQuality; fill-rule:evenodd; clip-rule:evenodd"
viewBox="0 0 29000 29000"
 xmlns:xlink="http://www.w3.org/1999/xlink">
 <defs>
  <style type="text/css">
   <![CDATA[
    .str0 {stroke:#2B2A29;stroke-width:150;stroke-linecap:round;stroke-linejoin:round}
    .fil0 {fill:none;fill-rule:nonzero}
    .fil1 {fill:#FEFEFE;fill-rule:nonzero}
   ]]>
  </style>
 </defs>
 <g id="Слой_x0020_1">
  <metadata id="CorelCorpID_0Corel-Layer"/>
  <g>
   <path class="fil0 str0" d="M12396 4980l250 0c54,0 95,13 122,39 27,26 41,63 41,111 0,49 -15,88 -44,115 -30,28 -75,41 -135,41l-82 0 0 181 -151 0 0 -487zm151 208l37 0c29,0 49,-5 61,-15 12,-10 18,-23 18,-39 0,-15 -5,-28 -15,-39 -10,-11 -29,-16 -57,-16l-43 0 0 109zm640 199l-171 0 -24 80 -154 0 183 -487 164 0 183 487 -157 0 -24 -80zm-32 -105l-54 -175 -54 175 107 0zm261 -301l282 0c47,0 83,12 108,35 25,23 38,52 38,86 0,29 -9,54 -27,74 -12,14 -29,25 -52,33 35,8 61,23 77,43 16,21 25,46 25,77 0,25 -6,48 -18,68 -12,20 -28,36 -48,48 -13,7 -32,13 -57,16 -34,4 -56,7 -67,7l-260 0 0 -487zm152 191l65 0c23,0 40,-4 49,-12 9,-8 14,-20 14,-35 0,-14 -5,-25 -14,-33 -9,-8 -25,-12 -48,-12l-66 0 0 92zm0 191l77 0c26,0 44,-5 55,-14 11,-9 16,-22 16,-37 0,-14 -5,-26 -16,-35 -11,-9 -29,-13 -55,-13l-76 0 0 99zm378 -382l150 0 0 170 165 0 0 -170 151 0 0 487 -151 0 0 -197 -165 0 0 197 -150 0 0 -487zm547 244c0,-79 22,-141 66,-186 44,-44 106,-66 185,-66 81,0 144,22 187,65 44,43 66,104 66,183 0,57 -10,104 -29,140 -19,36 -47,65 -83,85 -36,20 -81,30 -135,30 -55,0 -100,-9 -136,-26 -36,-18 -65,-45 -88,-83 -22,-38 -34,-85 -34,-142zm151 1c0,49 9,84 27,106 18,21 43,32 75,32 32,0 57,-11 75,-32 18,-21 27,-59 27,-113 0,-46 -9,-79 -28,-101 -18,-21 -44,-32 -75,-32 -30,0 -55,11 -73,32 -18,21 -28,57 -28,107zm435 -244l403 0 0 104 -252 0 0 77 234 0 0 99 -234 0 0 96 260 0 0 110 -411 0 0 -487zm-1989 1446l-150 0 0 -367 -165 0 0 367 -150 0 0 -487 466 0 0 487zm548 0l-150 0 0 -367 -118 0 0 150c0,62 -3,107 -10,136 -7,29 -22,50 -46,64 -24,14 -63,20 -116,20 -16,0 -35,-2 -56,-5l0 -99 23 0c20,0 35,-5 43,-13 8,-9 13,-25 13,-49l0 -322 418 0 0 487zm99 -487l403 0 0 104 -252 0 0 77 234 0 0 99 -234 0 0 96 260 0 0 110 -411 0 0 -487zm939 487l-150 0 0 -181c-46,26 -90,38 -131,38 -50,0 -90,-15 -123,-44 -32,-29 -48,-70 -48,-121l0 -179 150 0 0 149c0,24 6,42 17,55 11,13 28,19 49,19 39,0 68,-12 86,-35l0 -188 150 0 0 487zm81 -243c0,-79 22,-141 66,-186 44,-44 106,-66 185,-66 81,0 144,22 187,65 44,43 66,104 66,183 0,57 -10,104 -29,140 -19,36 -47,65 -83,85 -36,20 -81,30 -135,30 -55,0 -100,-9 -136,-26 -36,-18 -65,-45 -88,-83 -22,-38 -34,-85 -34,-142zm151 1c0,49 9,84 27,106 18,21 43,32 75,32 32,0 57,-11 75,-32 18,-21 27,-59 27,-113 0,-46 -9,-79 -28,-101 -18,-21 -44,-32 -75,-32 -30,0 -55,11 -73,32 -18,21 -28,57 -28,107z"/>
   <path id="1" class="fil1" d="M12396 4980l250 0c54,0 95,13 122,39 27,26 41,63 41,111 0,49 -15,88 -44,115 -30,28 -75,41 -135,41l-82 0 0 181 -151 0 0 -487zm151 208l37 0c29,0 49,-5 61,-15 12,-10 18,-23 18,-39 0,-15 -5,-28 -15,-39 -10,-11 -29,-16 -57,-16l-43 0 0 109zm640 199l-171 0 -24 80 -154 0 183 -487 164 0 183 487 -157 0 -24 -80zm-32 -105l-54 -175 -54 175 107 0zm261 -301l282 0c47,0 83,12 108,35 25,23 38,52 38,86 0,29 -9,54 -27,74 -12,14 -29,25 -52,33 35,8 61,23 77,43 16,21 25,46 25,77 0,25 -6,48 -18,68 -12,20 -28,36 -48,48 -13,7 -32,13 -57,16 -34,4 -56,7 -67,7l-260 0 0 -487zm152 191l65 0c23,0 40,-4 49,-12 9,-8 14,-20 14,-35 0,-14 -5,-25 -14,-33 -9,-8 -25,-12 -48,-12l-66 0 0 92zm0 191l77 0c26,0 44,-5 55,-14 11,-9 16,-22 16,-37 0,-14 -5,-26 -16,-35 -11,-9 -29,-13 -55,-13l-76 0 0 99zm378 -382l150 0 0 170 165 0 0 -170 151 0 0 487 -151 0 0 -197 -165 0 0 197 -150 0 0 -487zm547 244c0,-79 22,-141 66,-186 44,-44 106,-66 185,-66 81,0 144,22 187,65 44,43 66,104 66,183 0,57 -10,104 -29,140 -19,36 -47,65 -83,85 -36,20 -81,30 -135,30 -55,0 -100,-9 -136,-26 -36,-18 -65,-45 -88,-83 -22,-38 -34,-85 -34,-142zm151 1c0,49 9,84 27,106 18,21 43,32 75,32 32,0 57,-11 75,-32 18,-21 27,-59 27,-113 0,-46 -9,-79 -28,-101 -18,-21 -44,-32 -75,-32 -30,0 -55,11 -73,32 -18,21 -28,57 -28,107zm435 -244l403 0 0 104 -252 0 0 77 234 0 0 99 -234 0 0 96 260 0 0 110 -411 0 0 -487zm-1989 1446l-150 0 0 -367 -165 0 0 367 -150 0 0 -487 466 0 0 487zm548 0l-150 0 0 -367 -118 0 0 150c0,62 -3,107 -10,136 -7,29 -22,50 -46,64 -24,14 -63,20 -116,20 -16,0 -35,-2 -56,-5l0 -99 23 0c20,0 35,-5 43,-13 8,-9 13,-25 13,-49l0 -322 418 0 0 487zm99 -487l403 0 0 104 -252 0 0 77 234 0 0 99 -234 0 0 96 260 0 0 110 -411 0 0 -487zm939 487l-150 0 0 -181c-46,26 -90,38 -131,38 -50,0 -90,-15 -123,-44 -32,-29 -48,-70 -48,-121l0 -179 150 0 0 149c0,24 6,42 17,55 11,13 28,19 49,19 39,0 68,-12 86,-35l0 -188 150 0 0 487zm81 -243c0,-79 22,-141 66,-186 44,-44 106,-66 185,-66 81,0 144,22 187,65 44,43 66,104 66,183 0,57 -10,104 -29,140 -19,36 -47,65 -83,85 -36,20 -81,30 -135,30 -55,0 -100,-9 -136,-26 -36,-18 -65,-45 -88,-83 -22,-38 -34,-85 -34,-142zm151 1c0,49 9,84 27,106 18,21 43,32 75,32 32,0 57,-11 75,-32 18,-21 27,-59 27,-113 0,-46 -9,-79 -28,-101 -18,-21 -44,-32 -75,-32 -30,0 -55,11 -73,32 -18,21 -28,57 -28,107z"/>
  </g>
  <g>
   <path class="fil0 str0" d="M5157 11289l-179 0 -62 -133c-15,-31 -26,-51 -34,-59 -8,-8 -20,-12 -34,-12l0 204 -159 0 0 -515 159 0 0 198c14,-1 25,-6 32,-15 8,-9 20,-35 36,-79 12,-32 24,-55 36,-69 12,-14 32,-24 59,-30 27,-6 70,-9 129,-9l0 109 -8 0c-27,0 -47,5 -60,15 -13,10 -24,27 -32,50 -8,23 -18,40 -27,52 -10,11 -23,21 -40,27 23,8 43,21 60,39 17,18 35,47 54,86l70 141zm37 -257c0,-84 24,-150 70,-196 47,-47 112,-70 196,-70 86,0 152,23 198,69 46,46 70,110 70,193 0,60 -10,110 -30,148 -20,39 -50,69 -88,90 -38,21 -86,32 -143,32 -58,0 -106,-9 -144,-28 -38,-19 -69,-48 -93,-88 -24,-40 -36,-90 -36,-150zm159 1c0,52 10,89 29,112 19,23 46,34 79,34 34,0 61,-11 79,-33 19,-22 28,-62 28,-120 0,-49 -10,-84 -29,-106 -20,-22 -46,-33 -80,-33 -32,0 -58,11 -77,34 -19,23 -29,60 -29,113zm803 46l140 42c-9,39 -24,72 -44,98 -20,26 -45,46 -75,59 -30,13 -68,20 -114,20 -56,0 -102,-8 -137,-24 -36,-16 -66,-45 -92,-86 -26,-41 -39,-93 -39,-157 0,-85 23,-151 68,-197 45,-46 110,-69 192,-69 65,0 116,13 153,39 37,26 65,67 83,121l-141 31c-5,-16 -10,-27 -15,-35 -9,-12 -20,-21 -33,-28 -13,-7 -27,-10 -43,-10 -36,0 -64,15 -83,44 -15,22 -22,55 -22,102 0,57 9,96 26,118 17,21 42,32 73,32 30,0 54,-9 69,-26 16,-17 27,-42 34,-75zm534 125l-181 0 -25 85 -163 0 194 -515 174 0 194 515 -167 0 -25 -85zm-33 -111l-57 -185 -57 185 114 0zm732 196l0 -515 -265 0c-49,0 -87,4 -113,13 -26,8 -47,24 -63,47 -16,23 -24,51 -24,83 0,29 6,53 18,74 12,21 29,38 50,50 14,8 32,15 56,20 -19,6 -33,13 -42,19 -6,4 -14,13 -25,27 -11,14 -19,24 -22,32l-77 149 180 0 85 -158c11,-20 20,-34 29,-40 11,-8 24,-12 39,-12l14 0 0 209 160 0zm-160 -306l-67 0c-7,0 -21,-2 -42,-7 -11,-2 -19,-8 -26,-16 -7,-9 -10,-19 -10,-30 0,-17 5,-29 16,-38 11,-9 30,-13 59,-13l70 0 0 105zm-2311 1321l-159 0 0 -389 -175 0 0 389 -159 0 0 -515 493 0 0 515zm106 -515l427 0 0 110 -267 0 0 82 248 0 0 105 -248 0 0 101 275 0 0 117 -434 0 0 -515zm993 515l-159 0 0 -192c-49,27 -95,40 -139,40 -52,0 -96,-15 -130,-47 -34,-31 -51,-74 -51,-128l0 -190 159 0 0 158c0,25 6,45 18,58 12,14 29,20 52,20 42,0 72,-12 91,-37l0 -199 159 0 0 515zm422 -85l-181 0 -25 85 -163 0 194 -515 174 0 194 515 -167 0 -25 -85zm-33 -111l-57 -185 -57 185 114 0zm240 -319l484 0 0 127 -162 0 0 388 -159 0 0 -388 -162 0 0 -127zm716 199l85 0c78,0 136,14 174,41 38,27 57,70 57,128 0,48 -17,84 -52,109 -35,25 -84,38 -149,38l-273 0 0 -515 159 0 0 199zm0 206l81 0c50,0 75,-18 75,-54 0,-32 -25,-47 -75,-47l-81 0 0 102z"/>
   <path id="1" class="fil1" d="M5157 11289l-179 0 -62 -133c-15,-31 -26,-51 -34,-59 -8,-8 -20,-12 -34,-12l0 204 -159 0 0 -515 159 0 0 198c14,-1 25,-6 32,-15 8,-9 20,-35 36,-79 12,-32 24,-55 36,-69 12,-14 32,-24 59,-30 27,-6 70,-9 129,-9l0 109 -8 0c-27,0 -47,5 -60,15 -13,10 -24,27 -32,50 -8,23 -18,40 -27,52 -10,11 -23,21 -40,27 23,8 43,21 60,39 17,18 35,47 54,86l70 141zm37 -257c0,-84 24,-150 70,-196 47,-47 112,-70 196,-70 86,0 152,23 198,69 46,46 70,110 70,193 0,60 -10,110 -30,148 -20,39 -50,69 -88,90 -38,21 -86,32 -143,32 -58,0 -106,-9 -144,-28 -38,-19 -69,-48 -93,-88 -24,-40 -36,-90 -36,-150zm159 1c0,52 10,89 29,112 19,23 46,34 79,34 34,0 61,-11 79,-33 19,-22 28,-62 28,-120 0,-49 -10,-84 -29,-106 -20,-22 -46,-33 -80,-33 -32,0 -58,11 -77,34 -19,23 -29,60 -29,113zm803 46l140 42c-9,39 -24,72 -44,98 -20,26 -45,46 -75,59 -30,13 -68,20 -114,20 -56,0 -102,-8 -137,-24 -36,-16 -66,-45 -92,-86 -26,-41 -39,-93 -39,-157 0,-85 23,-151 68,-197 45,-46 110,-69 192,-69 65,0 116,13 153,39 37,26 65,67 83,121l-141 31c-5,-16 -10,-27 -15,-35 -9,-12 -20,-21 -33,-28 -13,-7 -27,-10 -43,-10 -36,0 -64,15 -83,44 -15,22 -22,55 -22,102 0,57 9,96 26,118 17,21 42,32 73,32 30,0 54,-9 69,-26 16,-17 27,-42 34,-75zm534 125l-181 0 -25 85 -163 0 194 -515 174 0 194 515 -167 0 -25 -85zm-33 -111l-57 -185 -57 185 114 0zm732 196l0 -515 -265 0c-49,0 -87,4 -113,13 -26,8 -47,24 -63,47 -16,23 -24,51 -24,83 0,29 6,53 18,74 12,21 29,38 50,50 14,8 32,15 56,20 -19,6 -33,13 -42,19 -6,4 -14,13 -25,27 -11,14 -19,24 -22,32l-77 149 180 0 85 -158c11,-20 20,-34 29,-40 11,-8 24,-12 39,-12l14 0 0 209 160 0zm-160 -306l-67 0c-7,0 -21,-2 -42,-7 -11,-2 -19,-8 -26,-16 -7,-9 -10,-19 -10,-30 0,-17 5,-29 16,-38 11,-9 30,-13 59,-13l70 0 0 105zm-2311 1321l-159 0 0 -389 -175 0 0 389 -159 0 0 -515 493 0 0 515zm106 -515l427 0 0 110 -267 0 0 82 248 0 0 105 -248 0 0 101 275 0 0 117 -434 0 0 -515zm993 515l-159 0 0 -192c-49,27 -95,40 -139,40 -52,0 -96,-15 -130,-47 -34,-31 -51,-74 -51,-128l0 -190 159 0 0 158c0,25 6,45 18,58 12,14 29,20 52,20 42,0 72,-12 91,-37l0 -199 159 0 0 515zm422 -85l-181 0 -25 85 -163 0 194 -515 174 0 194 515 -167 0 -25 -85zm-33 -111l-57 -185 -57 185 114 0zm240 -319l484 0 0 127 -162 0 0 388 -159 0 0 -388 -162 0 0 -127zm716 199l85 0c78,0 136,14 174,41 38,27 57,70 57,128 0,48 -17,84 -52,109 -35,25 -84,38 -149,38l-273 0 0 -515 159 0 0 199zm0 206l81 0c50,0 75,-18 75,-54 0,-32 -25,-47 -75,-47l-81 0 0 102z"/>
  </g>
  <g>
   <path class="fil0 str0" d="M21304 11334l-145 0 0 -127 -373 0 0 127 -145 0 0 -262 60 0c34,-94 51,-201 51,-319l0 -130 490 0 0 450 63 0 0 262zm-244 -262l0 -306 -145 0 0 7c0,81 -14,180 -41,299l186 0zm259 -450l196 0 81 241 80 -241 184 0 -192 451c-16,36 -29,64 -41,82 -12,18 -29,33 -52,44 -23,12 -55,17 -95,17 -21,0 -58,-3 -110,-9l0 -121c31,3 53,5 67,5 42,0 67,-16 76,-47l-195 -423zm563 0l199 0 104 180 100 -180 197 0 -182 283 199 301 -203 0 -115 -188 -116 188 -202 0 202 -305 -183 -280zm-1184 1736l-180 0 0 -441 -199 0 0 441 -180 0 0 -584 559 0 0 584zm680 -584l0 584 -170 0 0 -321 -219 321 -170 0 0 -584 170 0 0 323 220 -323 169 0zm970 712l-145 0 0 -127 -704 0 0 -584 180 0 0 441 122 0 0 -441 181 0 0 441 123 0 0 -441 181 0 0 450 63 0 0 262zm639 -712l0 584 -170 0 0 -321 -219 321 -170 0 0 -584 170 0 0 323 220 -323 169 0z"/>
   <path id="1" class="fil1" d="M21304 11334l-145 0 0 -127 -373 0 0 127 -145 0 0 -262 60 0c34,-94 51,-201 51,-319l0 -130 490 0 0 450 63 0 0 262zm-244 -262l0 -306 -145 0 0 7c0,81 -14,180 -41,299l186 0zm259 -450l196 0 81 241 80 -241 184 0 -192 451c-16,36 -29,64 -41,82 -12,18 -29,33 -52,44 -23,12 -55,17 -95,17 -21,0 -58,-3 -110,-9l0 -121c31,3 53,5 67,5 42,0 67,-16 76,-47l-195 -423zm563 0l199 0 104 180 100 -180 197 0 -182 283 199 301 -203 0 -115 -188 -116 188 -202 0 202 -305 -183 -280zm-1184 1736l-180 0 0 -441 -199 0 0 441 -180 0 0 -584 559 0 0 584zm680 -584l0 584 -170 0 0 -321 -219 321 -170 0 0 -584 170 0 0 323 220 -323 169 0zm970 712l-145 0 0 -127 -704 0 0 -584 180 0 0 441 122 0 0 -441 181 0 0 441 123 0 0 -441 181 0 0 450 63 0 0 262zm639 -712l0 584 -170 0 0 -321 -219 321 -170 0 0 -584 170 0 0 323 220 -323 169 0z"/>
  </g>
  <g>
   <path class="fil0 str0" d="M7399 20216l123 0 51 151 50 -151 115 0 -120 283c-10,23 -18,40 -26,51 -7,11 -18,20 -33,28 -14,7 -34,11 -59,11 -13,0 -36,-2 -69,-6l0 -76c19,2 33,3 42,3 26,0 42,-10 48,-29l-122 -265zm491 141l60 0c55,0 96,10 123,29 27,20 40,50 40,91 0,34 -12,60 -37,78 -25,18 -60,27 -106,27l-194 0 0 -366 308 0 0 74 -195 0 0 67zm0 146l58 0c35,0 53,-13 53,-38 0,-23 -18,-34 -53,-34l-58 0 0 72zm635 -287l0 366 -106 0 0 -201 -137 201 -107 0 0 -366 107 0 0 203 138 -203 106 0zm426 0l0 366 -106 0 0 -201 -137 201 -107 0 0 -366 107 0 0 203 138 -203 106 0zm-83 -90c-3,21 -14,38 -30,51 -17,13 -37,19 -60,19 -23,0 -43,-6 -60,-20 -17,-13 -27,-30 -30,-51l43 0c7,21 22,31 45,31 25,0 41,-10 48,-31l43 0zm549 536l-91 0 0 -80 -299 0 0 -366 113 0 0 276 124 0 0 -276 113 0 0 282 39 0 0 164zm275 -140l-129 0 -18 60 -116 0 138 -366 123 0 138 366 -118 0 -18 -60zm-24 -79l-40 -132 -40 132 81 0zm367 -226l113 0 0 128 124 0 0 -128 114 0 0 366 -114 0 0 -148 -124 0 0 148 -113 0 0 -366zm651 306l-129 0 -18 60 -116 0 138 -366 123 0 138 366 -118 0 -18 -60zm-24 -79l-40 -132 -40 132 81 0zm-3460 495l297 0 0 69c-26,23 -47,48 -65,76 -21,33 -37,70 -50,110 -10,32 -16,69 -19,112l-101 0c8,-60 21,-110 38,-150 17,-40 44,-84 81,-130l-181 0 0 -86zm706 0l0 366 -106 0 0 -201 -137 201 -107 0 0 -366 107 0 0 202 138 -202 106 0zm-83 -90c-4,21 -14,38 -30,51 -17,13 -37,19 -60,19 -23,0 -43,-6 -60,-20 -17,-13 -27,-30 -30,-51l43 0c7,21 22,31 45,31 25,0 41,-10 48,-31l43 0zm680 456l-113 0 0 -276 -124 0 0 276 -113 0 0 -366 350 0 0 366zm61 -183c0,-60 17,-106 50,-140 33,-33 80,-50 139,-50 61,0 108,16 141,49 33,33 49,78 49,137 0,43 -7,78 -22,105 -14,27 -35,49 -62,64 -27,15 -61,23 -102,23 -41,0 -75,-7 -103,-20 -27,-13 -49,-34 -66,-62 -17,-28 -25,-64 -25,-107zm113 1c0,37 7,63 21,80 14,16 32,24 56,24 24,0 43,-8 56,-24 13,-16 20,-44 20,-85 0,-35 -7,-60 -21,-76 -14,-16 -33,-24 -57,-24 -23,0 -41,8 -55,24 -14,16 -21,43 -21,80zm557 -17c44,12 66,39 66,83 0,36 -14,65 -41,88 -28,23 -66,34 -117,34 -86,0 -139,-36 -160,-108l107 -8c6,25 23,38 51,38 16,0 28,-4 36,-12 8,-8 12,-19 12,-33 0,-14 -5,-24 -15,-33 -10,-8 -24,-13 -42,-13l-31 0 0 -65 24 0c14,0 26,-4 34,-11 8,-8 12,-18 12,-32 0,-20 -12,-30 -37,-30 -26,0 -40,11 -45,34l-101 -12c17,-63 66,-95 148,-95 45,0 81,9 107,26 26,18 39,41 39,71 0,36 -16,61 -47,76zm473 -167l0 366 -106 0 0 -201 -137 201 -107 0 0 -366 107 0 0 202 138 -202 106 0zm466 446l-91 0 0 -80 -299 0 0 -366 113 0 0 276 124 0 0 -276 113 0 0 282 39 0 0 164zm400 -446l0 366 -106 0 0 -201 -137 201 -107 0 0 -366 107 0 0 202 138 -202 106 0zm426 0l0 366 -106 0 0 -201 -137 201 -107 0 0 -366 107 0 0 202 138 -202 106 0z"/>
   <path id="1" class="fil1" d="M7399 20216l123 0 51 151 50 -151 115 0 -120 283c-10,23 -18,40 -26,51 -7,11 -18,20 -33,28 -14,7 -34,11 -59,11 -13,0 -36,-2 -69,-6l0 -76c19,2 33,3 42,3 26,0 42,-10 48,-29l-122 -265zm491 141l60 0c55,0 96,10 123,29 27,20 40,50 40,91 0,34 -12,60 -37,78 -25,18 -60,27 -106,27l-194 0 0 -366 308 0 0 74 -195 0 0 67zm0 146l58 0c35,0 53,-13 53,-38 0,-23 -18,-34 -53,-34l-58 0 0 72zm635 -287l0 366 -106 0 0 -201 -137 201 -107 0 0 -366 107 0 0 203 138 -203 106 0zm426 0l0 366 -106 0 0 -201 -137 201 -107 0 0 -366 107 0 0 203 138 -203 106 0zm-83 -90c-3,21 -14,38 -30,51 -17,13 -37,19 -60,19 -23,0 -43,-6 -60,-20 -17,-13 -27,-30 -30,-51l43 0c7,21 22,31 45,31 25,0 41,-10 48,-31l43 0zm549 536l-91 0 0 -80 -299 0 0 -366 113 0 0 276 124 0 0 -276 113 0 0 282 39 0 0 164zm275 -140l-129 0 -18 60 -116 0 138 -366 123 0 138 366 -118 0 -18 -60zm-24 -79l-40 -132 -40 132 81 0zm367 -226l113 0 0 128 124 0 0 -128 114 0 0 366 -114 0 0 -148 -124 0 0 148 -113 0 0 -366zm651 306l-129 0 -18 60 -116 0 138 -366 123 0 138 366 -118 0 -18 -60zm-24 -79l-40 -132 -40 132 81 0zm-3460 495l297 0 0 69c-26,23 -47,48 -65,76 -21,33 -37,70 -50,110 -10,32 -16,69 -19,112l-101 0c8,-60 21,-110 38,-150 17,-40 44,-84 81,-130l-181 0 0 -86zm706 0l0 366 -106 0 0 -201 -137 201 -107 0 0 -366 107 0 0 202 138 -202 106 0zm-83 -90c-4,21 -14,38 -30,51 -17,13 -37,19 -60,19 -23,0 -43,-6 -60,-20 -17,-13 -27,-30 -30,-51l43 0c7,21 22,31 45,31 25,0 41,-10 48,-31l43 0zm680 456l-113 0 0 -276 -124 0 0 276 -113 0 0 -366 350 0 0 366zm61 -183c0,-60 17,-106 50,-140 33,-33 80,-50 139,-50 61,0 108,16 141,49 33,33 49,78 49,137 0,43 -7,78 -22,105 -14,27 -35,49 -62,64 -27,15 -61,23 -102,23 -41,0 -75,-7 -103,-20 -27,-13 -49,-34 -66,-62 -17,-28 -25,-64 -25,-107zm113 1c0,37 7,63 21,80 14,16 32,24 56,24 24,0 43,-8 56,-24 13,-16 20,-44 20,-85 0,-35 -7,-60 -21,-76 -14,-16 -33,-24 -57,-24 -23,0 -41,8 -55,24 -14,16 -21,43 -21,80zm557 -17c44,12 66,39 66,83 0,36 -14,65 -41,88 -28,23 -66,34 -117,34 -86,0 -139,-36 -160,-108l107 -8c6,25 23,38 51,38 16,0 28,-4 36,-12 8,-8 12,-19 12,-33 0,-14 -5,-24 -15,-33 -10,-8 -24,-13 -42,-13l-31 0 0 -65 24 0c14,0 26,-4 34,-11 8,-8 12,-18 12,-32 0,-20 -12,-30 -37,-30 -26,0 -40,11 -45,34l-101 -12c17,-63 66,-95 148,-95 45,0 81,9 107,26 26,18 39,41 39,71 0,36 -16,61 -47,76zm473 -167l0 366 -106 0 0 -201 -137 201 -107 0 0 -366 107 0 0 202 138 -202 106 0zm466 446l-91 0 0 -80 -299 0 0 -366 113 0 0 276 124 0 0 -276 113 0 0 282 39 0 0 164zm400 -446l0 366 -106 0 0 -201 -137 201 -107 0 0 -366 107 0 0 202 138 -202 106 0zm426 0l0 366 -106 0 0 -201 -137 201 -107 0 0 -366 107 0 0 202 138 -202 106 0z"/>
  </g>
  <g>
   <path class="fil0 str0" d="M17438 20290l92 33c-6,30 -16,55 -29,76 -13,20 -30,36 -50,46 -20,10 -45,15 -75,15 -37,0 -67,-6 -91,-19 -23,-13 -44,-35 -61,-66 -17,-32 -25,-72 -25,-122 0,-66 15,-117 45,-152 30,-35 72,-53 127,-53 43,0 76,10 101,30 25,20 43,51 55,93l-93 24c-3,-12 -7,-21 -10,-27 -6,-9 -13,-17 -22,-22 -9,-5 -18,-8 -29,-8 -24,0 -42,11 -55,34 -10,17 -14,43 -14,78 0,44 6,74 17,91 11,16 28,25 48,25 20,0 35,-7 46,-20 10,-13 18,-32 22,-58zm452 163l-118 0 -41 -103c-10,-24 -17,-39 -23,-46 -5,-6 -13,-9 -22,-9l0 157 -105 0 0 -398 105 0 0 153c9,0 16,-4 21,-11 5,-7 13,-27 24,-61 8,-25 16,-43 24,-53 8,-11 21,-19 39,-23 18,-5 46,-7 85,-7l0 84 -5 0c-18,0 -31,4 -40,12 -9,8 -16,21 -21,39 -6,18 -12,31 -18,40 -6,9 -15,16 -26,21 15,6 28,16 40,30 11,14 23,36 36,66l46 109zm350 0l-105 0 0 -300 -82 0 0 122c0,50 -2,87 -7,111 -5,24 -15,41 -32,52 -17,11 -44,17 -81,17 -11,0 -25,-1 -39,-4l0 -81 16 0c14,0 24,-4 30,-11 6,-7 9,-21 9,-40l0 -263 292 0 0 398zm56 -199c0,-65 16,-116 46,-152 31,-36 74,-54 129,-54 57,0 100,18 131,53 31,35 46,85 46,149 0,47 -7,85 -20,114 -13,30 -33,53 -58,69 -25,17 -57,25 -94,25 -38,0 -70,-7 -95,-21 -25,-14 -45,-37 -61,-68 -16,-31 -23,-70 -23,-116zm105 1c0,40 6,69 19,87 13,18 30,26 52,26 23,0 40,-9 52,-26 12,-17 19,-48 19,-93 0,-38 -6,-65 -19,-82 -13,-17 -30,-26 -53,-26 -21,0 -38,9 -51,26 -13,18 -19,47 -19,87zm304 -200l105 0 0 139 115 0 0 -139 105 0 0 398 -105 0 0 -161 -115 0 0 161 -105 0 0 -398zm395 0l105 0 0 139 115 0 0 -139 105 0 0 398 -105 0 0 -161 -115 0 0 161 -105 0 0 -398zm382 199c0,-65 16,-116 46,-152 31,-36 74,-54 129,-54 57,0 100,18 131,53 31,35 46,85 46,149 0,47 -7,85 -20,114 -13,30 -33,53 -58,69 -25,17 -57,25 -94,25 -38,0 -70,-7 -95,-21 -25,-14 -45,-37 -61,-68 -16,-31 -23,-70 -23,-116zm105 1c0,40 6,69 19,87 13,18 30,26 52,26 23,0 40,-9 52,-26 12,-17 19,-48 19,-93 0,-38 -6,-65 -19,-82 -13,-17 -30,-26 -53,-26 -21,0 -38,9 -51,26 -13,18 -19,47 -19,87zm530 36l92 33c-6,30 -16,55 -29,76 -13,20 -30,36 -50,46 -20,10 -45,15 -75,15 -37,0 -67,-6 -90,-19 -23,-13 -44,-35 -61,-66 -17,-32 -25,-72 -25,-122 0,-66 15,-117 45,-152 30,-35 72,-53 127,-53 43,0 76,10 101,30 25,20 43,51 55,93l-93 24c-3,-12 -7,-21 -10,-27 -6,-9 -13,-17 -22,-22 -9,-5 -18,-8 -29,-8 -24,0 -42,11 -55,34 -10,17 -14,43 -14,78 0,44 6,74 17,91 11,16 28,25 48,25 20,0 35,-7 46,-20 10,-13 18,-32 22,-58zm119 -235l319 0 0 98 -107 0 0 300 -105 0 0 -300 -107 0 0 -98zm472 153l56 0c51,0 90,11 114,32 25,21 37,54 37,99 0,37 -11,65 -34,84 -23,19 -55,29 -98,29l-180 0 0 -398 105 0 0 153zm0 159l54 0c33,0 49,-14 49,-42 0,-24 -16,-37 -49,-37l-54 0 0 78zm-3156 870l-118 0 -41 -103c-10,-24 -17,-39 -23,-46 -5,-6 -13,-9 -22,-9l0 157 -105 0 0 -398 105 0 0 153c9,0 16,-4 21,-11 5,-7 13,-27 24,-61 8,-25 16,-43 24,-53 8,-11 21,-19 39,-23 18,-5 46,-7 85,-7l0 84 -5 0c-18,0 -31,4 -40,12 -9,8 -16,21 -21,39 -6,18 -12,31 -18,40 -6,9 -15,16 -26,21 15,6 28,16 40,30 11,14 23,36 36,66l46 109zm301 -245l56 0c51,0 90,11 114,32 25,21 37,54 37,99 0,37 -11,65 -34,84 -23,19 -55,29 -98,29l-180 0 0 -398 286 0 0 81 -181 0 0 73zm0 159l54 0c33,0 49,-14 49,-42 0,-24 -16,-37 -49,-37l-54 0 0 78zm251 -113c0,-65 15,-116 46,-152 31,-36 74,-54 129,-54 57,0 100,18 131,53 31,35 46,85 46,149 0,47 -7,85 -20,114 -13,30 -33,53 -58,70 -25,17 -57,25 -94,25 -38,0 -70,-7 -95,-21 -25,-14 -45,-37 -61,-68 -16,-31 -23,-70 -23,-116zm105 1c0,40 6,69 19,87 13,18 30,26 52,26 23,0 40,-9 52,-26 12,-17 19,-48 19,-93 0,-38 -6,-65 -19,-82 -13,-17 -30,-26 -53,-26 -21,0 -38,9 -51,26 -13,18 -19,47 -19,87zm573 -102l-164 0 0 300 -105 0 0 -398 269 0 0 98zm256 235l-120 0 -16 66 -107 0 128 -398 114 0 128 398 -110 0 -17 -66zm-22 -86l-38 -143 -37 143 75 0zm158 -246l319 0 0 98 -107 0 0 300 -105 0 0 -300 -107 0 0 -98zm593 235l92 33c-6,30 -16,55 -29,76 -13,20 -30,36 -50,46 -20,10 -45,15 -75,15 -37,0 -67,-6 -90,-19 -23,-13 -44,-35 -61,-66 -17,-32 -25,-72 -25,-122 0,-66 15,-117 45,-152 30,-35 72,-53 127,-53 43,0 76,10 101,30 25,20 43,51 55,93l-93 24c-3,-12 -7,-21 -10,-27 -6,-9 -13,-17 -22,-22 -9,-5 -18,-8 -29,-8 -24,0 -42,11 -55,34 -10,17 -14,43 -14,78 0,44 6,74 17,91 11,16 28,25 48,25 20,0 35,-7 46,-20 10,-13 18,-32 22,-58zm119 -235l319 0 0 98 -107 0 0 300 -105 0 0 -300 -107 0 0 -98zm367 0l197 0c33,0 58,10 75,29 18,19 26,43 26,71 0,24 -6,44 -19,61 -8,11 -21,20 -37,27 24,7 42,19 54,35 11,17 17,38 17,63 0,21 -4,39 -12,56 -8,17 -19,29 -34,39 -9,6 -22,10 -40,13 -24,4 -39,5 -47,5l-181 0 0 -398zm106 156l46 0c16,0 28,-3 34,-10 6,-7 10,-16 10,-29 0,-12 -3,-21 -10,-27 -6,-7 -18,-10 -34,-10l-46 0 0 76zm0 156l54 0c18,0 31,-4 38,-11 7,-8 11,-18 11,-30 0,-12 -4,-21 -11,-28 -7,-7 -20,-11 -39,-11l-53 0 0 81zm231 -312l114 0 47 164 46 -164 107 0 -111 307c-9,25 -17,43 -24,56 -7,12 -17,22 -30,30 -13,8 -32,12 -55,12 -12,0 -34,-2 -64,-6l0 -82c18,2 31,3 39,3 24,0 39,-11 44,-32l-113 -288z"/>
   <path id="1" class="fil1" d="M17438 20290l92 33c-6,30 -16,55 -29,76 -13,20 -30,36 -50,46 -20,10 -45,15 -75,15 -37,0 -67,-6 -91,-19 -23,-13 -44,-35 -61,-66 -17,-32 -25,-72 -25,-122 0,-66 15,-117 45,-152 30,-35 72,-53 127,-53 43,0 76,10 101,30 25,20 43,51 55,93l-93 24c-3,-12 -7,-21 -10,-27 -6,-9 -13,-17 -22,-22 -9,-5 -18,-8 -29,-8 -24,0 -42,11 -55,34 -10,17 -14,43 -14,78 0,44 6,74 17,91 11,16 28,25 48,25 20,0 35,-7 46,-20 10,-13 18,-32 22,-58zm452 163l-118 0 -41 -103c-10,-24 -17,-39 -23,-46 -5,-6 -13,-9 -22,-9l0 157 -105 0 0 -398 105 0 0 153c9,0 16,-4 21,-11 5,-7 13,-27 24,-61 8,-25 16,-43 24,-53 8,-11 21,-19 39,-23 18,-5 46,-7 85,-7l0 84 -5 0c-18,0 -31,4 -40,12 -9,8 -16,21 -21,39 -6,18 -12,31 -18,40 -6,9 -15,16 -26,21 15,6 28,16 40,30 11,14 23,36 36,66l46 109zm350 0l-105 0 0 -300 -82 0 0 122c0,50 -2,87 -7,111 -5,24 -15,41 -32,52 -17,11 -44,17 -81,17 -11,0 -25,-1 -39,-4l0 -81 16 0c14,0 24,-4 30,-11 6,-7 9,-21 9,-40l0 -263 292 0 0 398zm56 -199c0,-65 16,-116 46,-152 31,-36 74,-54 129,-54 57,0 100,18 131,53 31,35 46,85 46,149 0,47 -7,85 -20,114 -13,30 -33,53 -58,69 -25,17 -57,25 -94,25 -38,0 -70,-7 -95,-21 -25,-14 -45,-37 -61,-68 -16,-31 -23,-70 -23,-116zm105 1c0,40 6,69 19,87 13,18 30,26 52,26 23,0 40,-9 52,-26 12,-17 19,-48 19,-93 0,-38 -6,-65 -19,-82 -13,-17 -30,-26 -53,-26 -21,0 -38,9 -51,26 -13,18 -19,47 -19,87zm304 -200l105 0 0 139 115 0 0 -139 105 0 0 398 -105 0 0 -161 -115 0 0 161 -105 0 0 -398zm395 0l105 0 0 139 115 0 0 -139 105 0 0 398 -105 0 0 -161 -115 0 0 161 -105 0 0 -398zm382 199c0,-65 16,-116 46,-152 31,-36 74,-54 129,-54 57,0 100,18 131,53 31,35 46,85 46,149 0,47 -7,85 -20,114 -13,30 -33,53 -58,69 -25,17 -57,25 -94,25 -38,0 -70,-7 -95,-21 -25,-14 -45,-37 -61,-68 -16,-31 -23,-70 -23,-116zm105 1c0,40 6,69 19,87 13,18 30,26 52,26 23,0 40,-9 52,-26 12,-17 19,-48 19,-93 0,-38 -6,-65 -19,-82 -13,-17 -30,-26 -53,-26 -21,0 -38,9 -51,26 -13,18 -19,47 -19,87zm530 36l92 33c-6,30 -16,55 -29,76 -13,20 -30,36 -50,46 -20,10 -45,15 -75,15 -37,0 -67,-6 -90,-19 -23,-13 -44,-35 -61,-66 -17,-32 -25,-72 -25,-122 0,-66 15,-117 45,-152 30,-35 72,-53 127,-53 43,0 76,10 101,30 25,20 43,51 55,93l-93 24c-3,-12 -7,-21 -10,-27 -6,-9 -13,-17 -22,-22 -9,-5 -18,-8 -29,-8 -24,0 -42,11 -55,34 -10,17 -14,43 -14,78 0,44 6,74 17,91 11,16 28,25 48,25 20,0 35,-7 46,-20 10,-13 18,-32 22,-58zm119 -235l319 0 0 98 -107 0 0 300 -105 0 0 -300 -107 0 0 -98zm472 153l56 0c51,0 90,11 114,32 25,21 37,54 37,99 0,37 -11,65 -34,84 -23,19 -55,29 -98,29l-180 0 0 -398 105 0 0 153zm0 159l54 0c33,0 49,-14 49,-42 0,-24 -16,-37 -49,-37l-54 0 0 78zm-3156 870l-118 0 -41 -103c-10,-24 -17,-39 -23,-46 -5,-6 -13,-9 -22,-9l0 157 -105 0 0 -398 105 0 0 153c9,0 16,-4 21,-11 5,-7 13,-27 24,-61 8,-25 16,-43 24,-53 8,-11 21,-19 39,-23 18,-5 46,-7 85,-7l0 84 -5 0c-18,0 -31,4 -40,12 -9,8 -16,21 -21,39 -6,18 -12,31 -18,40 -6,9 -15,16 -26,21 15,6 28,16 40,30 11,14 23,36 36,66l46 109zm301 -245l56 0c51,0 90,11 114,32 25,21 37,54 37,99 0,37 -11,65 -34,84 -23,19 -55,29 -98,29l-180 0 0 -398 286 0 0 81 -181 0 0 73zm0 159l54 0c33,0 49,-14 49,-42 0,-24 -16,-37 -49,-37l-54 0 0 78zm251 -113c0,-65 15,-116 46,-152 31,-36 74,-54 129,-54 57,0 100,18 131,53 31,35 46,85 46,149 0,47 -7,85 -20,114 -13,30 -33,53 -58,70 -25,17 -57,25 -94,25 -38,0 -70,-7 -95,-21 -25,-14 -45,-37 -61,-68 -16,-31 -23,-70 -23,-116zm105 1c0,40 6,69 19,87 13,18 30,26 52,26 23,0 40,-9 52,-26 12,-17 19,-48 19,-93 0,-38 -6,-65 -19,-82 -13,-17 -30,-26 -53,-26 -21,0 -38,9 -51,26 -13,18 -19,47 -19,87zm573 -102l-164 0 0 300 -105 0 0 -398 269 0 0 98zm256 235l-120 0 -16 66 -107 0 128 -398 114 0 128 398 -110 0 -17 -66zm-22 -86l-38 -143 -37 143 75 0zm158 -246l319 0 0 98 -107 0 0 300 -105 0 0 -300 -107 0 0 -98zm593 235l92 33c-6,30 -16,55 -29,76 -13,20 -30,36 -50,46 -20,10 -45,15 -75,15 -37,0 -67,-6 -90,-19 -23,-13 -44,-35 -61,-66 -17,-32 -25,-72 -25,-122 0,-66 15,-117 45,-152 30,-35 72,-53 127,-53 43,0 76,10 101,30 25,20 43,51 55,93l-93 24c-3,-12 -7,-21 -10,-27 -6,-9 -13,-17 -22,-22 -9,-5 -18,-8 -29,-8 -24,0 -42,11 -55,34 -10,17 -14,43 -14,78 0,44 6,74 17,91 11,16 28,25 48,25 20,0 35,-7 46,-20 10,-13 18,-32 22,-58zm119 -235l319 0 0 98 -107 0 0 300 -105 0 0 -300 -107 0 0 -98zm367 0l197 0c33,0 58,10 75,29 18,19 26,43 26,71 0,24 -6,44 -19,61 -8,11 -21,20 -37,27 24,7 42,19 54,35 11,17 17,38 17,63 0,21 -4,39 -12,56 -8,17 -19,29 -34,39 -9,6 -22,10 -40,13 -24,4 -39,5 -47,5l-181 0 0 -398zm106 156l46 0c16,0 28,-3 34,-10 6,-7 10,-16 10,-29 0,-12 -3,-21 -10,-27 -6,-7 -18,-10 -34,-10l-46 0 0 76zm0 156l54 0c18,0 31,-4 38,-11 7,-8 11,-18 11,-30 0,-12 -4,-21 -11,-28 -7,-7 -20,-11 -39,-11l-53 0 0 81zm231 -312l114 0 47 164 46 -164 107 0 -111 307c-9,25 -17,43 -24,56 -7,12 -17,22 -30,30 -13,8 -32,12 -55,12 -12,0 -34,-2 -64,-6l0 -82c18,2 31,3 39,3 24,0 39,-11 44,-32l-113 -288z"/>
  </g>
 </g>
</svg>
