<?xml version="1.0" encoding="utf-8"?>
<!-- Generator: Adobe Illustrator 21.1.0, SVG Export Plug-In . SVG Version: 6.00 Build 0)  -->
<svg version="1.1" id="Capa_1" xmlns="http://www.w3.org/2000/svg" xmlns:xlink="http://www.w3.org/1999/xlink" x="0px" y="0px"
	 viewBox="0 0 512 512" style="enable-background:new 0 0 512 512;" xml:space="preserve">
<style type="text/css">
	.st0{fill:#705216;}
	.st1{fill:#F18B52;}
	.st2{fill:#D3AD6A;}
	.st3{fill:#C9963A;}
	.st4{fill:#71C285;}
	.st5{fill:#4C8056;}
	.st6{fill:#CB8252;}
	.st7{fill:#805333;}
</style>
<g>
	<path class="st0" d="M338.4,374.6c0-20.4-13.4-37.5-31.2-40c-2.9-9.8-10-17.2-18.9-19.7c-8.8-2.4-18.2,0.5-24.7,7.7
		c-5.1-10.9-15.8-16.9-26.5-14.8c-1.9-11.1-8.5-20.5-17.8-24.8c-9.2-4.3,34.4,8.2,26.2,14.6c57.1-37.9-12.6-86.3-71.5-71.5
		c-20,0.6-67.2,42.1-74.7,63.1c-14.9-6.1-31.3,2.3-37.1,19c-5.7-1.8-11.8-0.7-16.7,3.1c-4.9,3.8-8.2,9.8-8.9,16.4
		c-1.1-0.1-2.1-0.2-3.2-0.2c-21.3,0-38.5,19.6-38.5,43.7V415h343.5V374.6z"/>
	<path class="st1" d="M364.5,371.1c0-20.4-13.4-37.5-31.2-40c-2.9-9.8-10-17.2-18.9-19.7c-8.8-2.4-18.2,0.5-24.7,7.7
		c-5.1-10.9-15.8-16.9-26.5-14.8c-1.9-11.1-8.5-20.5-17.8-24.8c-9.2-4.3-19.8-3.1-28,3.3c-8.5-20.5-26.9-33.4-46.9-32.8
		c-20,0.6-37.7,14.6-45.2,35.6c-14.9-6.1-31.3,2.3-37.1,19c-5.7-1.8-11.8-0.7-16.7,3.1c-4.9,3.8-8.2,9.8-8.9,16.4
		c-1.1-0.1-2.1-0.2-3.2-0.2C38.2,324,21,343.6,21,367.8v43.7h343.5V371.1z"/>
	<path class="st0" d="M500.1,350.6c0-20.4-13.4-37.5-31.2-40c-2.9-9.8-10-17.2-18.9-19.7c-8.8-2.4-18.2,0.5-24.7,7.7
		c-5.1-10.9-15.8-16.9-26.5-14.8c-1.9-11.1-8.5-20.5-17.8-24.8c-9.2-4.3-19.8-3.1-28,3.3c-8.5-20.5-26.9-33.4-46.9-32.8
		c-20,0.6-37.7,14.6-45.2,35.6c-14.9-6.1-31.3,2.3-37.1,19c-5.7-1.8-11.8-0.7-16.7,3.1c-4.9,3.8-8.2,9.8-8.9,16.4
		c-1.1-0.1-2.1-0.2-3.2-0.2c-21.3,0-38.5,19.6-38.5,43.7V391h343.5V350.6z"/>
	<path class="st2" d="M458.6,353.1c0-20.4-13.4-37.5-31.2-40c-2.9-9.8-10-17.2-18.9-19.7c-8.8-2.4-18.2,0.5-24.7,7.7
		c-5.1-10.9-15.8-16.9-26.5-14.8c-1.9-11.1-8.5-20.5-17.8-24.8c-9.2-4.3-19.8-3.1-28,3.3c-8.5-20.5-26.9-33.4-46.9-32.8
		c-20,0.6-37.7,14.6-45.2,35.6c-14.9-6.1-31.3,2.3-37.1,19c-5.7-1.8-11.8-0.7-16.7,3.1c-4.9,3.8-8.2,9.8-8.9,16.4
		c-1.1-0.1-2.1-0.2-3.2-0.2c-21.3,0-38.5,19.6-38.5,43.7v43.7h343.5V353.1z"/>
	<path class="st3" d="M531.1,393.6c0-20.4-13.4-37.5-31.2-40c-2.9-9.8-10-17.2-18.9-19.7c-8.8-2.4-18.2,0.5-24.7,7.7
		c-5.1-10.9-15.8-16.9-26.5-14.8c-1.9-11.1-8.5-20.5-17.8-24.8c-9.2-4.3-19.8-3.1-28,3.3c-8.5-20.5-26.9-33.4-46.9-32.8
		c-20,0.6-37.7,14.6-45.2,35.6c-14.9-6.1-31.3,2.3-37.1,19c-5.7-1.8-11.8-0.7-16.7,3.1c-4.9,3.8-8.2,9.8-8.9,16.4
		c-1.1-0.1-2.1-0.2-3.2-0.2c-21.3,0-38.5,19.6-38.5,43.7V434h343.5V393.6z"/>
	<g>
		<path class="st4" d="M255.6,256.7l0.7,0.1c-0.1,1.2-0.2,2.5-0.2,3.7l-0.4-0.1C255.7,259.2,255.7,257.9,255.6,256.7z"/>
		<path class="st4" d="M265.2,263.9l-8.7-3.4"/>
		<path class="st4" d="M248.1,257.5l-2.2-0.9"/>
		<path class="st4" d="M256.8,248.8l0.3,8.2l-0.7-0.2C256.4,254.1,256.6,251.4,256.8,248.8z"/>
	</g>
	<g>
		<path class="st5" d="M255.8,260.4l-21.9-6.1C241.5,255.2,248.9,257.2,255.8,260.4z"/>
	</g>
	<path class="st6" d="M512,408.3c0-26.7-19.9-49.2-46.4-52.5c-4.3-12.9-14.9-22.6-28.1-25.8c-13.2-3.2-27.1,0.6-36.8,10
		c-7.6-14.4-23.5-22.2-39.5-19.5c-2.8-14.6-12.7-26.8-26.5-32.5s-29.4-4-41.7,4.4c-12.7-26.9-40.1-43.8-69.8-43
		c-29.8,0.8-56.2,19.1-67.4,46.7c-22.1-8-46.6,3-55.2,25c-8.5-2.3-17.6-0.9-25,4.1S63.3,338,62.2,346.7c-1.6-0.1-3.2-0.2-4.8-0.2
		C25.7,346.5,0,372.2,0,403.9v57.4h512V408.3z"/>
	<g>
		<path class="st7" d="M187.6,320c-2.9,0-5.6-1.4-7.2-3.7c-1.7-2.3-2.1-5.3-1.1-8c5.3-14.9,17.4-26.2,32.6-30.5s31.5-1,43.7,9
			c3.8,3.1,4.4,8.6,1.3,12.4s-8.6,4.4-12.4,1.3c-5.5-4.5-12.3-6.9-19.4-6.9c-13.1,0-24.8,8.3-29.1,20.6
			C194.7,317.6,191.4,320,187.6,320z"/>
		<path class="st7" d="M379.6,381.8c-4.9,0-8.8-4-8.8-8.8c0-3.2-1.7-6.1-4.4-7.6c-2.7-1.6-6.1-1.6-8.8,0c-2.7,1.6-6.1,1.6-8.8,0
			c-2.7-1.6-4.4-4.5-4.4-7.6c0-3.2,1.7-6.1,4.4-7.6c8.2-4.7,18.3-4.7,26.5,0s13.2,13.5,13.2,22.9c0,2.3-0.9,4.6-2.6,6.2
			C384.2,380.9,381.9,381.8,379.6,381.8z"/>
		<path class="st7" d="M476.7,417.1c-4.9,0-8.8-4-8.8-8.8c0-3.2-1.7-6.1-4.4-7.6s-6.1-1.6-8.8,0c-2.7,1.6-6.1,1.6-8.8,0
			c-2.7-1.6-4.4-4.5-4.4-7.6c0-3.2,1.7-6.1,4.4-7.6c8.2-4.7,18.3-4.7,26.5,0s13.2,13.5,13.2,22.9c0,2.3-0.9,4.6-2.6,6.2
			C481.3,416.2,479,417.1,476.7,417.1z"/>
		<path class="st7" d="M88.7,390.6c-4.2,0-7.8-3-8.6-7.1c-2.1-10.2,1.1-20.7,8.4-28c7.3-7.3,17.8-10.5,28-8.4
			c4.8,1,7.9,5.6,6.9,10.4s-5.6,7.9-10.4,6.9c-0.9-0.2-1.8-0.3-2.7-0.3c-7.3,0-13.2,5.9-13.2,13.2c0,0.9,0.1,1.8,0.3,2.7
			c0.5,2.6-0.1,5.3-1.8,7.3C93.9,389.4,91.4,390.6,88.7,390.6z"/>
		<path class="st7" d="M289.1,417.1c-2.9,0-5.5-1.4-7.2-3.7s-2.1-5.3-1.1-8c4-11.2,1.1-23.7-7.3-32.1c-8.4-8.4-20.9-11.3-32.1-7.3
			c-4.6,1.6-9.6-0.8-11.2-5.4s0.8-9.6,5.4-11.2c17.6-6.2,37.3-1.8,50.5,11.5c13.2,13.2,17.7,32.9,11.5,50.5
			C296.1,414.7,292.8,417.1,289.1,417.1z"/>
	</g>
</g>
</svg>
