<?xml version="1.0" encoding="utf-8"?>
<!-- Generator: Adobe Illustrator 21.1.0, SVG Export Plug-In . SVG Version: 6.00 Build 0)  -->
<svg version="1.1"
	 id="Слой_1" inkscape:version="0.91 r13725" sodipodi:docname="003-gold-ingots.svg" xmlns:cc="http://creativecommons.org/ns#" xmlns:dc="http://purl.org/dc/elements/1.1/" xmlns:inkscape="http://www.inkscape.org/namespaces/inkscape" xmlns:rdf="http://www.w3.org/1999/02/22-rdf-syntax-ns#" xmlns:sodipodi="http://sodipodi.sourceforge.net/DTD/sodipodi-0.dtd" xmlns:svg="http://www.w3.org/2000/svg"
	 xmlns="http://www.w3.org/2000/svg" xmlns:xlink="http://www.w3.org/1999/xlink" x="0px" y="0px" viewBox="0 0 256 256"
	 style="enable-background:new 0 0 256 256;" xml:space="preserve">
<g id="g3" transform="translate(0.33050847,-0.99152544)">
	<path id="path5" inkscape:connector-curvature="0" d="M184.7,129.4c-2.2,4-6.1,6.5-10.4,6.5H80.9c-4.3,0-8.3-2.5-10.4-6.5
		c-2.2-4-2.2-9,0-13.1l23.4-43.8c2.1-4,6.1-6.5,10.4-6.5h46.7c4.3,0,8.3,2.5,10.4,6.5l23.4,43.8
		C186.9,120.4,186.9,125.4,184.7,129.4z M116.2,196.4l-23.4-43.8c-2.2-4-6.1-6.5-10.4-6.5H35.7c-4.3,0-8.3,2.5-10.4,6.5L1.9,196.4
		c-2.2,4-2.2,9,0,13.1c2.2,4,6.1,6.5,10.4,6.5h93.4c4.3,0,8.3-2.5,10.4-6.5C118.3,205.4,118.3,200.4,116.2,196.4z M253.3,196.4
		l-23.4-43.8c-2.2-4-6.1-6.5-10.4-6.5h-46.7c-4.3,0-8.3,2.5-10.4,6.5L139,196.4c-2.2,4-2.2,9,0,13.1c2.1,4,6.1,6.5,10.4,6.5h93.4
		c4.3,0,8.3-2.5,10.4-6.5C255.5,205.4,255.5,200.4,253.3,196.4z M210,70.3l-4.2,19.6L186.2,94l19.6,4.2l4.2,19.6l4.2-19.6l19.6-4.2
		l-19.6-4.2L210,70.3z M58.3,47.5L54.1,67l-19.6,4.2l19.6,4.2l4.2,19.6l4.2-19.6L82,71.2L62.5,67L58.3,47.5z M157.9,16.5L153.7,36
		l-19.6,4.2l19.6,4.2l4.2,19.6l4.2-19.6l19.6-4.2L162,36L157.9,16.5z"/>
</g>
</svg>
