<?xml version="1.0" encoding="iso-8859-1"?>
<!-- Generator: Adobe Illustrator 19.0.0, SVG Export Plug-In . SVG Version: 6.00 Build 0)  -->
<svg version="1.1" id="Capa_1" xmlns="http://www.w3.org/2000/svg" xmlns:xlink="http://www.w3.org/1999/xlink" x="0px" y="0px"
	 viewBox="0 0 512 512" style="enable-background:new 0 0 512 512;" xml:space="preserve">
<path style="fill:#A86D38;" d="M309.324,222.57c-15.206,0-237.121,0-246.587,0C28.088,222.57,0,260.107,0,306.41
	s28.088,83.839,62.737,83.839h246.587c34.648,0,62.737-37.536,62.737-83.839S343.972,222.57,309.324,222.57z"/>
<path style="fill:#995F30;" d="M309.324,369.645H62.737c-32.037,0-58.446-32.098-62.248-73.537
	c-4.627,50.405,24.786,94.142,62.248,94.142h246.587c34.648,0,62.737-37.536,62.737-83.839c0-3.491-0.179-6.924-0.488-10.302
	C367.77,337.547,341.36,369.645,309.324,369.645z"/>
<path style="fill:#B78046;" d="M449.263,255.484c-15.205,0-237.121,0-246.587,0c-34.649,0-62.737,37.536-62.737,83.839
	s28.088,83.839,62.737,83.839h246.587c34.648,0,62.737-37.536,62.737-83.839S483.911,255.484,449.263,255.484z"/>
<path style="fill:#A86D38;" d="M449.263,402.582H202.676c-32.04,0-58.451-32.104-62.25-73.548
	c-4.622,50.426,24.808,94.13,62.25,94.13h246.587c34.648,0,62.737-37.536,62.737-83.839c0-3.487-0.178-6.916-0.487-10.291
	C507.714,370.479,481.302,402.582,449.263,402.582z"/>
<path style="fill:#B78046;" d="M384.015,88.837c-15.205,0-237.121,0-246.587,0c-34.649,0-62.737,37.536-62.737,83.839
	s28.088,83.839,62.737,83.839h246.587c34.648,0,62.737-37.536,62.737-83.839S418.663,88.837,384.015,88.837z"/>
<path style="fill:#A86D38;" d="M384.015,235.91H137.428c-32.037,0-58.446-32.098-62.248-73.537
	c-4.627,50.409,24.789,94.142,62.248,94.142h246.587c34.648,0,62.737-37.536,62.737-83.839c0-3.491-0.178-6.924-0.488-10.302
	C442.461,203.813,416.051,235.91,384.015,235.91z"/>
<ellipse style="fill:#CC9562;" cx="62.737" cy="306.41" rx="62.737" ry="83.84"/>
<path style="fill:#B78046;" d="M62.737,390.25c15.759,0,30.149-7.782,41.168-20.605H62.737c-32.037,0-58.446-32.098-62.248-73.537
	C-4.126,346.441,25.261,390.25,62.737,390.25z"/>
<ellipse style="fill:#CC9562;" cx="202.68" cy="339.32" rx="62.737" ry="83.84"/>
<path style="fill:#B78046;" d="M202.676,423.164c15.749,0,30.131-7.773,41.148-20.582h-41.147c-32.04,0-58.451-32.104-62.25-73.548
	C135.812,379.404,165.223,423.164,202.676,423.164z"/>
<g>
	<path style="fill:#A86D38;" d="M450.237,297.118h-16.164c-4.267,0-7.727-3.459-7.727-7.727s3.459-7.727,7.727-7.727h16.164
		c4.267,0,7.727,3.459,7.727,7.727S454.504,297.118,450.237,297.118z"/>
	<path style="fill:#A86D38;" d="M396.965,297.118h-44.387c-4.267,0-7.727-3.459-7.727-7.727s3.459-7.727,7.727-7.727h44.387
		c4.267,0,7.727,3.459,7.727,7.727S401.233,297.118,396.965,297.118z"/>
	<path style="fill:#A86D38;" d="M314.272,297.118h-20.368c-4.267,0-7.727-3.459-7.727-7.727s3.46-7.727,7.727-7.727h20.368
		c4.267,0,7.727,3.459,7.727,7.727S318.539,297.118,314.272,297.118z"/>
	<path style="fill:#A86D38;" d="M464.874,330.327h-87.401c-4.267,0-7.727-3.459-7.727-7.727c0-4.267,3.459-7.727,7.727-7.727h87.401
		c4.267,0,7.727,3.459,7.727,7.727C472.601,326.868,469.142,330.327,464.874,330.327z"/>
	<path style="fill:#A86D38;" d="M340.032,330.327H306.45c-4.267,0-7.727-3.459-7.727-7.727c0-4.267,3.459-7.727,7.727-7.727h33.582
		c4.267,0,7.727,3.459,7.727,7.727C347.759,326.868,344.3,330.327,340.032,330.327z"/>
	<path style="fill:#A86D38;" d="M463.829,363.536h-39.388c-4.267,0-7.727-3.459-7.727-7.727s3.459-7.727,7.727-7.727h39.388
		c4.267,0,7.727,3.459,7.727,7.727S468.097,363.536,463.829,363.536z"/>
	<path style="fill:#A86D38;" d="M385.835,363.536H306.45c-4.267,0-7.727-3.459-7.727-7.727s3.459-7.727,7.727-7.727h79.385
		c4.267,0,7.727,3.459,7.727,7.727S390.102,363.536,385.835,363.536z"/>
	<path style="fill:#A86D38;" d="M450.237,396.747h-14.013c-4.267,0-7.727-3.46-7.727-7.727s3.459-7.727,7.727-7.727h14.013
		c4.267,0,7.727,3.459,7.727,7.727S454.504,396.747,450.237,396.747z"/>
	<path style="fill:#A86D38;" d="M354.861,396.747h-60.958c-4.267,0-7.727-3.46-7.727-7.727s3.46-7.727,7.727-7.727h60.958
		c4.267,0,7.727,3.459,7.727,7.727S359.129,396.747,354.861,396.747z"/>
	<path style="fill:#A86D38;" d="M398.209,396.747h-7.224c-4.267,0-7.727-3.46-7.727-7.727s3.459-7.727,7.727-7.727h7.224
		c4.267,0,7.727,3.459,7.727,7.727S402.476,396.747,398.209,396.747z"/>
</g>
<ellipse style="fill:#CC9562;" cx="137.43" cy="172.679" rx="62.737" ry="83.84"/>
<path style="fill:#B78046;" d="M178.595,235.91h-41.168c-32.037,0-58.446-32.098-62.248-73.537
	c-2.543,27.708,5.264,58.049,24.712,77.486c0.042,0.042,0.087,0.08,0.129,0.122c1.34,1.332,2.728,2.582,4.147,3.771
	C127.3,263.127,157.538,260.413,178.595,235.91z"/>
<g>
	<path style="fill:#A86D38;" d="M384.988,130.469h-16.164c-4.267,0-7.727-3.459-7.727-7.727c0-4.267,3.459-7.727,7.727-7.727h16.164
		c4.267,0,7.727,3.459,7.727,7.727C392.715,127.01,389.256,130.469,384.988,130.469z"/>
	<path style="fill:#A86D38;" d="M331.717,130.469h-37.072c-4.267,0-7.727-3.459-7.727-7.727c0-4.267,3.459-7.727,7.727-7.727h37.072
		c4.267,0,7.727,3.459,7.727,7.727C339.444,127.01,335.984,130.469,331.717,130.469z"/>
	<path style="fill:#A86D38;" d="M249.023,130.469h-20.369c-4.267,0-7.727-3.459-7.727-7.727c0-4.267,3.459-7.727,7.727-7.727h20.369
		c4.267,0,7.727,3.459,7.727,7.727C256.75,127.01,253.291,130.469,249.023,130.469z"/>
	<path style="fill:#A86D38;" d="M399.626,163.678h-80.087c-4.267,0-7.727-3.459-7.727-7.727c0-4.267,3.459-7.727,7.727-7.727h80.087
		c4.267,0,7.727,3.459,7.727,7.727C407.352,160.219,403.893,163.678,399.626,163.678z"/>
	<path style="fill:#A86D38;" d="M282.099,163.678h-40.896c-4.267,0-7.727-3.459-7.727-7.727c0-4.267,3.459-7.727,7.727-7.727h40.896
		c4.267,0,7.727,3.459,7.727,7.727C289.825,160.219,286.366,163.678,282.099,163.678z"/>
	<path style="fill:#A86D38;" d="M398.581,196.887h-39.388c-4.267,0-7.727-3.459-7.727-7.727s3.459-7.727,7.727-7.727h39.388
		c4.267,0,7.727,3.459,7.727,7.727S402.848,196.887,398.581,196.887z"/>
	<path style="fill:#A86D38;" d="M320.586,196.887h-79.384c-4.267,0-7.727-3.459-7.727-7.727s3.459-7.727,7.727-7.727h79.384
		c4.267,0,7.727,3.459,7.727,7.727S324.854,196.887,320.586,196.887z"/>
	<path style="fill:#A86D38;" d="M384.988,230.098h-14.013c-4.267,0-7.727-3.459-7.727-7.727c0-4.267,3.459-7.727,7.727-7.727h14.013
		c4.267,0,7.727,3.459,7.727,7.727S389.256,230.098,384.988,230.098z"/>
	<path style="fill:#A86D38;" d="M296.927,230.098h-68.273c-4.267,0-7.727-3.459-7.727-7.727c0-4.267,3.459-7.727,7.727-7.727h68.273
		c4.267,0,7.727,3.459,7.727,7.727S301.195,230.098,296.927,230.098z"/>
	<path style="fill:#A86D38;" d="M337.14,230.098h-7.224c-4.267,0-7.727-3.459-7.727-7.727c0-4.267,3.459-7.727,7.727-7.727h7.224
		c4.267,0,7.727,3.459,7.727,7.727S341.407,230.098,337.14,230.098z"/>
</g>
<g>
	<ellipse style="fill:#DDA373;" cx="56.32" cy="306.41" rx="37.21" ry="55.4"/>
	<ellipse style="fill:#DDA373;" cx="196.26" cy="339.32" rx="37.21" ry="55.4"/>
	<ellipse style="fill:#DDA373;" cx="131.01" cy="172.679" rx="37.21" ry="55.4"/>
</g>
<g>
	<ellipse style="fill:#EDB58C;" cx="51.633" cy="306.41" rx="15.399" ry="22.924"/>
	<ellipse style="fill:#EDB58C;" cx="191.57" cy="339.32" rx="15.399" ry="22.924"/>
	<ellipse style="fill:#EDB58C;" cx="126.32" cy="172.679" rx="15.399" ry="22.924"/>
</g>
<g>
</g>
<g>
</g>
<g>
</g>
<g>
</g>
<g>
</g>
<g>
</g>
<g>
</g>
<g>
</g>
<g>
</g>
<g>
</g>
<g>
</g>
<g>
</g>
<g>
</g>
<g>
</g>
<g>
</g>
</svg>
